<?xml version="1.0" standalone="no"?>
<!DOCTYPE svg PUBLIC "-//W3C//DTD SVG 1.1//EN" "http://www.w3.org/Graphics/SVG/1.1/DTD/svg11.dtd" >
<svg xmlns="http://www.w3.org/2000/svg">
<metadata></metadata>
<defs>
<font id="american_typewriter_bqregular" horiz-adv-x="1280" >
<font-face units-per-em="2048" ascent="1638" descent="-410" />
<missing-glyph horiz-adv-x="681" />
<glyph horiz-adv-x="2048" />
<glyph horiz-adv-x="2048" />
<glyph unicode="&#xd;" horiz-adv-x="2048" />
<glyph unicode=" "  horiz-adv-x="681" />
<glyph unicode="&#x09;" horiz-adv-x="681" />
<glyph unicode="&#xa0;" horiz-adv-x="681" />
<glyph unicode="!" horiz-adv-x="641" d="M174 70q1 43 34 73.5t77 32.5q39 2 64.5 -21.5t25.5 -62.5q0 -44 -33.5 -77t-79.5 -33q-27 0 -45.5 10t-27 25t-12 28t-3.5 25zM289 319q0 15 2 21q2 10 6 31.5t6 31.5q24 129 29 160l15 75l15 75l58 305q50 257 65 360q0 25 13 62q14 33 41 33q30 0 30 -39 q0 -6 -2.5 -19t-7.5 -35t-8 -37q-9 -42 -25.5 -121t-21.5 -104l-90 -463q-7 -44 -23.5 -128t-23.5 -124q-2 -14 -5.5 -38t-5.5 -34.5t-7.5 -23t-14.5 -18.5q-8 -8 -21 -8q-24 2 -24 38z" />
<glyph unicode="&#x22;" horiz-adv-x="811" d="M265.5 1479q3.5 24 21.5 39q19 16 45 16t46 -16.5t19 -57.5l-55 -516h-31l-45 490q-4 21 -0.5 45zM606 1434v13v13.5t0.5 12t2 13t4 11t6.5 11.5t10 10q19 16 45 16q25 0 45.5 -16.5t19.5 -57.5l-57 -516h-29z" />
<glyph unicode="#" horiz-adv-x="1366" d="M252 553v61h323l35 258h-309v62h315l76 512h62l-72 -512h266l74 512h63l-73 -512h295v-62h-301l-39 -258h293v-61h-297l-80 -553h-62l78 553h-268l-78 -553h-64l78 553h-315zM637 614h268l37 258h-268z" />
<glyph unicode="$" horiz-adv-x="1236" d="M80 342q0 64 32.5 118.5t94.5 53.5q37 0 53 -18t16 -41q0 -24 -14 -43q-22 -29 -51 -33q-4 0 -17 -0.5t-19.5 -1.5t-15 -5.5t-12.5 -13.5q-6 -12 -6 -30q0 -22 19 -66q32 -65 113 -113.5t214 -66.5l127 657q-9 3 -33.5 10t-35.5 10t-32 10t-34.5 12.5t-30.5 13.5t-32 16 q-82 47 -112 108.5t-28 116.5q0 58 25.5 121t65.5 109q43 48 110.5 85.5t132.5 53.5q26 5 55 8.5t55 5.5t28 2l30 158q2 13 6.5 36t6.5 36q2 14 3.5 21.5t6 17t13.5 14t22 4.5q20 0 20 -29q0 -12 -14 -63q-1 -7 -11 -47l-28 -150q48 -2 96 -12q75 -15 132.5 -44t90 -65.5 t48.5 -74.5t16 -76q0 -41 -18.5 -79.5t-51.5 -59.5q-32 -19 -61 -19q-64 0 -64 53q0 15 5.5 27.5t12.5 20.5t17.5 14.5t17.5 9.5t16.5 6t10.5 4q41 15 41 60q0 41 -35 78q-80 91 -284 104l-113 -580q23 -7 72 -20.5t83 -25t66 -27.5q178 -88 178 -256q0 -138 -112 -267 q-48 -52 -110.5 -88t-122.5 -50.5t-98.5 -19.5t-70.5 -5q-23 0 -33 2l-28 -150q-15 -88 -26 -107.5t-27 -17.5q-23 0 -23 27q0 9 21 108l28 142q-145 19 -246 80q-15 7 -42 27.5t-48 45.5q-61 71 -61 158zM334 1044q0 -93 74 -155q34 -29 77.5 -46t141.5 -44l108 567 q-127 0 -229 -57q-49 -27 -84 -66q-39 -40 -63.5 -93.5t-24.5 -105.5zM543 78q119 -5 234.5 42t178.5 138q64 90 64 191q0 79 -41 131q-13 17 -29 32t-38.5 27.5t-37 20.5t-45.5 18.5t-40.5 14t-46 13.5t-40.5 11q-19 7 -34 10z" />
<glyph unicode="%" horiz-adv-x="1878" d="M121 872q0 113 37 232q31 100 78.5 173t102.5 111t106.5 55t105.5 19q132 0 211 -71q102 -90 102 -281q0 -146 -57 -295q-58 -142 -160 -219q-101 -68 -217 -68q-59 0 -107.5 15t-79 37.5t-53.5 53t-34.5 56t-18.5 51.5q-16 57 -16 131zM184 866q0 -68 16 -120t41 -83 t59 -50t65 -26t65 -7q162 0 260 145q52 76 81.5 187t29.5 210q0 167 -90 240q-68 49 -156 47q-166 0 -266 -162q-47 -75 -76 -182.5t-29 -198.5zM489 20q0 15 43 80l43 68q25 37 72 103t66 94q9 12 30.5 45.5t34.5 50.5q150 223 320 491q154 243 270 416q5 8 16.5 24.5 t16.5 24.5q20 35 39 37q24 0 24 -29q0 -19 -30 -63q-4 -6 -13.5 -18.5t-13.5 -18.5l-92 -135q-30 -45 -96.5 -146.5t-102.5 -154.5q-172 -260 -182 -275q-36 -54 -101.5 -156.5t-95.5 -148.5q-71 -107 -114 -176q-13 -20 -35.5 -58t-30.5 -50q-20 -33 -41 -33q-25 11 -27 28 zM1083 332q0 110 37 229q25 81 62 144.5t76 103t84.5 65t86.5 35.5t84 11q40 1 79 -7t82.5 -31.5t76.5 -60.5t54.5 -102.5t21.5 -149.5q0 -126 -35 -231.5t-74 -165.5q-43 -67 -106 -115q-94 -71 -219 -71q-88 0 -154 32q-156 80 -156 314zM1147 324q0 -84 22.5 -143.5 t61.5 -89t78 -42t84 -12.5q157 0 258 143q53 76 82.5 188t29.5 212q0 69 -16 122t-40.5 83.5t-58.5 50t-65 26t-65 6.5q-163 -2 -271 -166q-45 -73 -72.5 -181t-27.5 -197z" />
<glyph unicode="&#x26;" horiz-adv-x="1835" d="M111 342q6 126 65 221q30 48 73.5 90t84.5 70t102 56.5t101.5 44t107.5 38.5q-65 189 -65 289q0 139 90 229q93 93 227 93q40 0 84 -13q46 -14 78.5 -39.5t46.5 -55.5t19.5 -54.5t4.5 -46.5q0 -133 -124 -252q-40 -38 -94.5 -73t-90 -53.5t-106.5 -51.5q59 -166 86 -234 q47 -109 63 -143q33 -67 51 -101q16 -31 64 -100q38 57 69 111.5t45 83.5t56 118q62 127 76 152q16 30 45 76q13 21 25 39t44 53.5t65.5 59.5t85 43.5t105.5 19.5q104 0 176 -59.5t72 -161.5q0 -101 -66.5 -174.5t-166.5 -73.5q-67 0 -98 31.5t-31 70.5q0 15 4 27 q8 29 27.5 42t37.5 13q11 0 25 -9.5t14 -29.5q-5 -27 -20 -35q-3 -2 -9 -3.5t-11 -2.5t-9 -3.5t-4 -6.5q0 -8 6 -14q17 -33 78 -33q39 0 72 18q44 25 70 76.5t26 103.5q0 80 -56 127.5t-137 47.5q-53 0 -118 -29q-52 -27 -91 -69.5t-77 -102.5q-46 -74 -113.5 -221 t-101.5 -207q-44 -72 -80 -123q25 -33 63 -66q71 -60 155.5 -83t192.5 -23h119q12 1 29.5 3t23 2t17.5 -1q16 -8 16 -25q0 -20 -24 -28q-10 -4 -80 -4q-185 0 -279.5 18.5t-169.5 71.5q-34 24 -100 90q-36 -38 -65.5 -63t-84 -59.5t-127 -52.5t-159.5 -18q-33 0 -67 4 t-95 18.5t-118 53.5t-95 98q-55 91 -55 195zM172 336q0 -80 35 -143q24 -46 65 -79.5t79 -50t83.5 -26t68 -11t42.5 -1.5q186 0 319 106q50 41 80 84q-43 62 -65 98q-26 45 -53.5 100t-48.5 103.5t-42.5 102.5t-34 88t-25 69.5t-13.5 38.5q-13 -5 -57.5 -22t-61 -23.5 t-55.5 -23t-57.5 -27.5t-51 -29.5t-51.5 -36t-43 -40.5t-41.5 -50t-32.5 -57q-39 -80 -39 -170zM639 1153q0 -17 1.5 -35.5t6.5 -41t8 -37.5t10.5 -42t10.5 -37t12 -39.5t10 -33.5q98 37 176 90q15 10 30.5 21t47.5 40.5t55 59.5t41.5 75t18.5 91q0 37 -14 69q-21 42 -67 65 t-95 23q-88 0 -158 -57q-35 -29 -64.5 -82t-29.5 -129z" />
<glyph unicode="'" horiz-adv-x="425" d="M243 1460q0 8 1.5 19t7 21t14.5 18q18 16 45 16q28 0 44 -15t20 -32q2 -10 2 -27l-58 -516h-28l-47 490v9q-1 9 -1 17z" />
<glyph unicode="(" horiz-adv-x="768" d="M74 383q0 236 102.5 453t280.5 383q124 115 256 182q44 23 111 51t94 29q20 0 20 -15q0 -6 -6 -12q-8 -8 -64 -31q-39 -16 -104 -49q-128 -71 -244 -180t-194 -233q-179 -284 -179 -594q0 -342 226 -590q94 -101 180 -152q27 -17 27 -31q0 -16 -21 -16q-6 0 -14 3l-8 3 q-24 8 -39 23q-30 17 -103.5 77t-124.5 121q-96 118 -146 268.5t-50 309.5z" />
<glyph unicode=")" horiz-adv-x="768" d="M-166 -408q0 11 8 17q3 2 16.5 8t34.5 15t33 14q85 38 156 84q43 28 88.5 63.5t120 110.5t129.5 155q63 91 107 190t63 185t26 146t7 114q0 333 -207 572q-77 88 -166 149q-27 16 -33 21q-24 14 -24 28q0 17 18 17q21 0 53 -21q34 -21 108.5 -80.5t125.5 -119.5 q33 -40 62.5 -88.5t63.5 -122t54 -171.5t20 -204q0 -168 -57 -336q-72 -215 -230 -397t-362 -287q-152 -74 -196 -76q-12 0 -15.5 3t-3.5 11z" />
<glyph unicode="*" horiz-adv-x="937" d="M236 956q3 24 26 39q27 19 141 62q96 34 121 43l4 30q-58 39 -168 89q-1 0 -11 5t-12.5 6.5t-11 6t-12 8t-8 9t-6.5 11.5t-2 13q0 16 12 25.5t21 11.5t14 2q8 0 14.5 -1.5t14.5 -7t13 -9.5t17 -14.5t19 -16.5q28 -24 39 -35q12 -11 25 -22.5t19.5 -17.5t18.5 -15t29 -21 l25 12q2 20 7 61t7 62q0 3 2 24.5t5.5 49t8.5 49.5q0 4 3.5 17.5t16.5 30t31 16.5q27 0 27 -37q0 -16 -9.5 -50.5t-23.5 -76t-16 -49.5q-6 -18 -16 -52.5t-13 -44.5l23 -12q49 26 157 100q35 23 50.5 32t34.5 16.5t36 7.5q16 0 23.5 -8t5.5 -17q0 -9 -4.5 -17.5t-14 -15 t-16 -10.5t-19 -9.5t-14.5 -6.5q-27 -12 -86.5 -37t-89.5 -39q-31 -15 -47 -27l-6 -32q19 -11 33 -17q6 -3 57 -26q17 -7 48 -23t36 -18q5 -3 13 -7.5t21 -18.5t13 -28q-8 -38 -43 -38q-13 0 -45 16q-10 6 -20 14.5t-22.5 21t-18.5 17.5q-15 16 -56 47q-6 5 -18 16.5 t-18 16.5l-35 -14q-1 -20 -4 -62.5t-4 -64.5q-8 -84 -15 -113q-8 -47 -43 -47q-14 0 -24.5 10t-10.5 33q0 13 17 63q2 6 12 41q29 94 41 140l-27 20q-25 -12 -92 -51q-4 -3 -26 -15.5t-33 -19.5l-33 -22t-31 -20t-22.5 -11.5t-22.5 -5.5q-32 0 -32 28z" />
<glyph unicode="+" horiz-adv-x="1366" d="M178 567v60h574v565h61v-565h565v-60h-565v-567h-61v567h-574z" />
<glyph unicode="," horiz-adv-x="555" d="M29 -406q0 2 2 8t2 7q4 6 24 23t31 28q31 31 43 51q48 72 67 110q40 81 40 138q0 35 -27 35l-25 -6q-12 -2 -26 -2q-26 0 -37 6q-13 6 -25 23.5t-12 45.5q0 34 20 62q14 23 43.5 37t59.5 16q29 0 53 -12q52 -28 49 -111q0 -59 -14 -112q-9 -35 -26.5 -80.5t-61.5 -120 t-98 -125.5q-44 -44 -62 -41q-7 0 -13.5 4.5t-6.5 15.5z" />
<glyph unicode="-" horiz-adv-x="724" d="M102 590q0 35 56 35q14 0 38.5 -2t36.5 -2q35 -3 66 0h145q40 -2 115 2q42 3 62 -4t20 -31q0 -13 -8 -21q-12 -12 -62 -12q-33 0 -49 2h-225q-61 0 -92 -2q-52 0 -62 2q-6 0 -14 1.5t-18 9.5t-9 22z" />
<glyph unicode="." horiz-adv-x="555" d="M106 68q0 45 32.5 75.5t76.5 32.5q40 2 66 -21.5t26 -62.5q0 -45 -34 -77.5t-80 -32.5q-15 0 -33 6q-20 7 -37.5 26.5t-16.5 53.5z" />
<glyph unicode="/" horiz-adv-x="512" d="M-248 -381q0 13 19 45q15 30 30 57q17 34 47 97.5t43 89.5q33 68 138.5 287t174.5 365t134 288q42 87 119 255.5t86 188.5q9 22 59 129q14 35 28 43q7 3 15 4q35 0 35 -28q0 -9 -4.5 -23.5t-15 -37.5t-19.5 -41.5t-25.5 -51.5l-25.5 -51q-74 -160 -113 -240 q-32 -68 -92 -192t-74 -154q-28 -58 -59.5 -124.5t-69.5 -147t-59 -125.5q-105 -219 -139 -293q-43 -90 -101 -221q-6 -13 -23 -51t-26 -60q0 -1 -2.5 -7.5t-5.5 -11.5t-7.5 -11t-13 -9.5t-18.5 -3.5q-19 0 -27 12.5t-8 22.5z" />
<glyph unicode="0" horiz-adv-x="1323" d="M102 524q0 156 50 336t133 309q20 32 43.5 62.5t71.5 76.5t100.5 79.5t129.5 58.5t161 27q106 2 215 -39q46 -19 84.5 -47t65.5 -57t49 -67.5t35 -69.5t23 -72t14 -66t6.5 -60.5t2.5 -46.5v-33q0 -220 -74 -432q-93 -262 -266 -389q-152 -119 -352 -119q-209 0 -336 117 q-156 143 -156 432zM174 512q0 -230 107 -356q114 -131 311 -131q339 0 514 376q113 265 113 529q0 291 -164 413q-100 80 -258 78q-93 0 -172 -30q-164 -61 -279 -240q-79 -123 -125.5 -302.5t-46.5 -336.5z" />
<glyph unicode="1" horiz-adv-x="1323" d="M238 27q0 19 30 28q24 3 39.5 2.5t56.5 -2.5t70 -2q26 0 35 0.5t25.5 4t27 13t21.5 25.5q5 7 9 13.5t7.5 15t5.5 14t5 17t4.5 16.5t4.5 20.5t4 21.5t4.5 25.5t4.5 28.5q5 33 29 144l98 508q23 107 53 278q23 117 23 135q0 21 -8 35.5t-16 21t-24 10t-20.5 3.5h-17.5 q-27 0 -134 -10q-44 -7 -69 -7q-35 0 -35 27q0 1 8 17q18 18 53 18q10 0 29.5 -2t28.5 -2q66 -4 98 -4q41 0 123 4q24 4 41 4q10 0 16 -9t6 -20q-1 -21 -6 -51t-16.5 -88t-17.5 -94q-62 -327 -89 -465l-57 -289l-31 -184q-16 -88 -16 -121t17.5 -53.5t68.5 -20.5h39 q51 0 76 2q8 0 26 2t27 2q19 -1 31 -9.5t12 -18.5q0 -9 -8 -17q-11 -14 -45 -14q-30 0 -84 3.5t-70 4.5q-85 6 -174 6q-83 0 -162 -6q-13 -1 -50 -4.5t-58 -3.5t-35 8t-14 19z" />
<glyph unicode="2" horiz-adv-x="1323" d="M45 111q0 68 21 137q28 91 91 174.5t142 134.5q74 46 178 78.5t150 40.5q32 8 97.5 20.5t104 21t94.5 27.5t93 41.5t74 61.5t61 90q37 80 37 170q0 163 -123 242q-43 27 -117 49t-168 22q-25 0 -50.5 -1.5t-76 -11t-94.5 -25.5t-94 -49.5t-86 -78.5q-25 -31 -48.5 -72 t-23.5 -67q0 -16 6.5 -24.5t14.5 -6.5q4 0 7.5 2t7.5 5t7 4q17 4 27 4q21 0 33 -15t14 -26.5t2 -20.5q0 -14 -4 -28q-25 -56 -84 -56q-44 0 -71 27.5t-27 73.5q0 65 34 137q34 73 92.5 129t130.5 88t148.5 48t157.5 16q98 0 178 -23q116 -32 178 -93t80 -128q16 -50 16 -109 q-7 -229 -161 -348q-28 -21 -62 -38t-59 -27t-71 -21.5t-63.5 -15t-73 -13.5t-65.5 -12q-1 0 -28.5 -6t-58 -13.5t-76 -21t-87 -29t-86 -38.5t-77.5 -48q-58 -40 -111 -120q-51 -72 -72 -148q-10 -46 -10 -98q16 31 37 57q108 125 270 125q54 0 107 -18q19 -8 37.5 -18.5 t29.5 -17.5t30 -25.5t24 -23.5t27.5 -30.5t25.5 -28.5q59 -65 103.5 -87.5t95.5 -22.5q100 0 168 73q47 50 65.5 108.5t18.5 98.5q0 45 -17 62q-6 6 -10 6q-2 0 -8 -6q-4 -4 -10.5 -13.5t-12.5 -15.5q-18 -12 -35 -12q-18 0 -29 9.5t-13.5 18.5t-2.5 17q0 34 29 56t63 22 q50 0 74.5 -42.5t24.5 -95.5q0 -72 -29 -133q-39 -93 -119.5 -148.5t-179.5 -55.5q-64 0 -117 30t-127 113q-58 62 -90 84q-55 39 -133 39q-18 0 -43.5 -3t-68.5 -16.5t-76 -35.5q-39 -24 -72 -72q-2 -2 -8.5 -14t-5.5 -15q0 -6 4 -6q4 4 10 4q12 6 21 6q34 -6 34 -41 q0 -28 -19 -46.5t-48 -18.5q-17 0 -29 6q-45 21 -45 115z" />
<glyph unicode="3" horiz-adv-x="1323" d="M102 330q0 20 3 44.5t20.5 69.5t48.5 72q41 37 96 37q50 0 68 -33q8 -11 8 -35q0 -7 -2 -16t-2 -10q-6 -20 -22.5 -32.5t-38.5 -12.5q-9 0 -23 5t-16 7q-19 10 -31 10q-9 0 -21 -8q-16 -12 -24.5 -38t-9.5 -46v-20q0 -58 39 -121q31 -49 81 -85t95 -53t98.5 -27t78 -11.5 t46.5 -1.5q41 0 84 6t106 24.5t127 62.5t115 109q65 81 90 164t25 144q0 147 -100.5 229t-249.5 82q-116 0 -205 -39q-22 -10 -35 -10q-14 0 -21.5 7t-7.5 15q0 6 4 12q8 13 86 78q14 11 46.5 36.5t50.5 39.5q41 33 121.5 98.5t121.5 98.5l248 211h-491q-78 0 -246 -4 q-66 0 -82 -43q-6 -15 -17 -69t-16 -103q-4 -56 -8 -84q-2 -16 -3.5 -22.5t-6 -19.5t-13.5 -18.5t-22 -5.5q-23 0 -23 31q0 9 15 59q5 12 14 43q22 87 29 150q5 58 6 63q5 42 20 57q21 21 66 21q9 0 26.5 -1t26.5 -1q8 0 26 -1t27 -1q78 0 119 -2q26 0 82 -1t84 -1 q71 0 219 4q63 0 94 2q14 0 40 1t40 1q36 0 52 -7t16 -28q0 -11 -6 -21t-12.5 -16.5t-26.5 -23.5q-39 -37 -103 -86l-475 -398q1 0 26.5 6.5t42.5 10t47.5 7t57.5 3.5q99 0 176 -33q33 -14 63.5 -35t65 -57.5t55.5 -94t21 -128.5q0 -114 -49.5 -226.5t-132.5 -187.5 q-84 -76 -199 -117t-235 -41q-31 0 -69 4t-104 18t-132 50.5t-113 91.5q-70 82 -70 191z" />
<glyph unicode="4" horiz-adv-x="1323" d="M55 481q0 9 7 21t24 30.5t28.5 30t38.5 37t35 33.5q128 123 152 147q234 226 346 338l141 142q111 114 191 184q34 31 61 31q31 0 31 -25q-3 -30 -92 -500l-90 -454h145q20 1 59.5 2t59.5 2q51 0 55 -2l3 -2l5 -5t4 -6t1 -8q0 -7 -7 -18q-15 -15 -47 -15q-10 0 -73 5 h-213l-35 -181q-2 -10 -8 -39.5t-9 -44.5l-2 -11q-2 -11 -4 -26.5t-2 -27.5q0 -66 76 -66q16 0 48 1t48 1q52 4 60 0q20 -10 18 -24q0 -11 -8 -19q-18 -14 -58 -14q-11 0 -23.5 1t-27 2.5t-24.5 2.5q-41 4 -127 8q-25 2 -74 2q-29 0 -62 -2t-73 -5.5t-60 -4.5q-8 0 -24 -1 t-23 -1q-17 0 -26.5 8t-7.5 17q0 10 6 16q18 18 61 18q9 0 26.5 -2t26.5 -2q18 -2 56 -2q56 0 84 19q16 12 26.5 30.5t14 30t8.5 41.5t6 35q8 51 24 106l25 134h-580q-109 -4 -165 0q-24 2 -33.5 4.5t-16.5 11.5q-6 9 -6 16zM137 504q2 -8 49 -8h680l174 901l-69 -70 q-114 -110 -170 -166q-35 -34 -104.5 -100t-104.5 -100q-39 -38 -116 -115t-116 -115q-23 -23 -49 -48t-58 -55.5t-50 -47.5q-1 -1 -18 -18.5t-33 -35.5t-15 -22z" />
<glyph unicode="5" horiz-adv-x="1323" d="M113 303q0 68 32 129q59 98 148 98q11 0 24 -3t27.5 -17.5t13.5 -38.5q0 -32 -22 -56t-53 -24q-10 0 -29 8q-2 1 -9.5 6.5t-13.5 8t-12 2.5q-4 0 -16 -6q-17 -13 -26 -45.5t-9 -57.5q0 -36 18 -80q17 -42 46.5 -75t60.5 -54t71 -36t70 -21.5t65.5 -10.5t49.5 -4.5 t29 -0.5q230 0 378 137q76 70 119 172.5t43 206.5q0 89 -33 157q-25 51 -68.5 89t-83.5 56t-89 28.5t-73 12t-48 1.5q-123 0 -222.5 -42.5t-154.5 -88.5q-3 -3 -22 -20.5t-32 -24.5t-28 -7q-26 4 -26 27q0 11 4 21q9 27 18 57l150 487l24 80q11 46 31 62q13 10 63 10 q20 0 60 -1t59 -1q156 -4 234 -4q66 0 198 4q64 0 97 4h16q26 0 33 -14q4 -6 4 -23q0 -3 -6 -57v-45q0 -15 1 -41.5t1 -38t-4 -25t-13 -20.5q-6 -6 -16 -6q-23 0 -23 36q0 9 3.5 26.5t3.5 21.5q4 12 4 49q0 60 -33 75q-15 5 -29 5q-10 0 -31.5 -1t-31.5 -1q-12 1 -36.5 2 t-37.5 2h-342q-31 -2 -96 -2h-10h-9.5t-7.5 -0.5t-7 -1.5t-6 -2.5t-6 -4.5t-4 -7t-4 -9q-12 -46 -18 -66l-162 -520q194 156 420 156q108 0 203 -35q65 -23 114 -60.5t75 -75t41.5 -82.5t19.5 -76.5t4 -63.5q0 -119 -51 -230q-73 -163 -224.5 -250.5t-335.5 -87.5 q-20 0 -43 1t-76 9.5t-98 23t-97 45.5t-87 73q-61 82 -61 176z" />
<glyph unicode="6" horiz-adv-x="1323" d="M156 512q0 184 69 381q106 305 326 459q173 121 367 121q23 0 52.5 -3.5t81 -14.5t100.5 -41t81 -75q45 -64 45 -137q0 -26 -8 -59q-15 -49 -51 -84t-84 -35q-37 0 -51.5 19t-14.5 42q0 26 17.5 48t43.5 22q17 0 31 -8q1 0 9 -4t12 -4q14 0 24 20q8 12 8 53q0 95 -88 152 q-42 28 -104 42.5t-119 14.5q-49 0 -103 -10.5t-135.5 -49t-150.5 -101.5q-151 -138 -231 -392q-42 -151 -50 -206q-10 -48 -18 -148q24 80 72 158q80 125 211 191.5t282 66.5q104 0 200 -36t159 -108q88 -104 88 -251q0 -110 -45 -213q-72 -165 -215.5 -257t-323.5 -90 q-33 0 -67 4t-91 17.5t-114 48.5t-101 88q-114 136 -114 379zM242 385q0 -31 5.5 -65.5t30.5 -90.5t68 -96q54 -53 137 -80.5t166 -27.5q116 0 221 49q134 63 212.5 188.5t78.5 274.5q0 67 -20 129q-15 39 -43.5 75t-75 70.5t-118.5 53t-159 14.5q-196 -6 -339 -138 q-64 -58 -103.5 -134t-50 -127t-10.5 -95z" />
<glyph unicode="7" horiz-adv-x="1323" d="M250 920q0 11 3 23.5t11 38.5t12 40q21 70 23 80q24 94 47 278q3 32 8.5 47.5t18.5 24.5q6 6 18 6q10 0 18.5 -7t8.5 -24q0 -10 -15 -55t-18 -53q-19 -62 -27 -96q43 78 93 130t124 85q68 30 136 30q47 0 80 -16q28 -12 52.5 -32t59.5 -58.5t43 -46.5q29 -33 60 -53 q38 -25 84 -25q71 0 137 63q44 39 41 52q0 6 -4 8q-20 5 -29 14q-10 12 -10 31q1 26 16 41.5t28 18.5t25 3q58 0 58 -73q0 -19 -4 -41.5t-8 -36.5t-10 -31l-5 -18q-11 -26 -24 -50.5t-32.5 -51t-33 -45t-41 -46.5t-39.5 -41t-45.5 -43t-41.5 -37.5t-45.5 -40.5t-41.5 -36 q-93 -82 -159 -149.5t-120 -145.5q-87 -128 -135 -308q-26 -97 -35 -159q-14 -88 -22 -107q-15 -33 -47 -33q-6 0 -12 2t-12.5 9t-6.5 18q3 49 42.5 205t96.5 268q119 230 416 471q66 54 96 80t74 73t76 97q33 59 35 64q8 20 20 69q-10 -18 -17.5 -28.5t-25.5 -33t-43 -40.5 t-55 -31q-54 -18 -86 -18q-45 0 -87 23.5t-93 84.5q-4 5 -19.5 23.5t-20.5 24t-19.5 21t-22 21t-22.5 16t-27 14.5t-28.5 7.5t-33.5 3.5q-71 0 -149 -51q-165 -102 -203 -317q-22 -120 -25 -129q-12 -41 -37 -41q-24 0 -24 39z" />
<glyph unicode="8" horiz-adv-x="1323" d="M94 379q0 82 35 178q39 87 115.5 156.5t169.5 105.5q69 24 153 37q-50 12 -92 29q-71 35 -112 94t-41 135q0 45 16 92.5t53 95.5t90 86t134.5 61.5t179.5 23.5q26 0 54 -2t85 -11t113.5 -33.5t97.5 -62.5q80 -76 80 -188q0 -116 -72 -199q-61 -73 -147 -107 q-59 -20 -125 -30q29 -9 75 -27q25 -9 58.5 -28t81 -63.5t71.5 -96.5q29 -63 29 -150q0 -113 -47 -205q-24 -49 -64 -95.5t-103.5 -94t-159 -76.5t-208.5 -29q-85 0 -174.5 19t-156.5 57q-63 35 -107 88q-82 96 -82 240zM162 375q0 -87 28 -146q41 -85 145 -144.5t271 -59.5 q35 0 66 2t92.5 15t112 36.5t106.5 72t92 115.5q55 99 55 207q0 89 -36 154q-44 77 -136.5 132t-244.5 60q-116 7 -215 -22q-154 -42 -245 -153.5t-91 -268.5zM387 1124q0 -99 80 -166q104 -88 297 -88q85 0 156 21q102 30 170.5 103.5t68.5 174.5q0 76 -43 131 q-81 113 -303 121q-5 3 -61 0.5t-99 -12.5q-107 -25 -186.5 -103t-79.5 -182z" />
<glyph unicode="9" horiz-adv-x="1323" d="M113 266q0 64 37 115t100 51q30 0 49.5 -16t19.5 -45q-2 -29 -20.5 -49.5t-46.5 -20.5q-9 0 -27 6q-2 1 -7.5 5.5t-10.5 4.5l-10 -6q-19 -14 -19 -63q0 -53 35 -109q25 -32 65.5 -55.5t75 -34.5t76 -17t57.5 -6.5t31 -0.5q110 0 211 45q53 23 103.5 59.5t106 94.5 t105 146.5t84.5 198.5q44 147 54 232q6 40 10 125q-36 -122 -113 -213q-54 -63 -121.5 -106t-132.5 -61t-109 -24t-83 -6q-30 0 -66 3.5t-101.5 21.5t-115.5 49q-61 39 -106 104q-62 87 -62 211q0 103 45 211q71 163 216 260t323 97q116 0 222 -47.5t171 -137.5 q40 -54 69 -146.5t29 -215.5q0 -137 -45 -300.5t-116 -283.5q-22 -37 -47 -72.5t-80 -93t-115.5 -98.5t-151 -72t-188.5 -31q-180 0 -289 78q-51 38 -81.5 94.5t-30.5 118.5zM250 905q0 -129 78 -217q108 -121 305 -121q212 0 354 119q75 63 126.5 167t51.5 200 q0 126 -69 223q-55 74 -148 110.5t-192 34.5q-38 0 -78.5 -6.5t-97.5 -25t-116 -61t-106 -105.5q-50 -66 -79 -151.5t-29 -166.5z" />
<glyph unicode=":" horiz-adv-x="641" d="M176 70q0 44 32.5 74.5t78.5 33.5q49 1 70.5 -29.5t19.5 -56.5q0 -46 -34 -78t-81 -32q-48 0 -67 29t-19 59zM350 975q0 43 33.5 73.5t77.5 32.5q50 1 71 -27.5t21 -56.5q-1 -47 -36 -78.5t-81 -31.5q-48 0 -67 29t-19 59z" />
<glyph unicode=";" horiz-adv-x="641" d="M96 -406q0 4 2.5 9t5 8.5t8 9l8.5 8.5t11 10t12 11q26 21 56 59l11 17q11 16 26.5 43.5t31 58.5t26.5 67t11 64q0 35 -26 35q-4 0 -9 -1t-11 -2.5t-9 -2.5q-2 -2 -23 -2q-25 0 -39 6q-34 19 -34 69q0 28 14 56q30 49 108 59q28 0 52 -12q51 -24 51 -115q0 -142 -117 -334 q-32 -46 -55 -69q-38 -43 -57 -56q-22 -16 -33 -16q-21 0 -21 20zM332 973q0 13 12 49q13 26 40 41.5t58 17.5q40 2 65.5 -21.5t24.5 -62.5q0 -47 -33.5 -78.5t-80.5 -31.5t-66.5 29t-19.5 57z" />
<glyph unicode="&#x3c;" horiz-adv-x="1366" d="M96 680v94l1366 678v-63l-1327 -660l1327 -672v-63z" />
<glyph unicode="=" horiz-adv-x="1366" d="M98 387v59h1362v-59h-1362zM98 750v59h1362v-59h-1362z" />
<glyph unicode="&#x3e;" horiz-adv-x="1366" d="M96 -6v63l1327 672l-1327 660v63l1366 -678v-94z" />
<glyph unicode="?" horiz-adv-x="1110" d="M125 1092q0 29 8.5 61.5t27 71.5t56.5 79.5t90 73.5q130 86 314 95q121 5 240 -29.5t190 -112.5q75 -81 75 -198q0 -90 -47 -179q-21 -39 -50.5 -71t-57.5 -52.5t-70.5 -42t-71.5 -32.5t-79 -29.5t-76 -28.5q-1 -1 -16 -7t-31 -13.5t-37.5 -18.5t-36.5 -22 q-84 -54 -113 -172q-6 -24 -13 -68.5t-9 -56.5q-8 -39 -37 -39t-29 47q2 27 17 80q23 95 53 146t74 85q45 34 116.5 65.5t132 51.5t126.5 56t106 81q80 92 80 220q0 142 -117 219q-113 73 -299 73q-247 0 -385 -155l-7 -9q-7 -9 -9.5 -12.5t-10.5 -14t-11.5 -18t-10 -19 t-10.5 -22.5t-7.5 -24t-5.5 -27t-2 -28q0 -68 45 -105q24 -18 52 -18q36 0 36 24q0 5 -6 17q-2 4 -2 16q0 30 22 47t52 17q33 0 47 -20.5t14 -39.5q0 -39 -38 -74.5t-109 -35.5q-77 0 -123.5 45.5t-46.5 122.5zM256 70q0 43 33.5 73.5t77.5 32.5q39 2 65.5 -21.5t26.5 -62.5 q0 -26 -13 -49q-12 -21 -37.5 -41t-64.5 -20q-27 0 -45.5 9.5t-27 24.5t-12 28t-3.5 26z" />
<glyph unicode="@" horiz-adv-x="1835" d="M240 492q1 199 80.5 383t220.5 327q250 256 594 256q155 0 278 -55q175 -78 275 -244.5t100 -361.5q0 -148 -53.5 -298.5t-149.5 -246.5q-19 -19 -42 -38t-76.5 -44.5t-102.5 -24.5q-72 0 -113 46.5t-41 119.5q0 33 4 62q-32 -63 -57 -94q-45 -55 -112.5 -92t-133.5 -37 q-75 0 -127 36q-129 88 -129 301q0 167 78 314q58 111 154.5 188.5t208.5 77.5q48 0 103.5 -22.5t94.5 -86.5q18 -28 33 -75l31 127h98l-49 -226q-6 -27 -19 -86t-18.5 -87t-15.5 -75t-15 -73.5t-10.5 -59t-7.5 -54.5t-2 -38q0 -104 76 -104q94 0 190 129q22 30 43.5 68 t47 96t41.5 134t16 154q0 40 -5.5 83.5t-22 108t-56.5 133.5t-99 126q-166 166 -424 166q-82 0 -159 -18.5t-131.5 -44t-105.5 -61.5t-79.5 -62.5t-54.5 -55.5q-114 -127 -179 -315t-65 -367q2 -184 74 -334t221 -243q171 -103 416 -103q409 0 682 289l35 -39 q-41 -43 -81 -77.5t-109 -79.5t-142 -75t-177.5 -51.5t-219.5 -21.5q-173 0 -318 47q-235 76 -364 262t-129 437zM768 446q0 -148 80 -204q42 -27 96 -27q43 0 92 23q119 59 189 243q31 77 52.5 181t14.5 174q-8 77 -55 129.5t-123 52.5q-126 0 -209 -133q-61 -90 -99 -211 t-38 -228z" />
<glyph unicode="A" horiz-adv-x="1492" d="M-98 29q0 10 8.5 17t17.5 9q0 5 31 1.5t47 -3.5q31 0 45 6q13 4 24 10t22.5 18t19.5 21.5t20 29t19 31.5t22 39.5t23 41.5l141 252q31 51 80 137l416 733q12 21 20 33.5t25 26.5t35 14q22 0 32 -18.5t15 -57.5l151 -862q2 -10 60 -301q21 -116 49 -144q10 -9 27.5 -10.5 t53 1.5t56.5 3q35 0 35 -26q0 -5 -4 -13q-9 -18 -41 -18q-21 0 -57.5 3.5t-47.5 4.5q-43 6 -88 6q-57 0 -88 -2q-27 -3 -57 -6q-8 -1 -53 -6q-3 0 -11 -1t-12 -1q-17 1 -26 10t-9 17q0 11 11.5 20t25.5 12q6 1 22 0t39 -2.5t41 -1.5q27 0 39 4q39 13 39 68q0 36 -35 223 l-26 141q-3 30 -10 40.5t-27 9.5h-565q-14 0 -19.5 -1.5t-13 -9t-16.5 -24.5l-111 -197q-96 -179 -96 -205q0 -21 16.5 -35t50.5 -14q51 0 76 2q6 0 19 1t20 1q33 0 33 -26q0 -31 -49 -31q-3 0 -84 6q-11 1 -33.5 2t-34.5 2q-54 4 -80 4q-21 0 -67 -4t-66 -6q-40 -4 -63 -4 q-17 0 -27 9.5t-10 19.5zM463 596q2 -12 18 -12h529q30 0 30 22q0 2 -3 19.5t-3 19.5l-129 731l-430 -755q-12 -24 -12 -25z" />
<glyph unicode="B" horiz-adv-x="1409" d="M-29 27q0 2 6 14q16 16 52 16q12 0 37.5 -3t39.5 -3q66 0 93 60q7 18 34 139q10 42 43 209l103 530q59 291 59 338q0 23 -8 39q-16 29 -70 29q-16 0 -47 -3t-47 -3q-20 0 -28 4q-17 5 -17 22q0 14 16.5 23t41.5 8q19 0 53 -3.5t45 -4.5q41 -4 121 -4q64 0 191 7t190 7 q148 0 234 -32.5t136 -96.5q62 -72 62 -182q-2 -98 -55 -185t-140 -129q-56 -27 -143 -41q19 -4 62.5 -18.5t76.5 -34.5q33 -21 62 -50.5t56 -90.5t27 -135q0 -144 -88 -263.5t-223 -164.5q-80 -25 -205 -25q-66 0 -202 4q-52 0 -146 4q-177 6 -180 6q-63 0 -125 -6 q-54 -8 -78 -8q-12 0 -20 4q-19 8 -19 23zM274 123q0 -22 9 -35q3 -6 8.5 -10.5t10.5 -7t15 -4.5t16.5 -2.5t21.5 -2t24 -2.5q125 -10 297 -10q81 0 135.5 5t119 23t113.5 58t86 103q64 118 64 231q0 68 -23 119q-65 132 -245 162q-36 5 -90.5 7t-95 2t-105 -0.5t-86.5 -0.5 q-55 0 -84 -2q-49 0 -64 -17q-6 -7 -10.5 -19t-7 -21.5t-6 -24t-4.5 -19.5l-84 -440q-1 -8 -4 -25.5t-4 -25.5q-7 -24 -7 -41zM414 856q-1 -8 -1 -15q0 -27 23 -30q41 -6 252 -6q143 0 215 6q212 14 297 154q47 79 47 172q0 106 -69 172q-59 55 -140 71.5t-190 16.5 q-139 0 -209 -2q-7 0 -23.5 -1t-21.5 -1.5t-16 -2t-15 -3t-11.5 -4t-12 -6.5t-9.5 -9q-9 -10 -15 -23.5t-8.5 -22.5t-5.5 -27t-5 -25q-3 -18 -10 -49.5l-9 -40.5z" />
<glyph unicode="C" horiz-adv-x="1366" d="M147 565q0 133 39 275q34 128 94 239t145.5 200.5t203.5 141.5t254 52q25 0 51.5 -2t75.5 -13.5t89.5 -31.5t84 -61t69.5 -97q22 -49 33 -113q4 28 12 104.5t15 118.5q10 70 43 70q26 0 26 -39q-2 -30 -30 -125q-21 -82 -41 -188q-10 -53 -15 -90q-6 -39 -10 -117 q-5 -60 -39 -60q-28 0 -28 33q0 4 12 74q18 63 18 145q0 151 -100 244q-51 49 -127 73.5t-154 24.5q-269 0 -452 -247q-92 -123 -148.5 -293.5t-56.5 -325.5q0 -103 29 -197q13 -42 30 -80t54 -87t83.5 -84t122.5 -59.5t168 -24.5q220 0 359 139q44 46 78 110.5t46.5 102.5 t18.5 69q3 17 5.5 25.5t7.5 22t13.5 19.5t20.5 5q31 0 31 -39q0 -13 -12 -55q-27 -106 -84 -195q-102 -159 -269 -219q-102 -35 -221 -35q-223 0 -360 119q-33 28 -63 67.5t-59 97t-46 137t-17 169.5z" />
<glyph unicode="D" horiz-adv-x="1449" d="M-27 29q0 5 9 14q16 14 49 14q14 0 38.5 -3t36.5 -3q32 0 60 17q18 13 30.5 38.5t17 44.5t15.5 74q1 4 1.5 6.5t1 6t1.5 6.5q34 151 46 215l102 530q3 19 19.5 101.5t23.5 126.5q16 106 16 110q0 23 -6 35q-11 33 -72 33q-15 0 -44.5 -3t-47.5 -3q-11 0 -15.5 0.5 t-14 2.5t-13.5 7.5t-4 15.5q0 13 16 23q14 9 36 8h4q28 0 86 -8q41 -4 122 -4q64 0 194 6t196 6q178 0 290 -68q80 -48 133 -136.5t73 -180t20 -191.5q0 -203 -72 -391q-115 -304 -367 -420q-62 -30 -134 -44.5t-189 -14.5q-82 0 -250 8q-165 6 -170 6q-59 0 -117 -6 q-54 -8 -82 -8q-6 0 -12.5 1t-7.5 1q-19 10 -19 27zM281 121q1 -28 17.5 -40t59.5 -18q92 -14 258 -14q128 0 224 23.5t188 89.5q46 33 82 71q60 65 109 160q40 82 75 208.5t35 272.5q0 31 -2.5 62t-12 94t-36.5 126.5t-68 111.5q-36 42 -82.5 69t-101.5 39.5t-102 16.5 t-109 4q-96 0 -172 -8q-52 -3 -73.5 -9t-39.5 -24q-14 -17 -21 -40.5t-17 -78.5q-16 -78 -17 -84q-8 -42 -25.5 -127t-25.5 -127l-68 -346q-1 -6 -38 -210t-37 -222z" />
<glyph unicode="E" horiz-adv-x="1409" d="M-29 29q0 6 6 12q14 16 52 16q12 0 36.5 -3t38.5 -3q75 0 101 80q16 52 69 328l103 530q16 71 33 164q11 78 20 127q6 18 6 47q0 17 -3.5 30t-12.5 20t-14 11t-19 5.5t-16 1.5h-15q-15 0 -45.5 -3t-48.5 -3q-19 0 -29 4q-14 7 -14 22q2 13 18 23q14 9 35 8h4q22 0 54 -4 q45 -5 53 -6q47 -2 145 -2q56 0 119.5 1t141.5 2.5t120 2.5q45 1 136.5 2t136.5 2q51 2 155 2q24 0 33.5 -13t9.5 -28q0 -1 -18 -80q-5 -24 -15.5 -71.5t-15.5 -71.5l-24 -142q-1 -9 -3.5 -27.5t-4 -28.5t-4.5 -25t-6 -23t-8 -16.5t-11.5 -11.5t-14.5 -3q-24 0 -24 29 q0 25 22 110q54 218 54 265q0 20 -4.5 34t-9 21t-16 12t-17 6t-21.5 4q-54 7 -172 7h-399h-26q-45 1 -69 -5q-30 -8 -49 -34q-20 -26 -37 -115q-3 -17 -10 -50.5t-10 -51.5l-53 -277q-6 -6 -6 -39q0 -13 6 -22q11 -13 88 -13h260q42 2 67.5 10t49.5 33q16 19 26 45.5 t12.5 41t6.5 51.5q8 59 14 90q0 4 3 14t12.5 22.5t23.5 12.5q24 0 24 -31q0 -10 -1.5 -18.5t-4 -15t-7.5 -20.5t-9 -26q-20 -66 -39 -145q-7 -29 -12 -50.5t-9 -50t-6.5 -47t-8 -68l-9.5 -85.5q0 -2 -4 -34t-8 -48q-1 -5 -2 -13.5t-11.5 -22t-25.5 -13.5q-23 2 -23 28 q0 23 15 78q26 102 26 129q0 51 -28 70q-24 16 -123 16h-267q-34 -2 -47.5 -14t-21.5 -59l-37 -191q-25 -122 -29 -147q-3 -18 -8 -53t-8 -52q-4 -20 -10 -44t-9.5 -38.5t-3.5 -23.5q0 -11 6 -29q11 -27 74 -27h53q13 0 37 -1t37 -1h322q106 0 159 2q86 0 127 29 q32 20 56 80q38 147 57 274q7 48 17 70.5t34 22.5q21 0 21 -29q0 -15 -8 -42t-9 -30q-3 -10 -8 -30t-8 -29q-42 -192 -47 -221q-10 -70 -14 -86q-10 -34 -37 -52t-84 -18q-20 0 -62.5 2t-64.5 2q-50 1 -148 4t-145 4q-123 2 -369 2q-102 0 -153 -4q-13 -1 -48 -5.5t-57 -4.5 q-10 0 -20 4t-14 12q-3 6 -4 10q0 1 1 3z" />
<glyph unicode="F" horiz-adv-x="1323" d="M-29 29q1 1 3 5t6 7q14 16 49 16q13 0 38 -3t39 -3q75 0 101 80q16 52 69 328l103 530q34 179 41 223l18 115q0 23 -6 35q-11 33 -72 33q-15 0 -44 -3t-46 -3q-12 0 -17 0.5t-14.5 2.5t-13.5 7.5t-4 15.5q0 13 17.5 22t42.5 9q19 0 53 -3.5t45 -4.5q45 -4 133 -4 q2 0 371 6q43 1 128 2t128 2q33 0 99.5 1t100.5 1q44 0 54 -23q4 -8 4 -20q0 -9 -2.5 -18.5t-7 -24.5t-7.5 -29q-9 -32 -20 -86q-31 -140 -47 -246q-5 -62 -17 -90q-12 -22 -32 -22q-23 0 -23 28q0 19 29 142q5 23 14.5 68t13.5 65q19 76 19 121q0 23 -5 36.5t-22 24.5 q-10 7 -20 10q-22 7 -158 11h-477q-57 0 -86 -17q-12 -8 -22 -22t-16.5 -36t-10 -34.5t-8.5 -39t-5 -27.5q-9 -48 -28 -130l-49 -249l-2 -7q-2 -7 -3.5 -17t-1.5 -17q0 -17 9 -31q6 -4 14.5 -6.5t19 -3t18.5 -1t19 0t13 0.5h186q30 0 88 4q90 0 129 49q19 24 30 69.5 t18 102.5t11 74q9 51 39 51q23 0 23 -27q0 -11 -2.5 -25.5t-9.5 -43t-11 -45.5q-1 -4 -18.5 -67t-24.5 -95q-14 -59 -24 -114.5t-14 -87.5t-8.5 -77.5t-6.5 -62.5q0 -2 -2 -17.5t-4 -23.5q-6 -58 -43 -58q-25 0 -25 29q0 11 2.5 21t7.5 27t9 32q31 109 31 158q0 73 -78 78 q-41 2 -121 2h-182q-16 1 -30 1q-59 0 -73 -14q-11 -9 -22 -61l-35 -176q-3 -19 -14.5 -80t-16.5 -94q-12 -74 -18 -113q-2 -2 -5 -19.5t-3 -31.5q0 -40 20 -55q15 -12 51 -14q15 -1 32 -1q24 1 52 3q48 4 49 3q45 0 45 -26q0 -12 -15.5 -21.5t-39.5 -9.5q-19 0 -51.5 3.5 t-44.5 4.5q-77 6 -156 6q-63 0 -125 -6q-9 -1 -38.5 -4.5t-47.5 -3.5q-12 0 -20 4q-19 8 -19 25z" />
<glyph unicode="G" horiz-adv-x="1492" d="M145 571q0 98 18.5 194t49 171.5t55 123t49.5 87.5q19 29 40.5 56t59 67.5t83.5 73.5t102.5 63.5t129.5 48t151 17.5q170 0 284 -84q39 -28 72 -78q42 -59 61 -146q16 111 17 127q2 15 5 43.5t5 42.5q10 70 41 70q27 0 27 -37q0 -11 -6.5 -38.5t-18 -72.5t-18.5 -75 q-36 -140 -47 -258q-7 -76 -11 -88q-11 -33 -37 -33q-9 0 -16.5 8.5t-7.5 24.5q0 30 16 92q13 57 13 102q0 29 -4.5 61.5t-27 88.5t-61.5 96q-98 102 -282 102q-103 0 -182 -26q-189 -61 -336 -283q-24 -38 -46.5 -84t-51 -118t-45.5 -163t-17 -184q0 -116 30 -213 t88.5 -170t152 -114t212.5 -41q142 0 248 61q74 47 127 109q52 61 80 124q22 53 31 117q12 83 12 107q0 12 -2 22t-6 16.5t-8 11.5t-11 8t-11 5t-12.5 3t-11.5 1h-12h-8q-34 0 -100 -4q-6 0 -17.5 -1t-17.5 -1q-15 0 -25 8q-10 10 -10 19q0 8 8 16q12 15 45 15q18 0 49.5 -4 t44.5 -5q62 -6 127 -6q74 0 144 6q15 1 46 4.5t46 4.5q5 0 14.5 1t14.5 1q17 0 25.5 -8t8.5 -17q0 -11 -10 -21q-11 -11 -28 -13t-49.5 1.5t-51.5 3.5q-25 0 -49 -4q-22 -6 -39 -27t-23 -37t-6 -22q-21 -69 -44.5 -220.5t-30.5 -240.5q-3 -35 -12 -51t-29 -16q-31 0 -31 28 q0 9 1.5 18.5t3.5 16.5t7 22.5t8 28.5q27 116 33 154q-35 -65 -53 -88q-148 -197 -420 -197q-229 0 -366 127q-72 65 -124.5 182.5t-52.5 286.5z" />
<glyph unicode="H" horiz-adv-x="1579" d="M-27 29q0 28 56 28q13 0 38 -3t39 -3q33 0 62 21q25 20 35.5 49.5t23.5 95.5q0 2 0.5 3.5t1 3.5t0.5 3.5t0.5 3.5t1 3.5t0.5 3.5q26 118 45 221l103 530q28 137 43 234q16 90 16 104q0 21 -8 37q-14 31 -70 31q-15 0 -45 -3t-47 -3q-45 0 -45 26q0 13 16 23q14 9 36 8h4 q19 0 53 -3.5t45 -4.5q39 -4 121 -4q94 0 139 6q1 0 35 3t51 3q15 0 22 -4q18 -9 15 -23q0 -11 -6 -14q-16 -16 -49 -16q-13 0 -40 3t-42 3q-16 0 -26 -1.5t-27.5 -7t-31.5 -20.5t-24 -39q-8 -21 -35 -141q-6 -31 -19.5 -97t-19.5 -102l-26 -137q-6 -24 -6 -35q0 -17 10 -24 q10 -4 47 -4q21 0 51 1h664q16 0 37.5 -0.5t28.5 0t17.5 2.5t13.5 8.5t6.5 16t6.5 27.5l27 147q24 117 45 234q14 93 14 102q0 25 -8 41q-7 17 -24.5 23t-55.5 6q-16 0 -48 -3t-50 -3q-45 0 -45 26q-1 13 15 23q14 9 36 8h4q20 0 55 -3.5l45 -4.5q45 -4 136 -4q64 0 131 6 q3 0 32.5 3t45.5 3t20 -2q18 -8 18 -25q0 -30 -57 -30q-12 0 -38 3t-38 3q-63 0 -94 -58q-10 -24 -39 -151q-6 -31 -19.5 -97t-19.5 -102l-102 -528q-2 -12 -14 -70.5t-17 -89.5q-2 -14 -6 -39t-6 -39q-3 -18 -7.5 -40.5t-6.5 -35.5t-2 -24q0 -19 4 -31q12 -39 73 -39 q15 0 45 3t47 3q48 0 48 -26q0 -12 -16.5 -21.5t-39.5 -9.5q-18 0 -100 10q-78 4 -119 4q-71 0 -141 -6q-9 -1 -38.5 -4.5t-47.5 -3.5q-9 0 -17 2q-20 5 -20 27q0 5 6 14q14 14 49 14q14 0 42 -2t42 -2q25 0 40 2.5t37 21t34 54.5q9 28 69 328l50 246q5 27 -2 34q-3 2 -29 2 q-6 0 -18 1t-17 1h-698q-9 0 -27 -1t-27 -1h-12h-10.5t-8.5 -0.5t-8 -1.5t-6.5 -3t-6 -5t-4.5 -7.5t-4.5 -11t-3 -14.5t-3.5 -18l-41 -221q-14 -61 -27 -140q-3 -18 -9 -51t-9 -51q-3 -22 -8.5 -52t-5.5 -44q0 -26 10 -41q13 -27 78 -27q17 0 49 2t49 2q47 0 47 -24 q-2 -14 -16.5 -23.5t-38.5 -9.5q-19 0 -53.5 3.5t-43.5 4.5q-70 6 -139 6q-65 0 -127 -6q-58 -8 -84 -8q-8 0 -20 4q-17 7 -17 25z" />
<glyph unicode="I" horiz-adv-x="641" d="M-29 27l6 12q16 18 54 18q13 0 37 -3t36 -3q71 0 97 66q20 48 32 137q6 27 43 205l103 528q4 24 9.5 50.5t12 58.5t9.5 49q4 20 11 64t11 67q6 34 6 51q0 25 -10 41q-14 27 -68 27q-16 0 -45 -3t-45 -3q-24 0 -34 4q-15 7 -15 22q0 13 16.5 22t41.5 9q18 0 48.5 -3.5 t41.5 -4.5q43 -4 127 -4q73 0 110 4l45 4.5t56 3.5q15 0 22 -4q1 0 5 -3t7.5 -9t3.5 -11q-1 -13 -17.5 -21.5t-41.5 -8.5q-12 0 -37 3t-39 3q-74 0 -100 -80q-21 -66 -70 -328l-104 -528q-17 -83 -33 -178q-6 -39 -18 -113q-6 -18 -6 -47q0 -23 8 -39q14 -31 69 -31 q15 0 45.5 3t47.5 3q11 0 16 -0.5t14 -2.5t13 -7.5t4 -15.5q-2 -13 -18 -22t-40 -9q-18 0 -48.5 3.5t-41.5 4.5q-62 6 -127 6q-63 0 -125 -6q-9 -1 -38.5 -4.5t-47.5 -3.5q-10 0 -22 4q-17 8 -17 23z" />
<glyph unicode="J" horiz-adv-x="1193" d="M-10 283q0 122 80 209.5t200 87.5q42 0 72.5 -21.5t30.5 -62.5q0 -24 -11.5 -48t-31.5 -36q-22 -11 -47 -11q-33 0 -46.5 18t-13.5 38q0 17 13 37q3 4 9 9t9 8t2 5q0 6 -14 6q-46 0 -76 -18q-58 -26 -86.5 -84.5t-28.5 -128.5q0 -50 15 -93.5t50 -84t103 -64.5t162 -24 q81 0 149.5 20.5t112.5 50t79 71t52.5 75t30.5 69.5q20 54 80 357l61 321q21 91 31 160q4 23 11 67t11 64q7 28 7 47q0 23 -11 43q-15 25 -88 25q-22 0 -55.5 -2.5t-46 -2.5t-31.5 3q-16 7 -16 22q0 13 16 23q14 8 35 8h4q19 0 53 -3.5t43 -4.5q51 -4 156 -4q84 0 127 6 q81 6 82 6q17 0 22 -4q17 -7 17 -23q0 -8 -8 -16q-14 -14 -50 -14q-13 0 -38 3t-37 3q-34 0 -64 -19q-6 -5 -11.5 -11t-10.5 -14t-8.5 -14.5t-7 -18.5t-6 -19.5t-6 -23t-5.5 -24t-6 -28t-6 -29.5q-33 -160 -41 -207l-64 -319q-7 -35 -20.5 -105.5t-20.5 -105.5 q-1 -5 -5.5 -27t-6 -28t-6 -24.5t-7 -27t-7 -24.5t-8.5 -26.5t-9.5 -24.5t-11.5 -27q-63 -133 -185.5 -203t-275.5 -70q-101 0 -190 33t-144 105q-57 67 -57 170z" />
<glyph unicode="K" horiz-adv-x="1449" d="M-29 29q0 5 9 14q14 14 49 14q13 0 37 -3t38 -3q74 0 103 80q5 15 69 328l103 530q34 179 41 223l18 115q0 23 -8 39q-13 29 -70 29q-16 0 -46 -3t-48 -3q-22 0 -30 4q-15 7 -15 22q0 13 15.5 22.5t39.5 8.5q19 0 51 -3.5t42 -4.5q41 -4 125 -4q88 0 133 4q62 8 92 8 q16 0 20 -2q9 -4 14 -12.5t3 -12.5q0 -4 -1.5 -7.5t-3 -5.5t-1.5 -3q-16 -14 -50 -14q-14 0 -40 3t-39 3q-20 0 -36.5 -4t-28 -9.5t-21 -17.5t-15 -20t-11 -25.5t-7.5 -26.5t-6.5 -31t-6.5 -30q-26 -113 -51 -244l-61 -321l760 581q12 10 42.5 33t47.5 37q41 28 41 59 q0 12 -13 17q-14 2 -43 1t-69 -3t-43 -2q-21 0 -33 6q-14 5 -14 20q0 8 6 17q14 16 47 16q16 0 45 -4.5t41 -5.5q47 -4 147 -4q70 0 107 4q66 8 96 8q39 0 39 -25q0 -12 -13.5 -22t-35.5 -10q-13 0 -37 3t-35 3q-25 -1 -46 -9.5t-36 -19t-59 -43.5l-436 -334q-6 -5 -21 -17 t-24 -20q-25 -21 -25 -37q0 -18 33 -86l244 -596q51 -112 59 -124q21 -31 47 -43.5t66 -12.5q16 0 39 2t36 2t21 -4q20 -5 20 -24q-2 -29 -61 -29q-1 0 -82 6q-94 8 -141 8q-33 0 -96.5 -5.5t-90.5 -6.5q-10 -2 -30 -2q-17 0 -26 7.5t-9 17.5q0 4 2.5 8.5t5.5 6.5l2 3 q13 11 29 13.5t50 -0.5t54 -3q43 0 59 6q29 10 29 39q0 15 -37 103l-256 628q-8 27 -16 37q-9 13 -19 13q-5 0 -36 -23l-349 -268l-24 -129q-17 -83 -33 -178q-17 -103 -18 -109l-1 -9q-2 -9 -3.5 -21t-1.5 -21q0 -25 10 -43q14 -25 76 -25q17 0 49 2t51 2t31 -4 q7 -3 10.5 -10t1.5 -12q0 -12 -15.5 -21.5t-39.5 -9.5q-8 0 -17.5 1t-21.5 2.5t-19 2.5t-21.5 2t-21.5 2q-90 4 -133 4q-61 0 -125 -6q-10 -1 -39 -4.5t-45 -3.5q-6 0 -12.5 1t-7.5 1q-19 10 -19 27z" />
<glyph unicode="L" horiz-adv-x="1236" d="M-29 29q0 5 9 14q14 14 49 14q12 0 36.5 -3t38.5 -3q75 0 101 80q16 52 69 328l105 530q34 179 41 223q16 102 16 115q0 23 -6 35q-13 33 -72 33q-15 0 -44 -3t-46 -3q-22 0 -32 4q-20 8 -15 22q-1 13 15 23q14 9 36 8h4q19 0 52.5 -3.5t44.5 -4.5q39 -4 119 -4 q102 0 153 6q3 0 34.5 3t49.5 3q13 0 21 -2q19 -10 16 -25q0 -13 -15 -21.5t-38 -8.5q-15 0 -43 3t-43 3q-50 0 -76.5 -14.5t-42.5 -59.5q-7 -21 -21.5 -88.5t-31 -155t-17.5 -90.5l-78 -395q-30 -170 -57 -305q-12 -74 -20 -111q-1 -7 -4.5 -20.5t-5 -24.5t-1.5 -22 q0 -17 4 -27q14 -23 70 -23h496q79 0 102 4q65 6 100 66q31 55 62 270q2 12 5 37t5 37q17 86 51 86q25 0 25 -31q0 -6 -4 -26q-5 -21 -15.5 -61t-15.5 -60q-37 -129 -53 -264q0 -2 -2.5 -23.5t-5 -39.5t-6.5 -25q-3 -6 -7.5 -10.5t-8.5 -7.5t-9.5 -5.5t-9 -3.5t-9 -1.5 t-8 -0.5h-7.5h-5q-29 0 -62 1t-73.5 2.5t-63.5 2.5q-160 4 -241 4q-47 1 -141.5 1t-141.5 1q-15 0 -43 1t-43 1q-65 0 -123 -6q-9 -1 -38.5 -4.5t-47.5 -3.5q-12 0 -20 4q-17 8 -17 25z" />
<glyph unicode="M" horiz-adv-x="1792" d="M-29 29q0 8 6 14q16 14 52 14q12 0 36.5 -3t38.5 -3q36 0 62 21q9 6 16 13t12.5 16t9 15.5t6.5 18.5l4.5 18t4.5 20.5t4 19.5q51 257 53 266l103 530q25 104 33 152q3 15 7 45t7 45q2 18 5.5 38.5t5 33t1.5 24.5q0 68 -80 68q-15 0 -45.5 -3t-48.5 -3q-19 0 -31 4 q-14 7 -14 22q3 31 57 31q1 0 76 -6q74 -4 113 -4q27 0 39 2q47 5 59 -13q4 -5 7.5 -14t6 -23t4.5 -26.5t5.5 -32.5t5.5 -33q17 -89 33 -190l188 -1008l610 1080q85 157 93 172q2 4 10.5 19.5t15 26t16 22.5t17.5 16q10 6 31 6q15 0 39 -4h53q15 0 31 1t36 2.5t31 2.5 q40 4 64 4q14 0 20 -2q1 0 5.5 -3t8 -9.5t2.5 -12.5q0 -8 -8 -16q-14 -14 -47 -14q-13 0 -39 3t-39 3q-69 0 -98 -64q-14 -34 -37 -149q-20 -88 -39 -195l-102 -528q-28 -136 -43 -234q-17 -100 -17 -104q0 -24 7.5 -39.5t22 -21t23 -6.5t24.5 -1h5q15 0 46 2t49 2t28 -4 q17 -6 17 -22q0 -12 -16 -21.5t-40 -9.5q-18 0 -49.5 3.5t-42.5 4.5q-61 6 -125 6q-68 0 -139 -6q-11 -1 -43.5 -4.5t-52.5 -3.5q-15 0 -23 4q-16 8 -16 25q1 14 18 21t37 7q15 0 42 -2t42 -2q51 0 68 10q23 10 38.5 40t21.5 53.5t18 88.5q3 13 4 19q5 27 18.5 93t20.5 102 l180 930l-647 -1131q-26 -53 -66 -121q-7 -14 -22.5 -39.5t-22.5 -38.5q0 -1 -4.5 -10t-6.5 -12.5t-7 -12t-8.5 -13t-8.5 -9.5t-10 -7.5t-10 -2.5q-1 1 -7.5 2.5t-9.5 3.5q-4 3 -7 7t-4.5 7.5t-3 11t-2.5 11.5t-2.5 15.5t-2.5 17.5q-4 15 -8 49q-6 33 -18.5 97t-18.5 97 l-199 1078l-180 -930q-5 -29 -16.5 -88.5t-16.5 -89.5q-6 -55 -18 -111q0 -4 -3.5 -22t-3.5 -27q0 -61 50 -66q5 -4 31 -4q17 0 43 2q65 4 77 4q17 0 29 -4q1 0 4.5 -2.5t6.5 -8t3 -11.5q0 -12 -15.5 -21.5t-39.5 -9.5q-19 0 -51.5 3.5t-44.5 4.5q-73 6 -152 6 q-63 0 -131 -6q-50 -8 -78 -8q-6 0 -12.5 1t-7.5 1q-20 10 -17 27z" />
<glyph unicode="N" horiz-adv-x="1536" d="M-29 29q0 3 6 12q16 16 52 16q12 0 36.5 -3t38.5 -3q32 0 58 17q19 13 31.5 36t16 38t9.5 46q2 9 9 35t10 41q30 155 38 195l103 530q34 179 41 223l18 115q0 8 -3 21t-3 14q-16 33 -72 33q-15 0 -45 -3t-47 -3q-47 0 -47 26q0 14 16 22.5t42 8.5q12 0 25.5 -1t30.5 -2.5 t27 -2.5q74 -4 113 -4q13 0 29.5 1.5t24.5 2.5t17 -2t15 -11q9 -12 43 -98q3 -8 14 -36.5t17 -45.5q27 -69 77 -194.5t66 -165.5l340 -842l182 944q29 143 43 232q17 100 17 106q0 23 -6 35q-9 21 -28.5 27t-63.5 6q-20 0 -54.5 -2t-55.5 -2t-30 4q-10 7 -10 20t16 23 q14 9 35 8h4q20 0 56 -4q32 -4 49 -4q47 -4 143 -4q84 0 125 4q58 8 86 8q18 0 23 -4q16 -8 16 -23q-2 -10 -8 -16q-16 -14 -49 -14q-14 0 -39 3t-39 3q-72 0 -100 -74q-15 -41 -33 -141q-5 -27 -18.5 -92t-20.5 -101l-152 -776q-3 -16 -9 -47t-9 -47q-7 -31 -17 -74 q-5 -20 -9 -30.5t-15.5 -20.5t-28.5 -10q-18 0 -28 10q-19 17 -60 114l-516 1283l-180 -930q-35 -195 -41 -234q-17 -100 -17 -104q0 -15 7 -33q9 -22 27 -28.5t65 -6.5q19 0 55 2t57 2q37 0 37 -24q0 -14 -15 -23.5t-40 -9.5q-19 0 -51.5 3.5t-44.5 4.5q-77 6 -152 6 q-65 0 -129 -6q-54 -8 -82 -8q-12 0 -20 4q-19 8 -19 25z" />
<glyph unicode="O" horiz-adv-x="1449" d="M150 555q0 136 30.5 262.5t78.5 219.5t93.5 156t89.5 105q28 27 63 52.5t90 55.5t129.5 48.5t154.5 18.5q111 0 200 -37q62 -26 111.5 -67.5t80 -84t52.5 -97.5t32.5 -95.5t16 -91t6 -70.5t0.5 -47q0 -148 -35 -285q-34 -133 -110 -268q-205 -355 -569 -355 q-128 0 -226 45q-54 24 -101.5 64t-91.5 102t-70 158q-25 92 -25 202v9zM213 553q0 -238 111 -377q37 -46 106 -92q101 -59 240 -59q222 0 379 157q53 52 97 120.5t71 134t41 106.5t22 73q35 125 35 271q0 297 -158 436q-109 98 -280 98q-181 0 -314 -96 q-109 -76 -190.5 -210.5t-120.5 -280t-39 -281.5z" />
<glyph unicode="P" d="M-29 29q3 8 9 14q12 14 49 14q12 0 36.5 -3t38.5 -3q66 0 93 58q17 38 39 149q13 59 43 217l100 514q4 23 20 105t23 127q2 19 6.5 43.5t7 40t2.5 22.5q0 19 -8 39q-15 29 -70 29q-15 0 -45 -3t-47 -3q-20 0 -32 4l-4 2q-3 2 -5.5 4.5t-4.5 6.5t-1 9q-1 13 15 23 q14 9 36 8h4q19 0 52.5 -3.5t44.5 -4.5q45 -4 137 -4q55 0 84 2q34 1 118.5 5.5t131.5 4.5q153 0 243.5 -34.5t143.5 -100.5q67 -85 67 -211q0 -112 -51.5 -220.5t-140.5 -166.5q-82 -52 -205 -68q-43 -6 -85 -8q-34 -2 -61 -2q-7 1 -14 1q-33 0 -103.5 1.5t-135.5 1.5 q-51 0 -78 2q-27 0 -39 -6q-25 -15 -25 -51l-24 -125q-8 -45 -23 -125.5t-20 -110.5q-14 -86 -14 -102q0 -23 6 -39q8 -19 26 -24t62 -5q18 0 53 2t55 2q37 0 37 -26q-2 -13 -17 -22t-40 -9q-18 0 -49.5 3.5t-42.5 4.5q-77 6 -154 6q-61 0 -119 -6q-9 -1 -39.5 -4.5 t-48.5 -3.5q-12 0 -20 4q-17 7 -17 25zM389 719q0 -17 8 -21q17 -12 156 -12h119q48 -2 86 -2q57 0 92 4q137 12 211 59.5t115 118.5q59 109 59 224q0 109 -57 186q-46 61 -125.5 91t-218.5 30q-96 0 -187 -6q-94 -4 -115 -19q-13 -6 -20 -26q-10 -34 -35 -166 q-30 -150 -37 -183l-47 -241q-4 -16 -4 -37z" />
<glyph unicode="Q" horiz-adv-x="1449" d="M145 563q0 97 18 192.5t47.5 171.5t53 124.5t47.5 87.5q18 29 39 57t57.5 69.5t82 75.5t101.5 65.5t128.5 49t150.5 17.5q77 0 144.5 -17.5t114.5 -46.5t77.5 -56.5t53.5 -58.5q120 -157 120 -417q0 -54 -8 -119.5t-31 -165t-77.5 -207t-133.5 -195.5 q-77 -85 -142 -124.5t-136 -61.5q-1 -3 -11.5 -41.5t-14.5 -54.5t-11.5 -48t-10.5 -56t-3 -44q0 -46 18 -77q16 -28 55 -49t99 -21q76 0 123 51q15 17 26 40t15.5 38t11.5 46.5t10 43.5l1 5q2 5 4 9.5t5.5 9.5t9 8t13.5 3q22 0 22 -29q0 -17 -14 -72.5t-35 -93.5 q-62 -110 -200 -110q-17 0 -36.5 2.5t-53 11t-63.5 31t-48 55.5q-21 38 -21 94q0 90 48 232q-75 -15 -129 -15q-200 0 -334 117q-76 66 -129.5 182.5t-53.5 290.5zM209 569q0 -100 28 -209t80 -178q52 -71 142 -114q-33 37 -47.5 67.5t-14.5 77.5q0 53 25 102q23 44 59 74.5 t74.5 42.5t64.5 16.5t48 4.5q104 0 167.5 -58t63.5 -162q0 -56 -33 -174q70 28 133 82q146 118 232 328.5t86 409.5q0 220 -92 362q-19 31 -45.5 59t-68 57.5t-103.5 47.5t-134 18q-198 0 -348 -129q-55 -48 -104 -108q-94 -120 -153.5 -292t-59.5 -325zM446 201 q0 -42 17 -81t51 -61q50 -36 168 -36q57 0 121 18q39 117 39 186q0 94 -58 140q-21 15 -55 26q-31 8 -67 8q-52 0 -95 -18q-49 -21 -78 -58.5t-36 -66.5t-7 -57z" />
<glyph unicode="R" horiz-adv-x="1492" d="M-29 29q0 3 6 12q16 16 52 16q12 0 37.5 -3t39.5 -3q68 0 97 72q10 30 35 141q30 155 38 195l103 530q23 111 29 150q4 21 11 64t11 65q6 47 6 57q0 70 -76 70q-15 0 -45 -3t-47 -3q-23 0 -32 6q-1 0 -5 2.5t-7.5 7.5t-2.5 10q1 13 17 23q15 9 36 8h5q19 0 53 -3.5 t45 -4.5q43 -4 129 -4q65 0 201 4q126 8 192 8q194 0 291 -57q45 -24 84 -74q59 -75 59 -182q0 -115 -64 -210t-169 -143q-54 -26 -129 -41q82 -27 123 -75q25 -30 36 -65.5t11 -100.5q0 -66 -21 -203q-14 -114 -14 -148q0 -88 51 -108q20 -10 43 -10q37 0 68 28 q28 25 49 71t29.5 80t17.5 85q3 17 10 58t10 63q10 82 48 82q26 0 26 -33q0 -11 -2 -25q-1 -3 -8.5 -33.5t-9.5 -46.5q-3 -15 -12.5 -62t-15 -69.5t-17 -59t-26.5 -65t-36 -53.5q-33 -41 -71 -57q-30 -15 -66 -15q-48 2 -87.5 26t-53.5 67q-11 30 -11 73q0 51 13 129 q24 190 24 226q0 162 -123 204q-44 16 -96 20q-33 2 -89 2q-32 0 -73 -1h-94q-174 0 -190 -8q-27 -9 -43 -76l-35 -180q-7 -40 -21.5 -119t-21.5 -119q-14 -86 -14 -100q0 -56 40 -66q15 -4 52 -4q25 0 59 2q36 4 57 4q13 0 29 -4q12 -7 12 -22q0 -12 -15.5 -21.5 t-39.5 -9.5q-19 0 -51.5 3.5t-44.5 4.5q-77 6 -156 6q-63 0 -125 -6q-9 -1 -38.5 -4.5t-47.5 -3.5q-12 0 -20 4q-19 8 -19 25zM408 813q0 -19 8 -28t35 -13q29 -4 163 -4q192 0 230 2q62 2 109.5 9t98.5 24t91.5 50.5t70.5 82.5q56 94 56 199q0 79 -32.5 128.5t-74.5 75.5 q-88 58 -297 58q-75 0 -227 -8q-95 -7 -111 -25q-18 -18 -41 -131q-3 -17 -10 -53.5t-10 -53.5l-53 -272q-6 -20 -6 -41z" />
<glyph unicode="S" horiz-adv-x="1323" d="M63 39q0 10 3 23t8.5 29.5t7.5 23.5q10 34 16 63q46 180 60 295q2 11 6 55.5t10 69.5l1 5q1 5 2 8t3 8.5t5 9t7 7.5t10 5.5t13 1.5q29 0 29 -33q-1 -19 -12 -44t-17 -50q-20 -79 -20 -147q0 -156 114 -248q57 -45 145 -70.5t169 -25.5q28 0 59.5 3t84 17t99 36.5t96 67 t82.5 103.5q52 94 52 199q0 158 -138 221q-51 22 -154 44t-179 44q-17 3 -67 18.5t-85 34.5q-24 13 -45.5 29.5t-50 47t-45.5 76t-17 99.5q0 122 86 231q46 58 106.5 97t120.5 54.5t98 20.5t73 5q95 0 186 -30.5t145 -94.5q47 -56 66 -144q7 40 21 168q5 66 28 84q12 6 19 6 q26 -2 26 -32q-1 -12 -3 -23.5t-4.5 -20t-8 -27t-10.5 -34.5q-18 -73 -33 -147q-21 -94 -31 -166q-1 -9 -5.5 -48t-10.5 -61q0 -6 -2 -13.5t-10.5 -16.5t-22.5 -9q-27 0 -27 33q0 13 7.5 39.5t11.5 46.5q14 56 14 123q0 139 -76 217q-40 40 -106 68q-77 30 -178 30 q-95 0 -172 -28q-104 -39 -175 -131t-71 -199q0 -73 37 -123q44 -62 134 -97.5t267 -72.5q138 -24 213 -70q131 -78 131 -241q0 -105 -45 -197q-64 -137 -200.5 -212t-295.5 -75q-33 0 -74 4t-115 25.5t-130 58.5q-41 26 -68 60q-17 21 -26 34t-21 40.5t-20 64.5 q-3 -25 -12.5 -78t-12.5 -80q0 -3 -0.5 -14t-1 -15.5t-1.5 -14.5t-3 -16t-5 -13.5t-7 -13t-10 -9.5q-8 -8 -21 -8q-27 0 -27 39z" />
<glyph unicode="T" d="M152 901q0 17 2.5 30.5t9 35t10.5 43.5q8 33 33 170q17 90 22 157q4 57 21 80q25 31 74 31q16 0 48.5 -3t49.5 -3q24 -1 50.5 -1t59 0.5t50.5 0.5q35 0 105 -1t106 -1q52 0 154.5 1t154.5 1q69 0 104 2q20 0 60 1t61 1q29 0 43 -6.5t14 -30.5q0 -5 -22 -113 q-5 -28 -16 -80t-19.5 -95t-13.5 -81q-7 -69 -17 -120q-8 -41 -34 -41q-7 0 -15 4q-10 6 -10 28q0 15 3.5 31t11 39.5t8.5 28.5q11 58 20 92q16 71 27 137q10 80 10 84q-2 35 -18.5 52.5t-65.5 17.5h-295h-8q-44 0 -62 -10q-19 -11 -30 -42q-6 -16 -11 -33t-7 -30.5 t-7.5 -43t-9.5 -52.5q-16 -86 -33 -160l-108 -563q-7 -38 -20.5 -114t-20.5 -114q-2 -18 -6 -43.5t-6.5 -42t-2.5 -24.5q0 -21 8 -41q10 -18 28 -22.5t63 -4.5q18 0 52.5 2t55.5 2q13 0 20 -1t13 -6.5t6 -16.5q0 -14 -15 -23.5t-40 -9.5q-18 0 -49.5 3.5t-42.5 4.5 q-77 6 -154 6q-75 0 -145 -6q-13 -1 -37.5 -4t-36.5 -4h-21q-12 0 -22 4q-15 8 -15 25q0 14 17.5 21t38.5 7q14 0 42 -2t42 -2q50 0 71 10q12 6 21.5 17.5t15.5 21.5t12 28t8 26.5t6 29t5 23.5q33 154 49 250l109 569q5 26 14.5 76.5t13.5 73.5q10 68 21 122q6 18 6 52 q0 22 -8 28q-10 13 -66 13h-194q-135 0 -158 -11q-46 -15 -64 -82q-22 -80 -40 -217q-3 -25 -9.5 -73t-9.5 -72q-9 -49 -24 -59q-9 -9 -19 -9q-22 0 -22 31z" />
<glyph unicode="U" horiz-adv-x="1536" d="M199 1415q-1 13 15 23q14 9 36 8h4q19 0 53 -3.5t45 -4.5q41 -4 123 -4q107 0 160 6q3 0 34.5 3t49.5 3q16 0 22 -2q8 -4 12.5 -12.5t4.5 -12.5q-3 -30 -58 -30q-14 0 -42 3t-42 3q-49 0 -76.5 -15t-45.5 -57q-12 -32 -78 -336l-88 -457q-33 -159 -33 -227 q0 -101 57 -164q99 -114 312 -114q143 0 267.5 58.5t188.5 174.5q22 41 37.5 92t38.5 154q6 23 37 178l59 307q28 135 43 232q17 100 17 106q0 19 -6 37q-9 19 -28 25t-63 6q-25 0 -64 -3t-54 -1q-29 3 -29 24q2 13 18 23q14 9 33 8h4q19 0 52.5 -3.5t44.5 -4.5 q51 -4 151 -4q82 0 125 4q58 8 84 8q18 0 22 -2q8 -4 12.5 -12.5t4.5 -12.5q0 -8 -8 -16q-14 -14 -49 -14q-12 0 -38 3t-38 3q-35 0 -62 -19q-9 -7 -15.5 -14t-12.5 -19l-9.5 -19t-8 -25.5t-6.5 -26.5t-7.5 -34t-7.5 -36q-7 -36 -22.5 -107.5t-22.5 -107.5l-58 -303 q-17 -86 -51 -240q-21 -98 -44.5 -161t-72.5 -121q-82 -97 -203.5 -142t-260.5 -45q-30 0 -61 3t-92 14.5t-118.5 43.5t-97.5 81q-62 78 -62 180q0 54 37 242l88 450l31 160q4 22 11.5 64t11.5 63q6 30 6 51t-10 41q-14 27 -68 27q-15 0 -44.5 -3t-47.5 -3q-11 0 -16 0.5 t-14 2.5t-13 7.5t-4 15.5z" />
<glyph unicode="V" horiz-adv-x="1449" d="M154 1415q2 33 65 33q19 0 40 -2t46.5 -5.5t38.5 -4.5q37 -2 109 -2q53 0 92 6q5 0 43 4t47 4q17 0 26 -9t9 -18q0 -7 -11 -18q-13 -11 -30.5 -13t-52.5 1.5t-58 3.5q-27 0 -41 -4q-28 -4 -38.5 -20.5t-10.5 -47.5q0 -13 16 -123q4 -27 13.5 -82t13.5 -82l162 -975 l600 1108q18 34 51 101q4 7 10.5 19.5t8 16.5t5 11.5t4.5 12t2 11t1 13.5q0 6 -4 18q-11 23 -68 23q-24 0 -82 -4q-42 -3 -55 2q-8 2 -14.5 8.5t-6.5 13.5q6 12 9 15q13 18 57 18q17 0 109 -10q86 -4 129 -4q57 0 116 6q81 6 84 6q23 0 29 -8q6 -6 6 -17q0 -4 -2 -8t-4 -6.5 t-2 -3.5q-11 -11 -27.5 -13t-49 1.5t-52.5 3.5q-30 0 -46 -7t-34 -30q-10 -13 -20 -29t-29 -51t-31 -55q-48 -91 -84 -154l-336 -610q-177 -324 -190 -348q-5 -8 -29.5 -53t-32.5 -56q-20 -25 -39 -25q-13 0 -22 15q-9 16 -25 106q-2 12 -6 35.5t-6 34.5l-25 141l-114 672 q-6 35 -22 131t-25 148q-5 29 -7 40.5t-7 30.5t-8.5 25.5t-10.5 17t-15 13.5t-19.5 5.5t-27.5 2.5q-23 0 -63 -4q-4 0 -11.5 -1t-13.5 -1t-10 2q-9 2 -16.5 8.5t-7.5 15.5z" />
<glyph unicode="W" horiz-adv-x="1835" d="M150 1415q0 11 8 17q11 14 45 14q15 0 98 -10q46 -4 70 -4q34 0 100 4q37 3 72 6q8 1 25.5 2t25.5 2q4 0 12 1t12 1q19 0 29 -10q8 -8 8 -17q0 -10 -9.5 -18.5t-27.5 -11.5q-13 -2 -54 1t-46 3q-67 0 -90 -29q-20 -27 -20 -92q0 -16 2 -50.5t2 -52.5v-114l26 -1014 l523 1223q37 87 63 133q26 47 66 47q14 0 26 -6q25 -15 25 -58t2 -61l41 -1276l415 1014q4 9 27 62.5t35 82.5l37 99q14 35 14 47q0 45 -70 45q-36 0 -106 -4q-5 0 -15.5 -1t-15.5 -1q-17 0 -27 8t-10 18t11 17q14 14 57 14q1 0 106 -6q98 -8 146 -8q32 0 98 8q80 8 84 8 q24 0 31 -12q6 -9 6 -15q-4 -23 -31 -30q-7 -5 -40.5 -0.5t-55.5 4.5q-35 0 -55 -9q-9 -3 -16 -8t-13.5 -13.5t-11 -14.5t-10 -18t-7.5 -17t-7.5 -19.5t-6.5 -17.5q-6 -13 -17.5 -40t-17.5 -40l-430 -1036q-36 -86 -55 -125q-3 -9 -8 -19.5t-21 -25.5t-35 -15q-5 0 -9.5 1.5 t-8 4.5t-4.5 3q-6 5 -10 16t-6.5 26.5t-3.5 27.5t-2 27.5t-1 18.5q0 28 -4 82q-1 36 -4 104t-4 101l-33 1004l-514 -1198q-63 -140 -69 -152q-1 -2 -5 -11t-5.5 -12t-6 -10.5t-7.5 -10.5t-8 -8.5t-9.5 -7.5t-11 -4t-13.5 -2q-17 0 -27 13q-21 24 -24 139l-31 1106 q0 121 -26 145q-18 15 -56 15q-21 0 -57 -4.5t-39 0.5q-8 2 -14 8.5t-6 15.5z" />
<glyph unicode="X" horiz-adv-x="1536" d="M-98 25q0 6 8 14q10 13 33 16q6 5 37 1.5t51 -3.5q43 0 69 17q7 4 16 10.5t21 17t21.5 20t26 26.5t26.5 27.5t30.5 32t30.5 32.5q39 44 97 102l403 438l-215 385q-9 17 -27.5 50.5t-27.5 50.5q-11 23 -39 73q-24 39 -46.5 49.5t-54.5 10.5q-7 0 -23 -1t-24 -1 q-12 -2 -39 -2q-8 -2 -26 -2q-35 0 -35 26q0 6 4 12q13 19 55 19q21 0 57.5 -3.5t47.5 -4.5q41 -4 123 -4q76 0 153 6q50 8 78 8q19 0 28 -8.5t9 -20.5q0 -6 -8 -14q-16 -16 -43 -16q-22 0 -68 4q-41 0 -61 2h-19q-43 0 -43 -37q2 -15 29 -72q4 -7 17 -31t20 -38l223 -406 l371 389q60 64 90 98q53 57 51 74q0 23 -47 23q-37 0 -115 -4q-11 0 -25.5 -1t-23 -1t-12.5 2q-5 0 -12 7t-7 17q0 8 9 17q16 16 57 16q18 0 49.5 -3.5t42.5 -4.5q74 -6 146 -6q62 0 198 12q5 0 14.5 1t14.5 1q33 0 33 -29q-2 -30 -56 -30q-15 0 -44 3t-44 3q-14 0 -27 -2.5 t-22.5 -4.5t-21 -9.5t-17.5 -11t-17.5 -15l-15.5 -15.5t-17 -19t-17 -20q-22 -28 -62 -63l-448 -479l241 -430q20 -33 60 -103q25 -48 45 -82q38 -67 76 -82q15 -5 36 -5.5t59.5 1.5t65.5 2q26 0 35 -14q2 -6 2 -12q0 -9 -8 -17q-14 -14 -43 -14q-25 0 -53.5 2t-62.5 5.5 t-52 4.5q-13 0 -40 1t-40 1q-29 0 -166 -10q-50 -4 -71 -4q-13 0 -19 2q-18 7 -18 25q0 11 12.5 18.5t26.5 9.5q3 1 20 1q33 0 117 -3h22q52 0 50 37q0 19 -35 80q-6 14 -19.5 37.5t-15.5 28.5q-30 51 -90 161l-178 324l-437 -471q-15 -16 -43 -47t-43 -47q-53 -53 -53 -82 q1 -14 15.5 -18.5t46.5 -4.5q19 0 65 4h49q10 2 35 2q37 0 37 -26q0 -16 -13.5 -23.5t-26.5 -7.5h-13q-25 0 -66 3.5t-55 4.5q-53 6 -107 6q-32 0 -184 -10q-46 -4 -69 -4q-16 0 -25.5 7.5t-9.5 17.5z" />
<glyph unicode="Y" horiz-adv-x="1409" d="M147 1415q0 31 54 31q24 0 78 -8q33 -4 94 -4q91 0 108 2q22 1 63 5t62 5q4 0 13.5 1t13.5 1q31 0 35 -27q-6 -23 -33 -30q-18 -2 -33.5 -1t-50.5 3t-62 2q-19 0 -29 -1t-21 -10t-11 -26q0 -9 12 -39.5t13 -32.5q15 -33 22 -55l242 -565l524 645q4 6 14 18t15 19 q14 16 14 26q0 6 -6 12q-11 9 -64 9q-24 0 -63 -2.5t-54 -2.5t-34 3q-6 2 -10.5 9t-3.5 13q0 15 15.5 24t41.5 9q17 0 49.5 -4.5t44.5 -5.5q51 -4 156 -4q57 0 88 4q62 10 100 10q25 0 33 -12q6 -6 6 -17q0 -6 -8 -14q-14 -16 -47 -16q-14 0 -40 3t-40 3q-32 0 -59 -13 q-10 -6 -21 -15t-23.5 -23.5t-19 -22.5t-20.5 -25.5t-15 -19.5q-20 -25 -24 -29q-56 -68 -82 -98l-449 -551l-26 -139q-38 -203 -41 -219q-19 -101 -19 -119q0 -39 21 -55q14 -11 50 -14q15 -1 32 -1q24 0 52 3q47 3 48 3q23 0 31 -4q16 -5 16 -22q0 -12 -16.5 -21.5 t-40.5 -9.5l-60 6q-7 1 -22.5 2t-22.5 2q-98 4 -145 4q-76 0 -152 -6q-8 -1 -39.5 -4.5t-50.5 -3.5q-12 0 -22 4q-17 7 -17 25l6 12q16 16 52 16q15 0 43 -2t43 -2q74 0 100 33q5 6 9.5 12.5t8 16.5t6 16.5t6 21t5.5 22t6 27.5t6 29q24 114 45 228l31 155l-272 631 q-16 44 -35 80q-19 44 -49 59q-16 8 -39.5 9t-55.5 -1.5t-41 -2.5q-39 0 -39 26z" />
<glyph unicode="Z" horiz-adv-x="1236" d="M-53 37q0 8 3.5 16.5t7.5 15t13.5 18t15.5 18t20.5 21l21.5 21.5l1206 1246h-733h-58l-7 1q-7 0 -14 0.5t-18 -0.5t-20.5 -3.5t-19.5 -8.5t-17 -14q-31 -37 -52.5 -148.5t-29.5 -195.5q-4 -48 -22 -66q-10 -10 -25 -10q-24 0 -24 31q0 10 2.5 21t9 32.5t10.5 34.5 q10 46 27 109q13 57 16 81q5 25 10.5 59.5t8.5 50t9.5 35t16.5 27.5t27 13.5t43 5.5q25 0 65 -4q27 -2 78 -2q90 -2 268 -2q97 0 289 4h92q27 2 82 2q27 0 37 -6q21 -10 21 -31q-2 -22 -47 -70q-7 -7 -20.5 -21.5t-20.5 -21.5l-1203 -1249h799q65 0 100 6q61 8 84 78 q23 75 64 324q2 9 6 28.5t6 28.5l3 7q2 7 5.5 14t11 13t17.5 5q25 -2 25 -33q0 -10 -4.5 -29.5t-13 -54t-13.5 -55.5q-35 -136 -43 -211q-10 -92 -14 -107q-6 -28 -14 -40t-23 -15q-8 -2 -78 -6h-877h-19h-16h-12q-10 0 -24.5 2t-22.5 6q-16 7 -16 29z" />
<glyph unicode="[" horiz-adv-x="768" d="M86 -360q0 11 4.5 33t12 56.5t12.5 61.5q20 99 118 596l64 324l68 393q4 23 14 73t16.5 88.5t10.5 75.5q0 3 2 20.5t3 23.5t4 19t9 21.5t14 16.5q8 7 18.5 11.5t27.5 6t29 1.5t40 -0.5t43 -0.5q71 0 215 4q24 0 74 4q4 0 13.5 1t14.5 1q35 -3 35 -26q0 -8 -6 -14 q-16 -19 -45 -19q-23 0 -59 4q-183 6 -191 6q-87 0 -119 -22q-25 -18 -41 -58q-5 -12 -10 -29.5t-11.5 -46.5t-10.5 -48.5t-12.5 -64.5t-12.5 -65q-15 -71 -70 -356l-53 -276q-59 -311 -114 -621q-15 -60 -15 -110q0 -27 8 -41q24 -43 109 -43t168 6q10 1 41 4.5t51 3.5 q39 0 39 -27q0 -3 -2 -9t-2 -7q-17 -21 -72 -21q-18 0 -49.5 3t-40.5 4q-33 2 -100 2q-57 0 -86 -2q-8 -1 -37.5 -4t-46.5 -3q-72 0 -72 50z" />
<glyph unicode="\" horiz-adv-x="724" d="M201 1446h59l469 -1483h-61z" />
<glyph unicode="]" horiz-adv-x="768" d="M-178 -385q0 13 13 23t38 10q12 0 31.5 -1t29.5 -1q183 -6 187 -6q49 0 65 2q39 5 61 22t40 70q15 42 55 254q11 57 34 170t34 170l53 278q22 120 64.5 349.5t47.5 258.5q15 81 15 123q0 40 -23 58q-29 24 -92 24q-109 0 -162 -4q-11 -1 -47 -4.5t-57 -3.5q-35 0 -35 27 q0 7 8 18q18 18 70 18q14 0 28.5 -1t32.5 -2.5t29 -2.5q66 -4 100 -4q28 0 86 4q54 4 82 4q72 0 72 -47q0 -12 -2 -28t-2 -17q-5 -23 -15.5 -69t-15.5 -70q-93 -470 -110 -563l-62 -324q-11 -56 -22.5 -119.5t-25 -141.5t-21.5 -120q-3 -18 -20.5 -113t-23.5 -147 q0 -70 -34 -94q-6 -4 -15 -7t-17 -4.5t-23 -2t-24.5 -0.5h-29.5h-31q-62 0 -194 -4q-16 0 -103 -5q-5 0 -16 -1t-16 -1q-18 0 -27.5 8t-9.5 17z" />
<glyph unicode="^" horiz-adv-x="1492" d="M471 770l340 676h74l329 -676h-71l-299 619l-299 -619h-74z" />
<glyph unicode="_" horiz-adv-x="1024" d="M76 -332h1065v-59h-1065v59z" />
<glyph unicode="`" horiz-adv-x="681" d="M-51 1473q0 4 1.5 9t8 10t16.5 5q19 -3 43 -24l265 -205q1 0 5 -3.5t7 -10t2 -11.5q0 -9 -6.5 -14.5t-14.5 -5.5q-7 0 -28 14l-273 195l-3 2q-4 3 -7.5 6t-7 8t-6 11.5t-2.5 13.5z" />
<glyph unicode="a" d="M96 371q0 48 7.5 106t38 154t81.5 178q17 27 36.5 52.5t62 68.5t88.5 73.5t114.5 54t141.5 23.5q115 0 181 -46.5t91 -108.5q20 -45 25 -119q6 30 17 96t18.5 102t11.5 44q11 18 32 18q25 0 25 -23q0 -7 -12 -53q-9 -30 -15 -57q-13 -56 -43 -199q-8 -45 -27.5 -144.5 t-29.5 -152.5q-5 -32 -13.5 -78.5t-12 -68t-6.5 -48.5t-3 -48q0 -82 31.5 -124t81.5 -42q41 0 78 28q53 42 95 133t58 170q0 6 1 13.5t8.5 19t21.5 10.5q20 0 20 -24q-2 -25 -23.5 -91.5t-51.5 -125.5q-86 -176 -213 -176q-78 0 -119 59q-39 57 -39 145q0 62 18 148 q-1 -2 -15 -31t-32 -61t-37 -58q-10 -17 -27 -38t-45 -50.5t-68.5 -56.5t-84.5 -43q-62 -23 -133 -23q-51 0 -108 17q-41 14 -78 40t-72 69t-55.5 112.5t-20.5 155.5zM156 369q0 -27 2.5 -53t13.5 -77t41 -98t76 -78q67 -43 149 -43q73 0 140 33q157 77 260 297 q39 88 67.5 199t28.5 196q0 156 -90 234q-68 59 -166 59h-18q-116 0 -201 -59q-140 -87 -221.5 -262t-81.5 -348z" />
<glyph unicode="b" horiz-adv-x="1193" d="M111 23q0 4 2 12.5t6 22.5t6 24q4 19 13.5 55.5t13.5 55.5q30 124 61 284l158 807q12 82 12 86q0 16 -4.5 26.5t-10 15.5t-17.5 7.5t-19.5 3t-24.5 0.5h-4h-4q-40 0 -70 -6q-28 -4 -41 -4q-30 0 -30 23q2 32 71 32q14 0 43 -2t45 -2q51 0 78 2q4 0 14 1t15 1q31 0 31 -34 q0 -13 -2 -27q-4 -19 -13.5 -60t-13.5 -61l-107 -547q59 115 122.5 191.5t158.5 118.5q74 32 160 32q92 0 156 -36t98 -80q82 -99 82 -283q-1 -96 -25 -195t-73.5 -190.5t-116.5 -162.5t-161 -114t-200 -43t-171.5 43t-94.5 101q-24 50 -37 147q-33 -188 -35 -200 q-7 -40 -16.5 -58t-30.5 -18q-24 2 -24 31zM250 322q0 -129 59 -207q71 -95 213 -95q115 0 223 68q95 60 162.5 161.5t99 213.5t31.5 227q0 78 -22 152q-7 21 -16.5 41t-31 49.5t-47.5 51t-68.5 37.5t-92.5 17h-12q-43 0 -84 -12q-83 -26 -168 -102.5t-148 -214.5 q-16 -35 -33 -79.5t-41 -139t-24 -168.5z" />
<glyph unicode="c" horiz-adv-x="1067" d="M96 406q0 92 26.5 185.5t51.5 143t51 88.5q178 258 445 258q111 0 184 -39t107 -92q40 -66 40 -137q0 -33 -10 -68q-3 -12 -11 -27t-22.5 -35t-40.5 -33t-57 -13q-41 0 -58.5 22.5t-17.5 47.5q0 29 22 51t52 22q17 0 31 -12q2 -2 7 -9t9.5 -10.5t9.5 -3.5q4 0 13 9 q18 18 18 63q0 47 -22 92q-35 65 -105.5 97t-150.5 32q-214 0 -361 -194q-69 -90 -110 -214t-41 -239q0 -142 73 -239q97 -129 279 -129q154 0 268 86q63 44 109 112q31 47 55 107q13 33 20 38q6 3 17 3q20 0 20 -23q-1 -18 -17.5 -54t-29.5 -54q-17 -31 -38 -60t-61 -67.5 t-86 -66.5t-115 -47.5t-146 -19.5q-105 0 -187 41q-112 53 -166.5 156.5t-54.5 231.5z" />
<glyph unicode="d" horiz-adv-x="1323" d="M96 369q0 227 133 434q18 29 38.5 56t64 70.5t91 74t118.5 54t147 23.5q191 0 273 -116q17 -23 27 -48.5t13.5 -44t8.5 -53.5l80 465q4 13 8 43q6 30 6 41q0 16 -5 27t-11.5 16.5t-20 8t-21.5 3t-26 0.5h-8q-17 0 -38.5 -2t-25.5 -2q-27 -6 -55 -6q-19 0 -27 6 q-8 5 -8 17q2 7 12 18q16 12 36 14q9 1 23 1q17 0 41 -2q44 -3 68 -3q45 0 68 2q5 0 17 1t18 1q33 0 33 -30q0 -13 -15 -90l-18 -99l-144 -735l-3 -12q-3 -13 -7.5 -34.5t-9.5 -48.5t-10.5 -58t-10 -62t-7.5 -62t-3 -55q0 -78 32 -115.5t79 -37.5q60 0 114 67 q40 51 73.5 126t45.5 138q5 33 17 41q1 0 5 1t7 1q20 0 20 -24q0 -33 -49 -160q-55 -130 -123 -188q-53 -45 -116 -45q-36 0 -80 22q-78 50 -78 185q0 37 14 135q-59 -134 -149 -222q-43 -43 -88 -71t-87 -39.5t-70.5 -15t-61.5 -3.5q-82 0 -148 29q-37 16 -70 42.5 t-65.5 69t-52 107.5t-19.5 144zM154 365q0 -162 88 -254q55 -55 110 -74q57 -17 109 -17q68 0 136 26t144 106q66 66 117 161q49 95 84 218.5t35 218.5q0 113 -47 180q-34 51 -90 76q-67 32 -144 32h-11q-177 0 -327 -151q-94 -99 -149 -241t-55 -281z" />
<glyph unicode="e" horiz-adv-x="1067" d="M98 383q0 133 45 254q70 193 228.5 318.5t357.5 125.5q162 0 238 -90q47 -52 47 -127q0 -98 -80 -178q-184 -184 -637 -184h-96q-3 0 -10.5 0.5t-12 1t-9.5 -1.5t-7 -6q-10 -17 -10 -111q0 -146 63 -233q36 -51 96 -84q82 -45 183 -45q82 0 151 24q36 13 71.5 32.5 t81.5 55.5t86 95t64 132q7 21 15 29t22 8q23 -2 23 -22q-2 -31 -45 -109t-101 -135q-22 -22 -53 -45.5t-78.5 -50t-112.5 -43.5t-133 -17q-114 0 -209 54q-49 28 -85 70t-53 80t-27 84t-11.5 69.5t-1.5 48.5zM180 565q0 -11 8 -14q15 -6 105 -6q125 0 209 12q30 3 80 12 t142.5 43.5t145.5 81.5q86 75 86 168q0 48 -30 96q-61 80 -201 80q-77 0 -150 -22q-33 -11 -67.5 -27.5t-80.5 -47t-91.5 -80t-81.5 -111.5q-30 -51 -52 -107.5t-22 -77.5z" />
<glyph unicode="f" horiz-adv-x="641" d="M-293 -240q0 34 19 59t53 25q33 0 46 -20.5t13 -40.5q0 -21 -12 -39q-19 -23 -19 -31l5 -10q14 -18 49 -18q63 0 119 45q51 43 83.5 105.5t59.5 146.5q47 144 90 440l63 412q1 9 10 67t9 78q0 26 -7.5 31.5t-35.5 5.5q-11 0 -33.5 -1t-34.5 -1h-39q-5 0 -13.5 -1t-16 -1 t-13.5 2q-21 6 -16 20q0 27 51 27q18 0 54.5 -4t54.5 -4q41 0 53 11t23 52q6 18 17 59.5t21.5 71.5t24.5 56q46 95 131.5 149.5t190.5 54.5q137 0 188 -73q23 -29 23 -72q0 -50 -30 -73t-59 -23q-26 2 -43.5 19.5t-17.5 43.5q0 34 25 49q1 1 12.5 5.5t17.5 10t6 13.5 q0 12 -14 23q-34 34 -115 34q-75 0 -139 -39q-71 -41 -110 -108t-62 -160q-14 -58 -14 -82q0 -12 10 -16t35 -4q16 0 45.5 2t44.5 2h55q9 0 26.5 1t26.5 1q60 0 60 -25q0 -4 -4 -12q-12 -14 -56 -14q-16 0 -34.5 1t-41 2.5t-34.5 2.5q-39 0 -57 2h-45h-15t-11.5 -2t-9 -2.5 t-6.5 -4.5t-4 -5t-3 -8.5t-2.5 -9t-2 -12t-2.5 -13.5l-61 -396q-14 -114 -33 -239q-18 -115 -35 -198.5t-58 -194t-95 -177.5q-94 -118 -215 -118q-40 0 -70 12q-43 18 -59.5 50t-16.5 60z" />
<glyph unicode="g" horiz-adv-x="1193" d="M-14 -219q0 39 24.5 69.5t63.5 30.5q33 -1 48 -21t15 -38q0 -30 -28 -51q-5 -3 -18.5 -8t-21 -10t-6.5 -13q0 -10 17 -33q34 -42 115.5 -61t156.5 -19q181 0 297 90q61 44 107 127q23 41 41 94t25.5 85.5t21.5 99.5q32 164 39 215q-46 -118 -125 -205q-45 -50 -74 -70 q-109 -86 -254 -86q-108 1 -185 53t-113 136.5t-36 191.5q0 43 7.5 98t28 136.5t68.5 170t117 159.5q21 23 48 45.5t72 51t106 46.5t127 18q85 0 157 -32t111 -101q29 -53 39 -125q25 122 39 203q2 14 4.5 21t10 12.5t20.5 5.5q28 0 28 -31q0 -15 -28 -125q-21 -75 -31 -129 q-50 -224 -92 -475q-40 -220 -58 -295q-50 -236 -200 -340q-62 -41 -142 -63q-105 -27 -192 -27q-85 0 -168.5 23t-134.5 73q-47 44 -47 103zM154 360q0 -192 110 -280q76 -60 176 -60q65 0 121 23q72 25 150 101t137 204q53 113 74.5 224t21.5 182q0 116 -49 186 q-24 35 -57 55q-57 36 -146 43q-15 1 -30 1q-102 0 -201 -60q-144 -88 -225.5 -264t-81.5 -355z" />
<glyph unicode="h" d="M121 25q0 12 16 71l19 80q9 46 26.5 138.5t26.5 138.5l162 831q12 82 12 86q0 16 -5 26.5t-10.5 16t-20 8t-21.5 2.5h-27q-40 0 -70 -6q-28 -4 -41 -4q-32 0 -30 23q0 5 3 10t6.5 7.5t4.5 2.5q15 10 34 12q8 1 18 1q16 0 40 -2q38 -3 62 -3q43 0 63 2q6 0 18 1t17 1 q31 0 31 -32q0 -5 -11 -62q-3 -15 -9 -44.5t-9 -43.5l-111 -563q9 19 26.5 51t23.5 43q14 24 20.5 33.5t31 42.5t44 52.5t54.5 48.5t69 45.5t81 29t97 12.5q15 0 31 -1t43 -6t50.5 -13.5t50 -26t45 -40.5t30.5 -59t12 -81q0 -36 -10 -93t-20.5 -101.5t-37.5 -151.5 q-36 -139 -49.5 -205.5t-13.5 -120.5q0 -94 45 -131q26 -22 66 -22q35 0 67 20q39 28 79.5 98t66.5 168l12 50q5 38 28 38q21 0 21 -32q0 -65 -70 -211q-85 -174 -215 -174q-66 0 -112.5 46.5t-46.5 153.5q0 33 5 67.5t11 61.5t24 103q10 40 31 120.5t31 120.5 q31 133 31 189q0 95 -60.5 142.5t-156.5 47.5q-52 0 -102 -16t-102.5 -51.5t-103 -100.5t-92.5 -155q-40 -89 -62 -170t-46 -209q-24 -119 -29 -148q-6 -37 -14 -104q-7 -49 -16 -70.5t-33 -21.5q-29 0 -29 33z" />
<glyph unicode="i" horiz-adv-x="598" d="M59 1026q3 35 70 35q15 0 46 -3t48 -3q30 0 84 4q29 3 40.5 -2.5t10.5 -24.5q0 -15 -12 -76l-18 -86l-64 -325q-3 -14 -9.5 -48t-9 -46t-8 -40t-7.5 -40t-6 -34.5t-5.5 -33.5t-4 -29t-3 -29.5t-1.5 -24.5t-1 -25q0 -111 61 -150q25 -16 56 -16q45 0 84 32q47 42 85 134 t58 176q0 4 1 10t8 14t18 8q9 0 13.5 -4.5t4.5 -7v-10.5q0 -14 -8 -45q-18 -88 -72 -193q-80 -157 -201 -157q-68 0 -114.5 49.5t-46.5 161.5q0 23 2 47.5t8 62.5t10.5 62t15.5 84.5t17 91.5l65 332q2 16 5.5 35t5.5 30.5t2 18.5q0 16 -4.5 26.5t-10 15.5t-17.5 7.5t-19.5 3 t-24.5 0.5h-8q-42 0 -66 -4q-5 -1 -21 -3.5t-26 -2.5q-24 0 -27 12q-4 8 -4 10zM262 1317q0 37 24 61q24 23 59 23h3q29 0 47.5 -19.5t18.5 -48.5q0 -33 -26 -57.5t-60 -24.5q-36 1 -51 23.5t-15 42.5z" />
<glyph unicode="j" horiz-adv-x="512" d="M-475 -227q0 45 28 78.5t72 33.5q28 0 48 -17.5t20 -45.5q0 -39 -41 -55q-5 -2 -19 -5.5t-21 -7.5t-7 -12q0 -9 12 -33q14 -28 41 -47t58.5 -25.5t47 -8t29.5 -1.5q24 0 49 4t62.5 15t75.5 37.5t67 66.5q44 61 64 131q15 44 24 91.5t22 137t25 160.5q14 79 30.5 168.5 t37 196.5t31.5 168q26 126 26 158q0 19 -4.5 30.5t-17 16t-22 5.5t-31.5 1h-9q-39 0 -63 -4q-5 -1 -21 -3.5t-26 -2.5q-31 0 -29 22q0 35 68 35q16 0 46 -3t46 -3q28 0 82 4q4 0 12 1t12 1q12 0 19 -2.5t9 -9t2.5 -9.5t0.5 -12q0 -12 -7 -46t-19 -88t-19 -89 q-12 -54 -23.5 -117t-24 -138t-20.5 -118q-41 -221 -63 -369q-8 -56 -15.5 -95.5t-23 -91.5t-35.5 -90t-52.5 -77t-74.5 -67q-89 -60 -211 -60q-128 3 -198 61.5t-70 129.5zM283 1319q0 19 8 31q7 18 26.5 34.5t53.5 16.5q28 0 46.5 -19.5t18.5 -48.5q0 -18 -8 -30 q-11 -23 -32 -37.5t-46 -14.5q-36 1 -51.5 24.5t-15.5 43.5z" />
<glyph unicode="k" horiz-adv-x="1193" d="M96 20q0 9 4.5 26t12 44.5t12.5 48.5q25 97 45 193l184 952q15 60 15 86q-1 16 -6.5 26.5t-11 16t-20 8t-21.5 2.5h-27q-33 0 -68 -6l-7 -1q-8 -1 -18 -2t-18 -1q-31 -2 -31 21q0 34 72 34q16 0 55.5 -3t61.5 -1q15 0 38 1t32 2t20 -1q16 -7 16 -32q0 -11 -2 -24.5 t-6.5 -36.5t-7.5 -40q-12 -65 -27 -129l-98 -506q-6 -34 -6 -36q0 -23 41 -23q85 0 153 8q66 8 99.5 25t60.5 47q20 24 41 60.5t44 82.5t32 62q12 30 41 69q61 82 164 82q32 0 63 -10q47 -15 78 -54t31 -89q0 -18 -7 -39q-32 -74 -85 -74h-3q-44 0 -63 37q-8 13 -8 33 q0 25 16.5 39t42.5 14q1 0 9 -1t12 -0.5t8 6t4 17.5q0 27 -27.5 52.5t-77.5 25.5q-39 0 -75 -22q-23 -15 -43.5 -42.5t-28 -42.5l-27.5 -55q-2 -4 -17.5 -34.5t-22 -43t-20 -36.5t-26.5 -41t-26 -31q-35 -36 -79.5 -50.5t-109.5 -19.5q42 0 86 -10q96 -22 137.5 -81.5 t41.5 -160.5q0 -26 -3.5 -75t-3.5 -74q0 -80 21 -123q31 -61 92 -61q53 5 90 47q83 90 119 307l2 7q2 7 4 12.5t9 10.5t16 5q18 0 18 -35q0 -21 -14 -78q-21 -117 -78 -207q-8 -15 -19 -29t-32 -35.5t-52 -34.5t-67 -13q-49 0 -88 28q-46 34 -60 88t-14 127q0 13 1.5 58 t1.5 74t-5.5 66.5t-17.5 59.5q-17 30 -49 52.5t-65.5 31.5t-54.5 13t-30 4q-2 1 -22.5 3.5t-49.5 4.5t-49 2q-47 0 -59 -4q-21 -8 -31 -88q-1 -7 -6.5 -30t-7.5 -36q-28 -135 -45 -225q-18 -103 -33 -174q-11 -49 -41 -49q-29 2 -29 28z" />
<glyph unicode="l" horiz-adv-x="598" d="M129 1436q0 8 12 20q15 10 35 12q8 1 19 1q16 0 40 -2q39 -3 64 -3q40 0 63 2q5 0 16.5 1t16.5 1q15 0 23 -5t9 -10t1 -15q0 -11 -1.5 -20t-5.5 -25t-7 -31q-3 -16 -10 -44t-9 -38l-141 -735q-55 -264 -55 -350q0 -100 47 -142q27 -24 69 -24q39 0 70 22q44 33 81 107 t56 143q4 12 19 70q0 1 1 5t1.5 5t1 4.5t1.5 4.5t2 3.5t2.5 3.5t3 2.5t4 2t5.5 1t6 0.5q17 0 17 -20q0 -21 -4 -35q-7 -35 -35.5 -112t-65.5 -140q-72 -110 -174 -110q-68 0 -116 50.5t-48 160.5q0 23 2 47t8.5 63.5t10.5 61t17 85.5t18 91l143 739q2 15 6 35.5t6 33.5t2 19 q0 15 -5.5 25.5t-11.5 15.5t-21 7.5t-22 2.5h-26q-39 0 -69 -6q-24 -4 -41 -4q-31 0 -31 23z" />
<glyph unicode="m" horiz-adv-x="1961" d="M68 1026q1 12 11.5 20t20.5 10l11 3q4 3 22 3q15 0 43 -2q58 -4 66 -5q26 0 80 4q2 0 15 1.5t15 -1.5q21 -3 21 -33q0 -12 -8.5 -40.5t-12.5 -51.5q-5 -21 -14 -64t-14 -65l-23 -109q12 27 47 90q9 19 21 40t39.5 59t57.5 69t76 62t95 47q52 18 125 18q53 0 98 -12 q48 -14 84 -46t51 -77t15 -90q0 -51 -23 -158q5 10 16 33t18 36.5t17 33.5t20 36t21 31q68 99 161.5 156t205.5 57q23 0 46.5 -2t65.5 -15t72.5 -34.5t54 -66t23.5 -105.5q0 -49 -27 -168q-8 -39 -24 -121l-31 -124t-26.5 -107t-14 -74.5t-6.5 -79.5q-1 -75 33 -116 q32 -39 74 -39h4q26 0 57 16q15 9 28.5 22t25 27t22 31t19 33t16 33t13 31t10 28t7 22.5t4.5 15.5l2 7l19 74q3 13 4.5 17.5t8 10.5t18.5 6q18 0 18 -28q0 -13 -13.5 -62.5t-31.5 -97.5q-42 -117 -104 -173t-132 -56q-64 0 -112 48q-47 47 -47 150q0 68 39 244 q9 39 29.5 117t29.5 117q31 127 31 192q0 36 -6 55q-13 50 -66.5 89.5t-146.5 39.5q-54 0 -105.5 -19t-86.5 -42.5t-68.5 -57.5t-47 -51.5t-26.5 -36.5q-38 -56 -66 -116.5t-49 -136.5t-31 -122t-28 -139q-35 -195 -39 -233q-2 -22 -3.5 -31t-6.5 -27t-15 -26t-24 -8 q-9 2 -14 3t-11 9.5t-6 22.5q0 9 3.5 23.5t10.5 40t12 44.5q1 4 8 30t9 40q14 60 39.5 179.5t38.5 178.5q2 12 9.5 50.5t11 58t9 51.5t7.5 59t2 52q0 64 -15 97t-45 58q-57 49 -155 49q-58 0 -101 -14q-36 -11 -73 -33t-85 -68.5t-88 -109.5q-44 -70 -77.5 -161t-49 -156.5 t-36.5 -173.5q-35 -172 -43 -232q-5 -60 -17 -80q-10 -15 -33 -18q-30 2 -30 31q0 11 3.5 27t12 48.5t12.5 48.5q7 30 20.5 89.5t20.5 89.5l107 551q6 60 6 67q0 14 -2.5 24.5t-9 22.5t-23 18.5t-41.5 6.5q-20 0 -61 -6t-64 -6q-30 0 -30 22z" />
<glyph unicode="n" d="M66 1026q3 35 71 35q16 0 50.5 -3t52.5 -3q7 0 22.5 1t22.5 1q20 0 30 2q3 0 10 1t13.5 1t11.5 -2q15 -6 15 -33q0 -15 -9 -56.5t-10 -45.5q-4 -18 -11 -54.5t-11 -54.5l-25 -127q43 106 80 162q15 23 32.5 46t54 58.5t76.5 61.5t98.5 45.5t121.5 19.5q114 0 189 -56.5 t75 -168.5q0 -11 -1 -22.5t-1.5 -21t-3.5 -24t-4.5 -23.5t-6 -28.5t-6.5 -29.5t-8.5 -36t-9.5 -40q-2 -11 -53 -225q-2 -8 -8 -36t-8.5 -39t-7 -35t-6.5 -39.5t-3.5 -36t-1.5 -38.5q0 -100 55 -135q27 -18 60 -18q65 0 114 73q74 107 105 269q0 1 1 5t1.5 5.5t1.5 5t2 5 t2.5 4t3.5 3.5t4.5 2.5t5.5 1.5h7q20 0 20 -28q0 -18 -20 -86q-72 -218 -164 -277q-42 -26 -95 -26q-46 0 -81 20q-82 50 -82 174q0 33 3.5 67t14.5 85.5t18.5 83t28.5 114t31 123.5q33 129 33 191q0 48 -15 82q-23 57 -79 84.5t-125 27.5q-116 0 -218 -82 q-59 -47 -105 -109.5t-77 -138t-50 -140t-38 -150.5q-36 -170 -45 -230q-12 -80 -16 -114q-7 -42 -17 -62t-32 -20q-33 2 -33 33q0 2 4 18q6 29 16 63q31 142 35 164l119 607q8 46 8 69q0 25 -12 41q-16 29 -66 29q-26 0 -76 -8q-1 0 -17.5 -2t-31.5 -2q-30 0 -30 22z" />
<glyph unicode="o" horiz-adv-x="1150" d="M102 397q0 158 63 309.5t177 251.5q141 123 318 123h8q79 0 143 -24q43 -16 81.5 -44.5t76 -75t60 -119.5t22.5 -163q0 -83 -19 -161q-6 -30 -15 -62t-33 -90t-54.5 -108t-82.5 -104t-114 -89q-116 -64 -239 -64q-179 0 -291 117q-101 114 -101 303zM158 393 q0 -161 80 -258q35 -43 99.5 -76.5t158.5 -33.5q191 0 338 168q76 93 118.5 221.5t42.5 251.5q0 160 -82 262q-31 36 -67 60t-74.5 33.5t-59 12.5t-50.5 4q-161 0 -291 -118q-100 -96 -156.5 -239.5t-56.5 -287.5z" />
<glyph unicode="p" horiz-adv-x="1193" d="M-160 -385q0 27 60 27h37q12 -1 23 -1q63 0 89 50q16 33 37 141l203 1045q12 82 12 84q0 16 -4.5 26.5t-10 15.5t-17.5 7.5t-19.5 3t-24.5 0.5h-8q-37 0 -65 -4l-15 -2.5t-16.5 -2.5t-14.5 -1q-22 0 -28 12l-2 10q0 35 67 35q15 0 47.5 -3t49.5 -3q23 0 73 4q5 0 14.5 1 t14.5 1q33 0 33 -35q0 -14 -7 -37.5t-8 -27.5q-4 -18 -10 -55.5t-10 -55.5l-21 -98q37 76 58 108q85 134 211 189q82 34 164 34q169 0 260 -120q82 -104 82 -277q0 -77 -19 -160q-6 -31 -16.5 -68t-37 -98.5t-61 -116.5t-93 -112.5t-128.5 -95.5q-110 -58 -225 -58 q-21 0 -44.5 3t-64.5 13t-80 36.5t-65 66.5q-34 53 -41 119l-78 -389q-18 -103 -18 -135q0 -51 84 -51q11 0 32.5 1t34.5 1q24 4 37 2q1 0 5.5 -2.5t9.5 -8.5t6 -12q-2 -8 -6 -14q-15 -17 -52 -17q-7 0 -92 11q-46 6 -96 6q-45 0 -127 -8q-47 -6 -86 -9q-10 0 -16 2 q-17 8 -17 23zM250 317q0 -155 76 -227q36 -29 65 -41q60 -29 135 -29q87 0 170.5 41.5t149.5 110.5q51 54 89 121t57 123t30 118t13.5 96t2.5 66q0 88 -28 164q-9 24 -23.5 48.5t-41 54.5t-70.5 50.5t-99 24.5q-14 1 -29 1q-22 0 -44 -3q-37 -4 -82.5 -20.5t-93.5 -54.5 t-91 -95q-84 -110 -135 -260.5t-51 -288.5z" />
<glyph unicode="q" horiz-adv-x="1150" d="M96 367q0 76 15 151q6 27 13.5 53t25 77t43 98t59.5 99t83 98t107 79q105 59 222 59q135 0 217 -69q17 -14 31 -31.5t23.5 -36.5t16 -35t10.5 -35.5t5.5 -30t3.5 -26t2 -16.5q6 33 17.5 98t17.5 98q1 18 4 31t13.5 26.5t27.5 12.5q24 0 24 -25q0 -5 -12 -51 q-11 -38 -21 -82q-11 -47 -49 -233l-170 -875q-16 -102 -16 -112q0 -49 74 -49q43 0 63 2q5 0 16.5 1t16.5 1q12 0 21.5 -7t9.5 -18q0 -6 -6 -12q-12 -17 -46 -17q-8 0 -100 11q-50 6 -100 6q-43 0 -121 -8q-70 -9 -94 -9q-9 0 -21 4q-20 6 -20 23q0 20 35 27q16 2 49 -1 t61 -3q72 0 94 45q11 19 31 118l96 498q-55 -119 -135 -197q-129 -127 -297 -127q-80 0 -145 31q-36 16 -67 42.5t-62 68t-49 105.5q-17 61 -17 135v8zM156 365q0 -183 98 -273q77 -72 192 -72q71 0 137.5 32t109 72.5t80.5 94.5t51.5 81t23.5 50q38 85 65 199t27 201 q0 138 -70 211q-26 30 -73 51q-54 24 -119 26h-16q-181 0 -324 -168q-82 -96 -132 -236t-50 -269z" />
<glyph unicode="r" horiz-adv-x="854" d="M82 1026q0 17 19 26t49 9q15 0 46.5 -3t47.5 -3q30 0 80 4q5 0 15 1t15 1q8 0 13.5 -1t12.5 -9t7 -23q0 -9 -6.5 -28.5l-7.5 -22.5q-7 -22 -15 -64l-12 -49l-31 -139q44 102 78 152q41 60 93 103t101.5 63.5t89 29t73.5 8.5q86 0 123.5 -37.5t37.5 -89.5q0 -56 -34 -85 q-32 -27 -60 -27h-4q-32 0 -44.5 20t-12.5 39q0 21 13 39.5t32 24.5q4 2 13 3t13 3q11 4 11 16q-1 2 -3 7.5t-4 9.5q-24 34 -98 34q-49 0 -102 -18q-131 -48 -228 -201q-65 -104 -105.5 -258.5t-88.5 -449.5q-12 -74 -16 -88q0 -1 -2 -5t-3.5 -6.5t-4.5 -6.5t-6.5 -6.5 t-9 -4.5t-11.5 -2q-31 2 -31 31q0 8 3.5 22t10.5 39.5t11 44.5q6 27 12 58t13 68t11 58l109 564q12 82 12 84q0 16 -4.5 26.5t-10 15.5t-17.5 7.5t-19.5 3t-24.5 0.5h-8q-41 0 -65 -4q-1 0 -18.5 -3t-28.5 -3q-21 0 -27 12z" />
<glyph unicode="s" horiz-adv-x="980" d="M12 209q2 22 8 45q12 37 45 62.5t72 25.5q29 -2 50.5 -21t21.5 -49q0 -28 -19 -43.5t-47 -15.5q-18 0 -32 6q-2 2 -10.5 5.5t-12.5 2.5q-8 0 -14 -11t-6 -26q0 -30 26 -63q25 -31 67 -52.5t76 -31t80.5 -15t58 -5.5h30.5q121 0 210.5 36t133.5 84q14 16 41 60 q30 62 30 121q0 39 -18 72.5t-35 47.5t-33 23q-11 6 -24 11.5t-32 11.5t-33.5 10.5t-43 11.5t-43.5 10.5t-52 12t-54 12.5q-86 19 -146 47q-125 56 -125 178q0 78 47 148q40 63 124 110t216 51h18q149 -1 247 -63q103 -65 102 -147q0 -45 -27.5 -78t-68.5 -33q-18 0 -33 10 q-33 16 -33 53q0 25 18 40.5t44 15.5q18 0 24 3t6 15q0 9 -3.5 18t-7.5 15t-8.5 11.5t-4.5 6.5q-28 31 -69 51.5t-84.5 27.5t-64.5 9t-40 2q-88 0 -172 -33.5t-127 -99.5q-12 -15 -27 -49q-18 -45 -18 -84q0 -88 88 -133q23 -12 68.5 -26.5t83 -23.5t92 -22t67.5 -16 q63 -11 119 -39q58 -28 89.5 -77t31.5 -113q0 -45 -24 -109.5t-83 -116.5q-54 -46 -146 -82.5t-216 -36.5q-31 0 -76 4t-129 30t-133 71q-60 60 -60 127z" />
<glyph unicode="t" horiz-adv-x="681" d="M63 1036q0 4 2.5 7.5t4.5 3.5q9 11 28 14t49.5 0t32.5 -2q14 -2 43 -2q42 0 64 24q32 36 51 168q7 25 14 68q11 82 19 108q7 25 27 25h3q25 0 25 -27q-5 -32 -6 -34q-3 -16 -22.5 -98.5t-26.5 -127.5q-11 -66 -11 -82q0 -20 11.5 -24t48.5 -4q34 0 102 4t107 4 q33 0 33 -23q0 -6 -5 -14q-13 -16 -45 -16q-38 0 -112 3t-115 3q-28 0 -33 -10q-17 -22 -24 -89l-86 -434q-3 -20 -11 -65t-11 -60t-8 -46t-6.5 -46t-3 -35t-1.5 -36q0 -52 12 -84q33 -89 137 -89q40 0 84 19q72 33 123 133q45 84 78 258q7 51 31 51q22 -2 22 -35 q0 -15 -14.5 -74.5t-32.5 -111.5q-66 -208 -195 -262q-50 -21 -104 -21q-26 0 -50.5 5t-52 19.5t-47.5 38t-33.5 65.5t-13.5 96q0 63 43 284l84 430q13 71 13 78q0 27 -47 27q-8 0 -26 -1t-26 -1q-12 -1 -32.5 -1t-30.5 -1q-4 0 -14 -1t-15 -1q-31 0 -31 22z" />
<glyph unicode="u" d="M68 1026q0 35 67 35q15 0 46 -3t48 -3q26 0 80 4q4 0 13 1t14 1q31 0 31 -31q0 -7 -29 -135l-66 -346q-49 -248 -49 -316q0 -82 31 -127q23 -33 69 -59.5t113 -26.5q110 0 203 77t149 186q32 62 65 177t55.5 217t66.5 318q7 37 17 55q9 18 26 17h2q16 0 21.5 -7.5 t5.5 -23.5q0 -11 -3.5 -29.5t-7.5 -32.5t-10 -34.5t-8 -26.5q-3 -14 -12 -52t-13 -60l-30 -129q-70 -306 -70 -463q0 -35 2 -51q18 -129 113 -129q76 0 137 98q28 42 55.5 113t38.5 125q0 2 1 6.5t2 6.5t2 6t2.5 6t4 5t5 4.5t6 2.5t8.5 1q20 0 20 -24q0 -10 -8.5 -39.5 t-20.5 -66t-12 -37.5q-1 -2 -7 -16.5t-11 -26.5t-15 -32t-19.5 -36.5t-23.5 -36t-28 -35.5q-32 -34 -74 -55q-31 -12 -70 -12q-44 0 -73 16q-84 47 -84 195q0 23 10 141q-30 -79 -72 -143q-15 -23 -30 -43.5t-49.5 -54.5t-71.5 -58.5t-91.5 -43t-113.5 -18.5 q-119 2 -189.5 68t-70.5 184q0 36 37 252l78 396q12 82 12 84q0 16 -4.5 26.5t-10 15.5t-17.5 7.5t-19.5 3t-24.5 0.5h-8q-33 0 -62 -4q-14 -1 -29 -3.5t-22 -2.5q-30 0 -28 22z" />
<glyph unicode="v" horiz-adv-x="1110" d="M68 1040q18 21 63 21q15 0 46 -3t46 -3q26 0 72 4q6 0 17.5 1t17.5 1q17 0 22.5 -6t5.5 -23q0 -9 -10 -57q-3 -15 -9 -47t-9 -47l-84 -437q-2 -5 -7.5 -38t-11.5 -83.5t-6 -84.5q0 -40 8 -72q23 -72 92 -109t150 -37q78 0 156 39q164 80 258 306q14 35 29.5 83.5 t33.5 139t19 168.5q0 178 -90 256q-40 35 -84 35q-39 0 -39 -19q0 -4 1 -7t2.5 -6.5t2.5 -6.5q6 -12 6 -23q0 -18 -18 -39.5t-54 -21.5q-37 0 -51 21.5t-14 43.5q0 26 14 47q14 24 50.5 46t88.5 22q46 0 92.5 -22.5t75.5 -59.5q32 -40 50 -108t20 -100t2 -58q0 -64 -18 -176 q-5 -33 -19 -82.5t-44 -131.5t-86 -163.5t-126 -134.5q-123 -91 -268 -91q-129 0 -214 66t-85 193q2 56 28 210l84 431q2 16 5.5 35t5.5 30.5t2 18.5q0 19 -5 30.5t-17.5 16t-22 5.5t-30.5 1h-9q-33 0 -60 -4q-14 -1 -29 -3.5t-22 -2.5q-29 0 -29 19q0 7 5 17z" />
<glyph unicode="w" horiz-adv-x="1748" d="M63 1026q0 13 10.5 21t21.5 10l11 2q4 3 53 0.5t77 -2.5q48 0 71 2q33 6 45 -4q10 -7 10 -29q0 -9 -8 -49l-24 -117l-94 -479q-23 -115 -23 -162q0 -38 10 -69q5 -20 17 -39.5t32.5 -40.5t55.5 -34t78 -13q76 0 145 36q171 83 264 332q43 122 109 477q16 78 22 119 q8 80 41 80h2q14 0 20.5 -5t6.5 -24q0 -11 -5.5 -32.5t-15.5 -56.5t-16 -60q-24 -104 -47 -232q-64 -289 -64 -407q0 -49 15 -92q14 -45 45.5 -75.5t70 -41.5t61 -14.5t44.5 -3.5q66 0 131 26q163 67 272 291q103 211 103 420q0 130 -52 208.5t-122 78.5q-10 0 -22.5 -5.5 t-12.5 -13.5q0 -5 4 -14l4 -8q6 -15 6 -29q0 -11 -6 -21q-19 -36 -70 -36q-12 0 -25 3.5t-27.5 19t-14.5 40.5q0 20 10 37q12 29 48.5 56.5t92.5 27.5q37 0 86 -18t86 -66q70 -91 70 -262q0 -219 -119 -453q-170 -328 -448 -328q-60 0 -109 15t-79 41t-48 51.5t-28 54.5 q-13 40 -13 90q0 51 10 113q-26 -70 -49 -111q-42 -74 -97 -127t-109.5 -79t-99.5 -37t-85 -11q-103 2 -168 66t-65 168q0 41 24 182l94 484q15 67 15 84q0 19 -5 31t-17.5 16.5t-23.5 6t-32 1.5q-29 0 -72 -6q-44 -6 -45 -6q-20 0 -26 8q-7 7 -7 14z" />
<glyph unicode="x" horiz-adv-x="1236" d="M-14 141q0 79 59 121q33 25 66 25q29 0 48 -19.5t19 -50.5q-1 -33 -19 -48t-38 -15q-13 0 -25 6q-15 10 -22 10q-12 0 -22 -13.5t-9 -33.5q0 -42 31 -68t73 -26q32 0 66 19.5t51.5 37.5t46.5 51q58 66 105 135t127 209q5 10 14.5 26t14 24.5t8.5 18t4 15.5q0 7 -4 19 q-23 97 -45 178q-32 114 -35 127q-22 99 -47 119q-14 10 -80 10q-28 0 -86 -4q-32 -4 -51 -4t-27 12q-4 4 -4 10q0 12 13 20.5t34 8.5q26 0 74.5 -3t72.5 -3q31 0 45 2q8 0 24.5 2t25.5 2q17 0 24 -10q4 -5 8 -16t8 -28t7 -32t8 -39.5t8 -38.5q45 -180 70 -270 q137 237 215 329q99 119 202 119q36 0 70 -14q44 -19 70 -59.5t26 -88.5q0 -23 -8 -47q-14 -49 -44.5 -71.5t-57.5 -20.5q-32 0 -53 20.5t-21 51.5q0 23 14.5 42.5t38.5 20.5q9 0 19 -4q14 -7 22 -6q25 0 25 35q-2 41 -32 69.5t-73 28.5q-101 -2 -217 -170 q-41 -61 -149 -241q-27 -49 -27 -60q0 -4 2 -14t4.5 -21t3.5 -14q4 -12 10.5 -36t10.5 -36q31 -118 82 -260q27 -82 59 -117q27 -34 72 -34q36 0 76 28q25 19 45.5 44.5t38 63.5t26 59t24.5 71t19 59q11 33 29 33q22 -2 22 -29q-3 -20 -36 -112q-16 -40 -29.5 -68.5 t-37.5 -67.5t-49 -63.5t-60.5 -42.5t-75.5 -18q-96 0 -146 108q-17 35 -59.5 162.5t-73.5 245.5q-5 -9 -36.5 -63l-42 -72t-39 -64t-46 -71.5t-42.5 -59.5t-48 -61q-52 -58 -101 -91.5t-110 -33.5q-66 0 -109.5 44t-43.5 111z" />
<glyph unicode="y" horiz-adv-x="1150" d="M37 -213q0 25 6 43q5 18 26 39.5t54 21.5q21 0 42 -14.5t21 -50.5q0 -45 -39 -62q-16 -4 -22 -6q-8 -4 -8 -18q0 -24 33 -49q85 -64 235 -64q233 0 348 178q23 35 42.5 80.5t31.5 77.5t25.5 95t17.5 83.5t16 94.5t13 81q-47 -94 -76 -137q-16 -22 -33 -42.5t-52 -52 t-72 -53.5t-91.5 -38.5t-112.5 -16.5q-61 0 -119 20.5t-96 61.5q-59 59 -59 177q0 40 25 182q8 35 26 131l64 328q14 75 14 84q-1 19 -6.5 30.5t-18.5 16t-22.5 5.5t-30.5 1h-4h-4q-40 0 -64 -4q-44 -6 -47 -6q-18 0 -24 8q-6 6 -6 14q0 5 6 14q18 21 63 21q15 0 45 -3 t47 -3q22 0 76 4q4 0 13 1t14 1q33 0 33 -39q0 -14 -41 -199l-54 -284q-5 -26 -14 -77t-14 -77q-2 -5 -6.5 -28t-9.5 -58.5t-5 -60.5q0 -80 33 -129q25 -35 73.5 -62t121.5 -27q37 0 77 10.5t88 34t97 71t90 112.5q51 82 82 184t69 301q8 43 23 121.5t20 103.5q15 87 27 101 q8 8 27 8q26 0 26 -31q0 -8 -8 -37t-8 -32q-19 -76 -39 -166q-30 -126 -78 -418q-6 -36 -17.5 -106.5t-17.5 -106.5q-9 -54 -17 -93.5t-22 -91t-29.5 -90t-39.5 -82t-52.5 -76t-68 -62.5t-86.5 -50q-105 -43 -215 -43q-20 0 -43.5 2t-67 8.5t-87.5 24.5t-77 45 q-67 53 -67 125z" />
<glyph unicode="z" horiz-adv-x="1110" d="M29 92q0 91 49 184q28 50 70 92t84.5 70t102.5 54t103.5 40t108.5 33q141 40 201 68q157 68 215 201q19 43 24 116q-15 -21 -35 -41q-68 -61 -151 -61q-85 0 -174 74l-38.5 33t-48 39t-45 25t-53.5 13q-28 0 -63 -18q-28 -14 -61 -54.5t-33 -97.5q0 -45 22 -45 q12 4 21 10q9 9 28 9q24 0 42.5 -17.5t17.5 -40.5q0 -23 -19 -45t-57 -22q-52 0 -80.5 39.5t-28.5 93.5q0 88 65.5 159.5t154.5 71.5q70 -2 135 -51q18 -14 50.5 -43t52.5 -45.5t53.5 -30.5t68.5 -14q67 0 123 49q10 6 20.5 18t10.5 21q0 10 -15 10q-10 0 -12 2 q-13 1 -22 14t-9 27q0 22 17 35.5t41 13.5q40 0 58.5 -33.5t18.5 -76.5q0 -50 -20 -111q-43 -126 -148 -205q-58 -44 -129.5 -73t-171.5 -57.5t-141 -43.5q-255 -90 -323 -256q-14 -34 -21 -96q8 16 33 51q70 84 172 84q52 0 100 -23.5t75.5 -49t72.5 -74.5q1 -1 9 -9.5 t14.5 -15t18.5 -16.5t24 -17.5t27 -14.5t32.5 -11t35.5 -4q73 0 133 62t60 136q0 8 -1.5 16t-7 16t-14.5 7q-7 0 -22 -5.5t-23 -4.5q-23 0 -39 17.5t-16 41.5q0 29 23 49.5t53 18.5q35 0 68.5 -31t33.5 -94q0 -104 -78.5 -188t-181.5 -84q-57 0 -102 24q-40 22 -93 77 t-65 65q-72 63 -147 63q-76 0 -133 -59q-17 -17 -27 -34.5t-8 -25.5q0 -4 1.5 -6.5t3.5 -3t8 -2.5t11 -4q30 -13 27 -43q0 -18 -14.5 -34.5t-47.5 -16.5q-75 0 -75 106z" />
<glyph unicode="{" horiz-adv-x="724" d="M313 506l2 10q55 18 80 45q31 35 39 97.5t10 189.5v262q-4 165 27 250q53 143 229 172v-10q-27 -8 -42 -12.5t-47.5 -27t-53.5 -55.5q-27 -42 -33 -86t-8 -157v-207q0 -154 -4 -232q-8 -123 -41 -170q-7 -11 -17 -21t-18 -16t-18.5 -12t-16.5 -8.5t-14.5 -6t-9.5 -3.5 q20 -8 35 -16t34.5 -24.5t34 -43.5t23.5 -64q14 -62 14 -294v-232v-27v-28.5t0.5 -26.5t1.5 -28t3 -26t5 -27.5t8 -25t10.5 -26.5t13.5 -24t18 -25q24 -30 51 -45t71 -29v-8q-103 15 -161 66q-33 27 -53 63t-28 79t-10.5 79t-3.5 84v22v271q0 88 -1 121.5t-7 74.5t-20 70 q-31 67 -103 88z" />
<glyph unicode="|" horiz-adv-x="468" d="M301 -512v2044h59v-2044h-59z" />
<glyph unicode="}" horiz-adv-x="724" d="M217 -504q66 18 100 46q25 21 43 48q26 39 32.5 79t9.5 136q1 20 1 31v207q0 176 5 244q8 111 38 157q37 51 97 66q-1 0 -11 4.5t-15.5 7t-16.5 9t-19 13t-18 16.5t-17 22q-28 42 -35.5 97.5t-9.5 176.5v328q0 9 -0.5 45.5t-1 48.5t-4 42t-9.5 46.5t-17 39.5t-27 42 q-45 52 -125 74v10q100 -16 156 -59q30 -23 50.5 -57t30 -60.5t14 -75.5t5 -69t0.5 -74v-271q0 -119 4.5 -171t24.5 -95q33 -68 102 -88v-8q-21 -6 -37.5 -15.5t-29.5 -18.5t-22.5 -26t-16 -28t-11 -36.5t-6.5 -40.5t-3.5 -50t-2 -54.5t-0.5 -64.5v-262v-58t-2.5 -57 t-6.5 -61t-13.5 -55.5t-22.5 -56t-33.5 -46.5t-46.5 -41q-59 -38 -133 -45v8z" />
<glyph unicode="~" horiz-adv-x="1492" d="M414 559q42 66 92 103.5t119 37.5q45 0 96 -17.5t145 -61.5l60 -27q80 -37 121 -37q34 0 61.5 9.5t51.5 30.5t39 39t38 50l35 -45q-32 -48 -70 -84q-1 -1 -10 -8.5t-17 -14t-21.5 -15t-25.5 -13.5q-31 -14 -75 -14q-43 1 -76 13t-113 50l-59 27q-116 57 -182 57 q-32 0 -57.5 -9t-47.5 -30.5t-34 -37t-35 -48.5z" />
<glyph unicode="&#xa1;" horiz-adv-x="641" d="M141 20q1 6 6 28t12 53.5t11 54.5q17 70 39 180l90 463q4 22 12.5 66t12.5 67q27 154 30 176q5 37 21 53q6 13 24 10q25 0 25 -34q0 -17 -2 -21q-3 -20 -10.5 -55t-10.5 -51q-27 -150 -51 -269l-59 -305q-4 -28 -10 -59.5t-13.5 -70.5t-11.5 -62q-4 -24 -13.5 -73.5 t-13.5 -74.5q0 -4 -2 -20t-3.5 -22.5t-4 -20.5t-6.5 -20.5t-9.5 -15t-13.5 -12t-18 -3.5q-31 0 -31 38zM340 1362q0 46 35 78.5t82 32.5q34 0 54.5 -18.5t25 -36t4.5 -34.5q0 -23 -11 -45q-19 -35 -48 -48t-52 -13q-38 -2 -64 21t-26 63z" />
<glyph unicode="&#xa3;" horiz-adv-x="1449" d="M-53 156q0 46 20 92q32 69 98 108t144 39q57 0 117.5 -22.5t95 -44t99.5 -68.5q13 -9 20 -14q77 134 77 272q0 121 -40 277h-66q-74 -2 -219 -2q-16 0 -23 0.5t-20 2.5t-19 8.5t-6 16.5q0 13 15.5 21t40.5 8q13 0 40 -2t41 -2q59 -2 175 -2h32q-30 111 -30 186 q0 189 116.5 314.5t302.5 125.5q137 0 230 -69q104 -84 104 -215q0 -69 -35 -117q-36 -47 -90 -47h-6q-6 1 -8 1.5t-8.5 2t-10.5 3.5t-9.5 5t-9 7t-7 9.5t-5 12.5t-1.5 16q0 55 53 62q6 1 18.5 1.5t21 3.5t15.5 11q13 18 13 57q0 48 -31 101q-69 104 -234 104 q-139 0 -229 -82q-123 -113 -123 -305q0 -71 33 -188h152q147 0 219 2q16 0 46.5 1.5t46.5 1t23 -4.5q15 -5 15 -23q0 -9 -11 -16q-12 -12 -57 -12q-49 0 -145 1t-144 1l-137 -2q39 -129 39 -248q0 -77 -19 -155t-79 -183q85 -66 168 -115q121 -72 207 -72q59 0 114 29 q26 13 53 35.5t57.5 58.5t50 91.5t19.5 119.5q0 46 -8 72q-6 16 -15.5 32.5t-28 37t-48.5 33t-67 12.5q-45 0 -79 -15t-52.5 -39.5t-27.5 -45t-13 -40.5q0 -1 -1 -8t-2 -11t-3 -11t-4.5 -11t-7 -7t-9.5 -3q-9 0 -17 8.5t-8 24.5q0 27 15 70q8 21 22.5 42.5t39 45t64.5 38.5 t89 15q65 0 121 -29q53 -31 79.5 -88.5t26.5 -124.5q0 -75 -29 -143q-43 -106 -137.5 -172t-208.5 -66q-61 0 -124.5 23t-155.5 86q-59 39 -117 82q-21 -30 -49 -58q-147 -133 -324 -133q-123 0 -177 54.5t-54 130.5zM6 164q0 -58 46 -101t143 -43q46 0 90 13q90 25 166 96 q30 27 55 68q-184 149 -307 149q-28 0 -64 -10q-57 -21 -93 -68t-36 -104z" />
<glyph unicode="&#xa4;" horiz-adv-x="1366" d="M260 225l146 144q-25 32 -41 55q-82 118 -82 272q0 149 79 269q3 4 44 57l-142 143l47 45l142 -141q45 36 63 47q115 74 264 74q151 0 267 -76q39 -28 59 -45l143 143l49 -49l-143 -143q35 -43 49 -68q70 -106 70 -254q0 -150 -72 -262q-4 -8 -51 -67l145 -146l-47 -47 l-145 146q-35 -31 -60 -46q-114 -75 -268 -75q-152 0 -268 78q-26 18 -55 43l-146 -144zM348 698q0 -186 124 -312t310 -126q166 3 277 100q149 127 149 336q6 140 -78 256q-20 27 -45.5 52.5t-68.5 56.5t-104.5 50t-131.5 19q-183 0 -307.5 -124.5t-124.5 -307.5z" />
<glyph unicode="&#xa6;" horiz-adv-x="468" d="M301 389h59v-780h-59v780zM301 631v780h59v-780h-59z" />
<glyph unicode="&#xa7;" horiz-adv-x="1193" d="M41 -55q0 40 14.5 78.5t42.5 60.5q31 25 72 25q38 0 54 -20.5t16 -45.5q0 -40 -45 -63q-5 -3 -27 -11.5t-31 -15.5q-28 -17 -28 -55q0 -36 24 -70q72 -111 295 -111q191 0 284 77t93 192q0 54 -31 108q-13 22 -30.5 41.5t-43.5 38t-41 28.5t-49 29.5t-43 24.5 q-26 16 -79 48t-80 48q-84 56 -113 82q-96 79 -96 176q0 72 45 140q12 19 26 36.5t27.5 32t30 29t30 24.5t31 21t28.5 17.5t27.5 15t23.5 12t21 9.5t15 7q-46 28 -80 74q-45 57 -45 129q0 82 49 152q45 63 141.5 113.5t235.5 50.5q196 0 282 -109q43 -55 43 -123 q0 -66 -34.5 -98.5t-71.5 -32.5q-28 1 -43.5 18.5t-15.5 45.5q0 35 28 55q7 5 27.5 12t30.5 17.5t10 31.5q0 20 -19 47q-17 25 -48.5 43.5t-60.5 27t-63 13.5t-47 5.5t-22 0.5q-113 0 -205 -45q-66 -32 -112 -89.5t-46 -125.5q0 -67 44 -111t155 -106q22 -12 97.5 -53 t115.5 -66q164 -97 164 -239q0 -70 -37 -139q-72 -124 -253 -206q-1 0 -2 -0.5t-2.5 -1.5t-2.5 -1l43 -31q19 -17 31.5 -30.5t33.5 -41.5t32 -65t11 -80q0 -64 -24 -120t-73.5 -103.5t-138 -75t-206.5 -27.5q-254 0 -342 135q-43 61 -43 140zM260 618q0 -32 10 -57 q5 -16 12.5 -30t23 -28.5t25 -23.5t35 -26t37 -24.5t48.5 -29t51 -30.5q17 -10 168 -97q71 33 129 74q153 110 153 234q0 72 -47 122q-17 20 -41 39t-61.5 41.5t-68 39t-89.5 48.5t-96 52q-84 -37 -137.5 -72.5t-98.5 -93.5l-7 -10q-6 -9 -9 -14t-9.5 -16t-10.5 -21 t-8.5 -22.5t-6.5 -26.5t-2 -28z" />
<glyph unicode="&#xa8;" horiz-adv-x="681" d="M8 1335q0 35 25.5 65t60.5 30q25 -2 41 -16.5t19 -39.5q5 -36 -22 -69t-64 -33q-23 0 -37.5 13.5t-18.5 26.5t-4 23zM356 1335q0 35 26 65t62 30q26 -1 41 -18t17 -42q4 -14 -2 -33q-8 -29 -31 -49t-51 -20q-27 1 -44.5 20.5t-17.5 46.5z" />
<glyph unicode="&#xa9;" horiz-adv-x="1705" d="M221 725q0 269 168 467q35 42 78 79.5t113 82t166.5 71.5t205.5 27q175 0 328 -76t258 -217q144 -194 141 -440q0 -42 -6 -87t-22 -110t-53 -136.5t-91 -135.5q-68 -80 -152 -135.5t-163.5 -79.5t-135.5 -32.5t-106 -8.5q-249 0 -446 149q-34 27 -66 58t-73.5 85.5 t-71.5 115t-51 146t-21 177.5zM287 723q0 -133 49 -252q75 -187 244 -299.5t372 -112.5q113 0 224 39q198 70 317 241t121 382q0 223 -129 399q-24 32 -52 62t-78 69t-105 67t-134 48t-164 20q-223 0 -393 -126q-41 -29 -81 -70t-86.5 -107t-75.5 -160t-29 -200zM522 733 q0 100 19 176q37 136 139.5 204.5t247.5 68.5q30 0 88 -6.5t63 -6.5l41 -6q58 -8 131 -12q4 -32 35 -238l-35 2q-19 78 -39 111q-64 113 -219 113q-135 0 -213 -74q-112 -98 -112 -322q0 -71 10 -143q27 -198 143 -272q63 -45 176 -45q115 0 183 59q36 28 51 64 q15 28 23 66.5t8 51.5l34 -2q-3 -121 0 -246q-71 -3 -159 -16l-35 -4q-124 -14 -162 -14q-115 0 -194 40.5t-121 92.5q-103 124 -103 358z" />
<glyph unicode="&#xab;" horiz-adv-x="811" d="M156 571q0 11 20 31l14 21l236 297q16 19 22.5 26t17.5 15t19 8q7 0 12 -5.5t5 -11.5q0 -12 -31 -55l-207 -272q-33 -37 -33 -58q0 -10 13 -45l100 -272q12 -30 12 -45q0 -13 -8 -20t-16 -7q-13 0 -19 6q-9 11 -22 45l-119 295q-17 45 -16 47zM428 571q0 8 21 29 q6 8 16 23l235 297q42 49 60 49q6 0 11 -5.5t5 -11.5q0 -12 -31 -55l-206 -272q-33 -37 -33 -58q0 -13 12 -45l100 -272q13 -32 13 -45q0 -27 -25 -27q-10 0 -20 10q-9 12 -21 41l-119 295q-6 12 -12 27t-6 20z" />
<glyph unicode="&#xac;" horiz-adv-x="1366" d="M96 565v62h1366v-627h-61v565h-1305z" />
<glyph unicode="&#xad;" horiz-adv-x="724" d="M102 590q0 35 56 35q14 0 38.5 -2t36.5 -2q35 -3 66 0h145q40 -2 115 2q42 3 62 -4t20 -31q0 -13 -8 -21q-12 -12 -62 -12q-33 0 -49 2h-225q-61 0 -92 -2q-52 0 -62 2q-6 0 -14 1.5t-18 9.5t-9 22z" />
<glyph unicode="&#xae;" horiz-adv-x="1705" d="M221 725q0 269 168 467q35 42 78 79.5t113 82t166.5 71.5t205.5 27q175 0 328 -76t258 -217q144 -194 141 -440q0 -42 -6 -87t-22 -110t-53 -136.5t-91 -135.5q-68 -80 -152 -135.5t-163.5 -79.5t-135.5 -32.5t-106 -8.5q-249 0 -446 149q-34 27 -66 58t-73.5 85.5 t-71.5 115t-51 146t-21 177.5zM287 723q0 -133 49 -252q75 -187 244 -299.5t372 -112.5q113 0 224 39q198 70 317 241t121 382q0 223 -129 399q-24 32 -52 62t-78 69t-105 67t-134 48t-164 20q-223 0 -393 -126q-41 -29 -81 -70t-86.5 -107t-75.5 -160t-29 -200zM610 276v35 q47 9 62 19q17 9 24.5 31.5t8 39.5t0.5 66v541q0 43 -3 61q-10 66 -92 66v34q78 -4 119 -4q30 0 92 1t94 1l7 1q7 0 17 0.5t24.5 0.5h31t34.5 -0.5t37 -2.5t37 -5t35 -7.5t31 -10.5q36 -16 61.5 -41t36.5 -52.5t15 -47.5t4 -37q0 -135 -137 -187q-46 -18 -92 -24 q30 -7 51 -23q38 -25 57.5 -65.5t32.5 -98.5l19 -82q2 -6 6 -19.5t6 -19.5q19 -86 63 -86t68 64q10 24 16 53l37 -8q-17 -83 -45 -135q-1 -1 -7 -9.5t-14 -19t-16 -16.5q-29 -23 -71 -23q-28 0 -50 13t-35.5 31t-26.5 53.5t-20 64t-19.5 80t-21.5 84.5q-20 75 -47 104 q-27 27 -53 34t-72 9h-106v-274q0 -67 2 -74q5 -41 31.5 -56.5t72.5 -21.5v-37q-123 7 -305 0zM809 788h98q49 1 65 2t53.5 7t62.5 20.5t47 38.5q39 42 39 105q0 58 -31 94q-8 11 -18 20.5t-19 16t-20.5 12t-20.5 9t-21 5.5t-19.5 3.5t-19 2t-16 0.5h-13.5h-9 q-68 4 -105 -10q-36 -12 -44.5 -42t-8.5 -107v-177z" />
<glyph unicode="&#xb0;" horiz-adv-x="724" d="M178 1249q0 117 83 200t200 83q116 0 198 -83t82 -200q0 -108 -73 -188q-83 -92 -209 -92q-117 0 -199.5 82.5t-81.5 197.5zM238 1249q0 -92 65.5 -156.5t157.5 -64.5t156.5 65.5t64.5 157.5q-2 91 -66.5 156.5t-156.5 65.5q-90 0 -155.5 -66.5t-65.5 -157.5z" />
<glyph unicode="&#xb1;" horiz-adv-x="1366" d="M178 0v59h1200v-59h-1200zM178 784v60h574v567h61v-567h565v-60h-565v-565h-61v565h-574z" />
<glyph unicode="&#xb4;" horiz-adv-x="681" d="M162 1239q0 18 26 35l299 203q0 1 8 7t21 11.5t23 5.5q14 -1 19 -9t3 -15q0 -22 -45 -47l-305 -195q-18 -12 -33 -12q-16 0 -16 16z" />
<glyph unicode="&#xb5;" horiz-adv-x="1150" d="M266 750q0 118 29 159q15 25 45 25q16 0 31 -10q30 -24 30 -115q0 -43 -8 -125q-3 -48 -13 -134.5t-13 -115.5q-11 -103 -23 -170q25 -64 39 -86q13 -22 32.5 -44t63 -45t94.5 -23q40 0 76 14t61 32t48 48.5t35 51t24.5 53t15.5 41.5t8 29q1 2 1 3q24 127 24 307 q0 38 -1.5 90t-1 79.5t4.5 51.5q10 68 64 68q19 0 31 -8q45 -30 45 -166q0 -29 -2.5 -73t-10 -128.5t-29 -174.5t-53.5 -157q16 -36 39.5 -63.5t40.5 -36.5q24 -12 56 -12q92 0 92 116q0 21 -2 41h37q24 -75 24 -131q0 -46 -15.5 -89.5t-49.5 -63.5q-33 -13 -58 -13 q-65 0 -116 58q-15 17 -37.5 56.5t-34.5 80.5q-35 -50 -43 -59q-110 -142 -256 -142q-49 0 -92 19q-42 16 -88.5 58.5t-75.5 111.5q-18 -248 41 -396q15 -41 67 -127q18 -29 25 -41t12.5 -28t5.5 -31q0 -30 -16 -50t-45 -20q-13 0 -24 3.5t-19.5 10t-15.5 13t-12.5 16 t-8.5 15t-6 13.5l-4 7q-58 138 -58 369q0 148 27 338q-37 203 -37 500z" />
<glyph unicode="&#xb6;" horiz-adv-x="1366" d="M289 1069q0 130 70 224.5t194 131.5q80 21 180 21h428v-60h-67v-1728h-60v1728h-356v-1728h-60l-2 1053q-63 7 -88 14q-115 33 -177 127.5t-62 216.5z" />
<glyph unicode="&#xb7;" horiz-adv-x="382" d="M186 596q0 42 30 71t73 29q42 0 71 -30.5t29 -73.5q0 -42 -29 -69t-71 -29q-43 0 -73 29.5t-30 72.5z" />
<glyph unicode="&#xb8;" horiz-adv-x="681" d="M-166 -297q0 15 9.5 22t17.5 7q12 0 35 -29q14 -15 30 -29q43 -28 111 -28q94 0 147 57q31 28 31 66q0 42 -36.5 59.5t-82.5 17.5q-40 0 -84 -12q-10 -3 -21 -7.5t-17.5 -6t-12.5 -0.5q-24 0 -24 20q3 16 18 31l92 141l49 -4l-82 -131q72 12 107 12q30 0 55 -6 q42 -10 70 -39t28 -71q0 -30 -18 -62q-31 -54 -95.5 -81t-133.5 -27q-103 0 -162 51q-31 27 -31 49z" />
<glyph unicode="&#xbb;" horiz-adv-x="811" d="M45 195q2 11 33 55l207 272q1 1 6.5 8t11 13.5t10 17t4.5 19.5q0 6 -3.5 17.5t-7.5 19.5l-3 8l-100 272q-12 36 -10 43q0 15 8.5 22t15.5 7q5 0 10.5 -3t5.5 -5q8 -6 23 -43l121 -295q17 -45 16 -48q0 -5 -16 -26q-12 -12 -21 -27l-233 -295q-41 -51 -60 -49 q-18 0 -18 17zM319 195q0 12 31 55l207 272q33 38 33 58q0 15 -15 45l-98 272q-14 28 -14 43t9 22t17 7t17 -6q14 -14 22 -45l121 -295q2 -7 7 -18.5t8.5 -19t3.5 -10.5q0 -5 -2.5 -9t-8.5 -9.5t-10 -11.5q-13 -18 -16 -23l-236 -295q-3 -3 -7.5 -8.5t-7 -8t-6 -7t-6 -7 l-5.5 -5.5t-5.5 -5t-5.5 -4t-5.5 -2.5l-5 -1t-5.5 -0.5q-7 0 -12 5.5t-5 11.5z" />
<glyph unicode="&#xbf;" horiz-adv-x="1110" d="M53 311q0 62 27 131q15 41 35.5 74.5t49.5 60t55.5 46t67 38.5t69.5 30.5t77 29.5q112 42 169.5 74.5t88.5 76.5q11 16 20.5 34.5t15 32t11 37t7.5 34t7.5 39t6.5 36.5q0 1 1 8.5t1.5 9.5t2 8.5t3 9t3.5 7.5t4.5 7t6.5 5t8.5 4t10.5 1q14 0 20 -9.5t6 -33.5 q0 -31 -18.5 -106.5t-54.5 -133.5q-33 -54 -90 -92t-170 -80q-3 -1 -35 -12.5t-38.5 -14.5t-35 -14t-38 -16.5t-33 -17t-35.5 -20.5t-30 -21.5t-31 -26.5t-25 -29q-25 -31 -46.5 -85.5t-21.5 -121.5q0 -60 23 -108.5t55 -78t80 -50.5t84.5 -30.5t82.5 -14.5t59 -5.5t30 -0.5 q131 0 225 40q95 40 165 118t70 173q0 25 -8 49q-9 29 -34.5 50.5t-53.5 21.5q-17 0 -27 -7t-10 -17q0 -7 4 -19t4 -18q0 -22 -18.5 -42t-54.5 -20q-26 2 -44 17.5t-18 42.5q0 39 38 75.5t110 36.5q77 0 122.5 -46t45.5 -122q0 -84 -51 -163q-44 -68 -112 -115.5t-139 -67.5 t-114.5 -27t-79.5 -8q-123 -7 -244 30t-192 120q-70 81 -70 186zM723 1354q0 46 35 78t80 32q48 0 68 -29t20 -57q-1 -45 -34.5 -75.5t-78.5 -32.5q-38 -2 -64 21.5t-26 62.5z" />
<glyph unicode="&#xc0;" horiz-adv-x="1492" d="M-98 29q0 10 8.5 17t17.5 9q0 5 31 1.5t47 -3.5q31 0 45 6q13 4 24 10t22.5 18t19.5 21.5t20 29t19 31.5t22 39.5t23 41.5l141 252q31 51 80 137l416 733q12 21 20 33.5t25 26.5t35 14q22 0 32 -18.5t15 -57.5l151 -862q2 -10 60 -301q21 -116 49 -144q10 -9 27.5 -10.5 t53 1.5t56.5 3q35 0 35 -26q0 -5 -4 -13q-9 -18 -41 -18q-21 0 -57.5 3.5t-47.5 4.5q-43 6 -88 6q-57 0 -88 -2q-27 -3 -57 -6q-8 -1 -53 -6q-3 0 -11 -1t-12 -1q-17 1 -26 10t-9 17q0 11 11.5 20t25.5 12q6 1 22 0t39 -2.5t41 -1.5q27 0 39 4q39 13 39 68q0 36 -35 223 l-26 141q-3 30 -10 40.5t-27 9.5h-565q-14 0 -19.5 -1.5t-13 -9t-16.5 -24.5l-111 -197q-96 -179 -96 -205q0 -21 16.5 -35t50.5 -14q51 0 76 2q6 0 19 1t20 1q33 0 33 -26q0 -31 -49 -31q-3 0 -84 6q-11 1 -33.5 2t-34.5 2q-54 4 -80 4q-21 0 -67 -4t-66 -6q-40 -4 -63 -4 q-17 0 -27 9.5t-10 19.5zM463 596q2 -12 18 -12h529q30 0 30 22q0 2 -3 19.5t-3 19.5l-129 731l-430 -755q-12 -24 -12 -25zM662 1817q0 10 9.5 18t20.5 8q9 0 19.5 -5.5t18.5 -11.5l7 -5l250 -205q17 -13 17 -27q0 -8 -6.5 -15t-18.5 -7t-31 14l-256 195q-4 2 -10 6.5 t-13 14.5t-7 20z" />
<glyph unicode="&#xc1;" horiz-adv-x="1492" d="M-98 29q0 10 8.5 17t17.5 9q0 5 31 1.5t47 -3.5q31 0 45 6q13 4 24 10t22.5 18t19.5 21.5t20 29t19 31.5t22 39.5t23 41.5l141 252q31 51 80 137l416 733q12 21 20 33.5t25 26.5t35 14q22 0 32 -18.5t15 -57.5l151 -862q2 -10 60 -301q21 -116 49 -144q10 -9 27.5 -10.5 t53 1.5t56.5 3q35 0 35 -26q0 -5 -4 -13q-9 -18 -41 -18q-21 0 -57.5 3.5t-47.5 4.5q-43 6 -88 6q-57 0 -88 -2q-27 -3 -57 -6q-8 -1 -53 -6q-3 0 -11 -1t-12 -1q-17 1 -26 10t-9 17q0 11 11.5 20t25.5 12q6 1 22 0t39 -2.5t41 -1.5q27 0 39 4q39 13 39 68q0 36 -35 223 l-26 141q-3 30 -10 40.5t-27 9.5h-565q-14 0 -19.5 -1.5t-13 -9t-16.5 -24.5l-111 -197q-96 -179 -96 -205q0 -21 16.5 -35t50.5 -14q51 0 76 2q6 0 19 1t20 1q33 0 33 -26q0 -31 -49 -31q-3 0 -84 6q-11 1 -33.5 2t-34.5 2q-54 4 -80 4q-21 0 -67 -4t-66 -6q-40 -4 -63 -4 q-17 0 -27 9.5t-10 19.5zM463 596q2 -12 18 -12h529q30 0 30 22q0 2 -3 19.5t-3 19.5l-129 731l-430 -755q-12 -24 -12 -25zM848 1585q0 11 24 35l302 203q36 22 53 24q24 -2 24 -26q0 -21 -47 -45l-303 -197q-30 -12 -35 -12q-8 0 -13 5.5t-5 12.5z" />
<glyph unicode="&#xc2;" horiz-adv-x="1492" d="M-98 29q0 10 8.5 17t17.5 9q0 5 31 1.5t47 -3.5q31 0 45 6q13 4 24 10t22.5 18t19.5 21.5t20 29t19 31.5t22 39.5t23 41.5l141 252q31 51 80 137l416 733q12 21 20 33.5t25 26.5t35 14q22 0 32 -18.5t15 -57.5l151 -862q2 -10 60 -301q21 -116 49 -144q10 -9 27.5 -10.5 t53 1.5t56.5 3q35 0 35 -26q0 -5 -4 -13q-9 -18 -41 -18q-21 0 -57.5 3.5t-47.5 4.5q-43 6 -88 6q-57 0 -88 -2q-27 -3 -57 -6q-8 -1 -53 -6q-3 0 -11 -1t-12 -1q-17 1 -26 10t-9 17q0 11 11.5 20t25.5 12q6 1 22 0t39 -2.5t41 -1.5q27 0 39 4q39 13 39 68q0 36 -35 223 l-26 141q-3 30 -10 40.5t-27 9.5h-565q-14 0 -19.5 -1.5t-13 -9t-16.5 -24.5l-111 -197q-96 -179 -96 -205q0 -21 16.5 -35t50.5 -14q51 0 76 2q6 0 19 1t20 1q33 0 33 -26q0 -31 -49 -31q-3 0 -84 6q-11 1 -33.5 2t-34.5 2q-54 4 -80 4q-21 0 -67 -4t-66 -6q-40 -4 -63 -4 q-17 0 -27 9.5t-10 19.5zM463 596q2 -12 18 -12h529q30 0 30 22q0 2 -3 19.5t-3 19.5l-129 731l-430 -755q-12 -24 -12 -25zM614 1620q0 18 37 37l305 160q19 14 33 14q10 0 29 -16l237 -164q23 -14 21 -27q0 -5 -6.5 -13.5t-18.5 -8.5q-6 0 -26 10l-240 162l-313 -158 q-30 -12 -43 -12q-18 0 -15 16z" />
<glyph unicode="&#xc3;" horiz-adv-x="1492" d="M-98 29q0 10 8.5 17t17.5 9q0 5 31 1.5t47 -3.5q31 0 45 6q13 4 24 10t22.5 18t19.5 21.5t20 29t19 31.5t22 39.5t23 41.5l141 252q31 51 80 137l416 733q12 21 20 33.5t25 26.5t35 14q22 0 32 -18.5t15 -57.5l151 -862q2 -10 60 -301q21 -116 49 -144q10 -9 27.5 -10.5 t53 1.5t56.5 3q35 0 35 -26q0 -5 -4 -13q-9 -18 -41 -18q-21 0 -57.5 3.5t-47.5 4.5q-43 6 -88 6q-57 0 -88 -2q-27 -3 -57 -6q-8 -1 -53 -6q-3 0 -11 -1t-12 -1q-17 1 -26 10t-9 17q0 11 11.5 20t25.5 12q6 1 22 0t39 -2.5t41 -1.5q27 0 39 4q39 13 39 68q0 36 -35 223 l-26 141q-3 30 -10 40.5t-27 9.5h-565q-14 0 -19.5 -1.5t-13 -9t-16.5 -24.5l-111 -197q-96 -179 -96 -205q0 -21 16.5 -35t50.5 -14q51 0 76 2q6 0 19 1t20 1q33 0 33 -26q0 -31 -49 -31q-3 0 -84 6q-11 1 -33.5 2t-34.5 2q-54 4 -80 4q-21 0 -67 -4t-66 -6q-40 -4 -63 -4 q-17 0 -27 9.5t-10 19.5zM463 596q2 -12 18 -12h529q30 0 30 22q0 2 -3 19.5t-3 19.5l-129 731l-430 -755q-12 -24 -12 -25zM635 1655q0 9 24 33q86 71 172 71q49 0 141.5 -31.5t141.5 -31.5q72 0 115 37q9 6 18 15t14.5 12t14.5 3q10 0 10 -12q0 -7 -2.5 -12t-8.5 -10.5 t-9 -8t-13 -8t-12 -6.5q-6 -4 -17.5 -12.5t-17.5 -12.5q-63 -47 -137 -47q-23 0 -49.5 6t-44.5 12t-47.5 17.5t-42.5 16.5q-57 22 -99 22q-60 0 -120 -51q-10 -12 -21 -12q-10 0 -10 10z" />
<glyph unicode="&#xc4;" horiz-adv-x="1492" d="M-98 29q0 10 8.5 17t17.5 9q0 5 31 1.5t47 -3.5q31 0 45 6q13 4 24 10t22.5 18t19.5 21.5t20 29t19 31.5t22 39.5t23 41.5l141 252q31 51 80 137l416 733q12 21 20 33.5t25 26.5t35 14q22 0 32 -18.5t15 -57.5l151 -862q2 -10 60 -301q21 -116 49 -144q10 -9 27.5 -10.5 t53 1.5t56.5 3q35 0 35 -26q0 -5 -4 -13q-9 -18 -41 -18q-21 0 -57.5 3.5t-47.5 4.5q-43 6 -88 6q-57 0 -88 -2q-27 -3 -57 -6q-8 -1 -53 -6q-3 0 -11 -1t-12 -1q-17 1 -26 10t-9 17q0 11 11.5 20t25.5 12q6 1 22 0t39 -2.5t41 -1.5q27 0 39 4q39 13 39 68q0 36 -35 223 l-26 141q-3 30 -10 40.5t-27 9.5h-565q-14 0 -19.5 -1.5t-13 -9t-16.5 -24.5l-111 -197q-96 -179 -96 -205q0 -21 16.5 -35t50.5 -14q51 0 76 2q6 0 19 1t20 1q33 0 33 -26q0 -31 -49 -31q-3 0 -84 6q-11 1 -33.5 2t-34.5 2q-54 4 -80 4q-21 0 -67 -4t-66 -6q-40 -4 -63 -4 q-17 0 -27 9.5t-10 19.5zM463 596q2 -12 18 -12h529q30 0 30 22q0 2 -3 19.5t-3 19.5l-129 731l-430 -755q-12 -24 -12 -25zM698 1681q0 35 26.5 66t63.5 31q24 0 41.5 -16.5t20.5 -41.5q3 -39 -24 -71.5t-66 -32.5q-26 0 -44 18.5t-18 46.5zM1049 1683q0 36 26.5 65.5 t63.5 29.5q25 0 41 -18t18 -44q3 -20 -4 -41q-9 -26 -32 -44.5t-48 -18.5q-30 1 -47.5 20.5t-17.5 50.5z" />
<glyph unicode="&#xc5;" horiz-adv-x="1492" d="M-98 29q0 10 8.5 17t17.5 9q0 5 31 1.5t47 -3.5q31 0 45 6q13 4 24 10t22.5 18t19.5 21.5t20 29t19 31.5t22 39.5t23 41.5l141 252q31 51 80 137l416 733q12 21 20 33.5t25 26.5t35 14q22 0 32 -18.5t15 -57.5l151 -862q2 -10 60 -301q21 -116 49 -144q10 -9 27.5 -10.5 t53 1.5t56.5 3q35 0 35 -26q0 -5 -4 -13q-9 -18 -41 -18q-21 0 -57.5 3.5t-47.5 4.5q-43 6 -88 6q-57 0 -88 -2q-27 -3 -57 -6q-8 -1 -53 -6q-3 0 -11 -1t-12 -1q-17 1 -26 10t-9 17q0 11 11.5 20t25.5 12q6 1 22 0t39 -2.5t41 -1.5q27 0 39 4q39 13 39 68q0 36 -35 223 l-26 141q-3 30 -10 40.5t-27 9.5h-565q-14 0 -19.5 -1.5t-13 -9t-16.5 -24.5l-111 -197q-96 -179 -96 -205q0 -21 16.5 -35t50.5 -14q51 0 76 2q6 0 19 1t20 1q33 0 33 -26q0 -31 -49 -31q-3 0 -84 6q-11 1 -33.5 2t-34.5 2q-54 4 -80 4q-21 0 -67 -4t-66 -6q-40 -4 -63 -4 q-17 0 -27 9.5t-10 19.5zM463 596q2 -12 18 -12h529q30 0 30 22q0 2 -3 19.5t-3 19.5l-129 731l-430 -755q-12 -24 -12 -25zM774 1745q0 72 52 123t124 51q73 -2 124.5 -51.5t51.5 -122.5q0 -74 -51.5 -126t-124.5 -52q-39 0 -78 18q-56 27 -77 73t-21 87zM827 1745 q0 -54 36 -93t89 -38q53 0 87 38t34 91t-34.5 91t-88.5 38q-52 0 -87.5 -37.5t-35.5 -89.5z" />
<glyph unicode="&#xc6;" horiz-adv-x="2390" d="M-96 25q0 11 13 19.5t28 10.5q6 5 34.5 1.5t47.5 -3.5q39 0 57.5 10.5t65.5 55.5q62 62 188 194q46 50 70 74q23 25 69 74t70 74l471 509q13 14 135.5 146.5t187.5 200.5q33 36 47 45.5t42 9.5q9 0 26 -1t25 -1q12 -1 35.5 -2t35.5 -2h258q93 0 273 4q78 0 115 2h92 q61 0 61 -41q0 -12 -31 -143q-22 -92 -43 -230q-1 -10 -2.5 -28t-3.5 -32.5t-6 -27.5q-11 -39 -37 -39q-24 0 -24 33q0 12 2 20q3 14 10 43t10 43q49 218 49 269q0 64 -57 73q-61 7 -229 7h-213q-107 0 -162 -4q-43 -2 -62 -6.5t-32 -18.5q-8 -8 -13.5 -17t-10.5 -24.5 t-7 -25.5t-7.5 -35.5t-8.5 -38.5l-82 -416v-5v-4.5t0.5 -5t1 -5.5t1.5 -4.5t3 -5t4.5 -4t6 -4t8 -2.5t9.5 -1h310h9h13t14.5 0.5t17.5 3t18 6t19.5 9.5t18.5 14q29 26 42 67t19.5 98t14.5 85q8 38 33 38q10 0 14 -4q10 -7 10 -26q0 -15 -3.5 -29.5t-13 -43.5t-15.5 -48 q-14 -46 -27 -100q-22 -104 -27 -144q-12 -73 -18 -151q-2 -18 -4 -44.5t-3.5 -39.5t-6.5 -25l-2 -5q-2 -5 -4.5 -10t-6 -10t-9.5 -8.5t-13 -3.5q-10 0 -17.5 7.5t-7.5 21.5q0 20 19 88q22 77 22 123q0 30 -14 53q-14 20 -42 25.5t-85 5.5h-250q-48 0 -61 -8 q-18 -11 -27 -52l-35 -178l-43 -233q-22 -126 -22 -142q0 -23 18 -34.5t36 -11.5l19 -1h508q126 0 166 7q72 14 96 55q31 50 76 332q5 28 9 43t13 28t23 13q27 0 27 -33q0 -9 -2 -17q-2 -10 -7.5 -27t-7.5 -24q-11 -45 -12 -51q-21 -83 -43 -213q-8 -47 -14 -74 q0 -10 -7.5 -33t-23.5 -38q-15 -15 -34 -21t-58 -6q-24 0 -50 1t-58 2.5t-50 2.5q-57 2 -174 2q-98 4 -145 4q-55 0 -163 1t-163 1q-100 0 -149 -6q-9 -1 -42 -4.5t-53 -3.5q-8 0 -20 4q-19 10 -19 25q0 5 7 12q14 16 51 16q12 0 37 -3t39 -3q36 0 65 23q8 7 14.5 14t12 18 t8.5 18.5t7.5 25t6 25.5t6.5 32.5t7 34.5q22 101 45 217l43 217q0 2 1.5 13.5t0.5 17.5q-2 12 -47 12h-416q-25 0 -39 -4q-20 -5 -57 -45l-496 -531l-37 -37q-16 -16 -16 -28q0 -21 37 -21q69 0 104 2q8 0 24 2t23 2q20 0 30.5 -9t10.5 -21t-11.5 -20.5t-31.5 -8.5 q-27 0 -39 2q-15 1 -43.5 4t-42.5 4q-74 4 -110 4q-53 0 -80 -2q-72 -8 -103 -10q-10 -2 -30 -2q-17 0 -26 8t-9 17zM852 776q0 -6 8 -8q19 -7 43 -2h352q55 -4 64 8q4 4 16 51l101 516q4 22 2 37q-3 11 -15 11q-7 -1 -19 -12t-18 -19l-512 -551q-22 -22 -22 -31z" />
<glyph unicode="&#xc7;" horiz-adv-x="1366" d="M147 565q0 133 39 275q34 128 94 239t145.5 200.5t203.5 141.5t254 52q25 0 51.5 -2t75.5 -13.5t89.5 -31.5t84 -61t69.5 -97q22 -49 33 -113q4 28 12 104.5t15 118.5q10 70 43 70q26 0 26 -39q-2 -30 -30 -125q-21 -82 -41 -188q-10 -53 -15 -90q-6 -39 -10 -117 q-5 -60 -39 -60q-28 0 -28 33q0 4 12 74q18 63 18 145q0 151 -100 244q-51 49 -127 73.5t-154 24.5q-269 0 -452 -247q-92 -123 -148.5 -293.5t-56.5 -325.5q0 -103 29 -197q13 -42 30 -80t54 -87t83.5 -84t122.5 -59.5t168 -24.5q220 0 359 139q44 46 78 110.5t46.5 102.5 t18.5 69q3 17 5.5 25.5t7.5 22t13.5 19.5t20.5 5q31 0 31 -39q0 -13 -12 -55q-27 -106 -84 -195q-102 -159 -269 -219q-102 -35 -221 -35q-223 0 -360 119q-33 28 -63 67.5t-59 97t-46 137t-17 169.5zM412 -297q0 15 8.5 22t17.5 7t35 -29q17 -19 29 -29q43 -28 110 -28 q95 0 150 57q29 29 29 66q0 42 -36.5 59.5t-82.5 17.5q-40 0 -82 -12q-8 -2 -17.5 -5.5t-14.5 -5.5t-10.5 -3t-10.5 0q-23 0 -23 20q0 15 16 31l95 141l49 -4l-84 -131q84 12 106 12q31 0 56 -6q42 -10 70 -39t28 -71q0 -28 -19 -62q-31 -55 -95 -81.5t-134 -26.5 q-103 0 -162 51q-28 28 -28 49z" />
<glyph unicode="&#xc8;" horiz-adv-x="1409" d="M-29 29q0 6 6 12q14 16 52 16q12 0 36.5 -3t38.5 -3q75 0 101 80q16 52 69 328l103 530q16 71 33 164q11 78 20 127q6 18 6 47q0 17 -3.5 30t-12.5 20t-14 11t-19 5.5t-16 1.5h-15q-15 0 -45.5 -3t-48.5 -3q-19 0 -29 4q-14 7 -14 22q2 13 18 22.5t39 8.5q22 0 54 -4 q45 -5 53 -6q47 -2 145 -2q56 0 119.5 1t141.5 2.5t120 2.5q45 1 136.5 2t136.5 2q51 2 155 2q24 0 33.5 -13t9.5 -28q0 -1 -18 -80q-5 -24 -15.5 -71.5t-15.5 -71.5l-24 -142q-1 -9 -3.5 -27.5t-4 -28.5t-4.5 -25t-6.5 -23t-8 -16.5t-11 -11.5t-14.5 -3q-24 0 -24 29 q0 25 22 110q54 218 54 265q0 20 -4.5 34t-9 21t-16 12t-17 6t-21.5 4q-54 7 -172 7h-399q-65 2 -95 -5.5t-49 -33.5q-20 -26 -37 -115q-3 -17 -10 -50.5t-10 -51.5l-53 -277q-6 -6 -6 -39q0 -13 6 -22q11 -13 88 -13h260q42 2 67.5 10t49.5 33q16 19 26 45.5t12.5 41 t6.5 51.5q8 59 14 90q0 4 3 14t12.5 22.5t23.5 12.5q24 0 24 -31q0 -10 -1.5 -18.5t-4 -15t-7.5 -20.5t-9 -26q-20 -66 -39 -145q-7 -29 -12 -50.5t-9 -50t-6.5 -47t-8 -68l-9.5 -85.5q0 -2 -4 -34t-8 -48q-1 -5 -2.5 -13.5t-11.5 -22t-25 -13.5q-23 2 -23 28q0 23 15 78 q26 102 26 129q0 51 -28 70q-24 16 -123 16h-267q-34 -2 -47.5 -14t-21.5 -59l-37 -191q-25 -122 -29 -147q-3 -18 -8 -53t-8 -52q-4 -20 -10 -44t-9.5 -38.5t-3.5 -23.5q0 -11 6 -29q11 -27 74 -27h53q13 0 37 -1t37 -1h322q106 0 159 2q86 0 127 29q32 20 56 80 q38 147 57 274q7 48 17 70.5t34 22.5q21 0 21 -29q0 -15 -8 -42t-9 -30q-3 -10 -8 -30t-8 -29q-42 -192 -47 -221q-10 -70 -14 -86q-10 -34 -37 -52t-84 -18q-20 0 -62.5 2t-64.5 2q-50 1 -148 4t-145 4q-123 2 -369 2q-102 0 -153 -4q-13 -1 -48 -5.5t-57 -4.5q-10 0 -20 4 t-14.5 12t-2.5 13zM618 1817q0 10 10 18t21 8q9 0 19.5 -5.5t17.5 -11.5l8 -5l250 -205q17 -13 17 -27q0 -8 -6.5 -15t-18.5 -7t-31 14l-256 195q-31 16 -31 41z" />
<glyph unicode="&#xc9;" horiz-adv-x="1409" d="M-29 29q0 6 6 12q14 16 52 16q12 0 36.5 -3t38.5 -3q75 0 101 80q16 52 69 328l103 530q16 71 33 164q11 78 20 127q6 18 6 47q0 17 -3.5 30t-12.5 20t-14 11t-19 5.5t-16 1.5h-15q-15 0 -45.5 -3t-48.5 -3q-19 0 -29 4q-14 7 -14 22q2 13 18 22.5t39 8.5q22 0 54 -4 q45 -5 53 -6q47 -2 145 -2q56 0 119.5 1t141.5 2.5t120 2.5q45 1 136.5 2t136.5 2q51 2 155 2q24 0 33.5 -13t9.5 -28q0 -1 -18 -80q-5 -24 -15.5 -71.5t-15.5 -71.5l-24 -142q-1 -9 -3.5 -27.5t-4 -28.5t-4.5 -25t-6.5 -23t-8 -16.5t-11 -11.5t-14.5 -3q-24 0 -24 29 q0 25 22 110q54 218 54 265q0 20 -4.5 34t-9 21t-16 12t-17 6t-21.5 4q-54 7 -172 7h-399q-65 2 -95 -5.5t-49 -33.5q-20 -26 -37 -115q-3 -17 -10 -50.5t-10 -51.5l-53 -277q-6 -6 -6 -39q0 -13 6 -22q11 -13 88 -13h260q42 2 67.5 10t49.5 33q16 19 26 45.5t12.5 41 t6.5 51.5q8 59 14 90q0 4 3 14t12.5 22.5t23.5 12.5q24 0 24 -31q0 -10 -1.5 -18.5t-4 -15t-7.5 -20.5t-9 -26q-20 -66 -39 -145q-7 -29 -12 -50.5t-9 -50t-6.5 -47t-8 -68l-9.5 -85.5q0 -2 -4 -34t-8 -48q-1 -5 -2.5 -13.5t-11.5 -22t-25 -13.5q-23 2 -23 28q0 23 15 78 q26 102 26 129q0 51 -28 70q-24 16 -123 16h-267q-34 -2 -47.5 -14t-21.5 -59l-37 -191q-25 -122 -29 -147q-3 -18 -8 -53t-8 -52q-4 -20 -10 -44t-9.5 -38.5t-3.5 -23.5q0 -11 6 -29q11 -27 74 -27h53q13 0 37 -1t37 -1h322q106 0 159 2q86 0 127 29q32 20 56 80 q38 147 57 274q7 48 17 70.5t34 22.5q21 0 21 -29q0 -15 -8 -42t-9 -30q-3 -10 -8 -30t-8 -29q-42 -192 -47 -221q-10 -70 -14 -86q-10 -34 -37 -52t-84 -18q-20 0 -62.5 2t-64.5 2q-50 1 -148 4t-145 4q-123 2 -369 2q-102 0 -153 -4q-13 -1 -48 -5.5t-57 -4.5q-10 0 -20 4 t-14.5 12t-2.5 13zM805 1585q0 13 26 35l299 203q35 22 54 24q24 -2 24 -26q0 -21 -47 -45l-303 -197q-24 -12 -35 -12q-7 0 -12.5 5.5t-5.5 12.5z" />
<glyph unicode="&#xca;" horiz-adv-x="1409" d="M-29 29q0 6 6 12q14 16 52 16q12 0 36.5 -3t38.5 -3q75 0 101 80q16 52 69 328l103 530q16 71 33 164q11 78 20 127q6 18 6 47q0 17 -3.5 30t-12.5 20t-14 11t-19 5.5t-16 1.5h-15q-15 0 -45.5 -3t-48.5 -3q-19 0 -29 4q-14 7 -14 22q2 13 18 22.5t39 8.5q22 0 54 -4 q45 -5 53 -6q47 -2 145 -2q56 0 119.5 1t141.5 2.5t120 2.5q45 1 136.5 2t136.5 2q51 2 155 2q24 0 33.5 -13t9.5 -28q0 -1 -18 -80q-5 -24 -15.5 -71.5t-15.5 -71.5l-24 -142q-1 -9 -3.5 -27.5t-4 -28.5t-4.5 -25t-6.5 -23t-8 -16.5t-11 -11.5t-14.5 -3q-24 0 -24 29 q0 25 22 110q54 218 54 265q0 20 -4.5 34t-9 21t-16 12t-17 6t-21.5 4q-54 7 -172 7h-399q-65 2 -95 -5.5t-49 -33.5q-20 -26 -37 -115q-3 -17 -10 -50.5t-10 -51.5l-53 -277q-6 -6 -6 -39q0 -13 6 -22q11 -13 88 -13h260q42 2 67.5 10t49.5 33q16 19 26 45.5t12.5 41 t6.5 51.5q8 59 14 90q0 4 3 14t12.5 22.5t23.5 12.5q24 0 24 -31q0 -10 -1.5 -18.5t-4 -15t-7.5 -20.5t-9 -26q-20 -66 -39 -145q-7 -29 -12 -50.5t-9 -50t-6.5 -47t-8 -68l-9.5 -85.5q0 -2 -4 -34t-8 -48q-1 -5 -2.5 -13.5t-11.5 -22t-25 -13.5q-23 2 -23 28q0 23 15 78 q26 102 26 129q0 51 -28 70q-24 16 -123 16h-267q-34 -2 -47.5 -14t-21.5 -59l-37 -191q-25 -122 -29 -147q-3 -18 -8 -53t-8 -52q-4 -20 -10 -44t-9.5 -38.5t-3.5 -23.5q0 -11 6 -29q11 -27 74 -27h53q13 0 37 -1t37 -1h322q106 0 159 2q86 0 127 29q32 20 56 80 q38 147 57 274q7 48 17 70.5t34 22.5q21 0 21 -29q0 -15 -8 -42t-9 -30q-3 -10 -8 -30t-8 -29q-42 -192 -47 -221q-10 -70 -14 -86q-10 -34 -37 -52t-84 -18q-20 0 -62.5 2t-64.5 2q-50 1 -148 4t-145 4q-123 2 -369 2q-102 0 -153 -4q-13 -1 -48 -5.5t-57 -4.5q-10 0 -20 4 t-14.5 12t-2.5 13zM571 1620q0 18 37 37l307 160q17 14 31 14q10 0 29 -16l237 -164q23 -14 21 -27q0 -5 -6.5 -13.5t-18.5 -8.5q-6 0 -26 10l-240 162l-313 -158q-30 -12 -43 -12q-18 0 -15 16z" />
<glyph unicode="&#xcb;" horiz-adv-x="1409" d="M-29 29q0 6 6 12q14 16 52 16q12 0 36.5 -3t38.5 -3q75 0 101 80q16 52 69 328l103 530q16 71 33 164q11 78 20 127q6 18 6 47q0 17 -3.5 30t-12.5 20t-14 11t-19 5.5t-16 1.5h-15q-15 0 -45.5 -3t-48.5 -3q-19 0 -29 4q-14 7 -14 22q2 13 18 22.5t39 8.5q22 0 54 -4 q45 -5 53 -6q47 -2 145 -2q56 0 119.5 1t141.5 2.5t120 2.5q45 1 136.5 2t136.5 2q51 2 155 2q24 0 33.5 -13t9.5 -28q0 -1 -18 -80q-5 -24 -15.5 -71.5t-15.5 -71.5l-24 -142q-1 -9 -3.5 -27.5t-4 -28.5t-4.5 -25t-6.5 -23t-8 -16.5t-11 -11.5t-14.5 -3q-24 0 -24 29 q0 25 22 110q54 218 54 265q0 20 -4.5 34t-9 21t-16 12t-17 6t-21.5 4q-54 7 -172 7h-399q-65 2 -95 -5.5t-49 -33.5q-20 -26 -37 -115q-3 -17 -10 -50.5t-10 -51.5l-53 -277q-6 -6 -6 -39q0 -13 6 -22q11 -13 88 -13h260q42 2 67.5 10t49.5 33q16 19 26 45.5t12.5 41 t6.5 51.5q8 59 14 90q0 4 3 14t12.5 22.5t23.5 12.5q24 0 24 -31q0 -10 -1.5 -18.5t-4 -15t-7.5 -20.5t-9 -26q-20 -66 -39 -145q-7 -29 -12 -50.5t-9 -50t-6.5 -47t-8 -68l-9.5 -85.5q0 -2 -4 -34t-8 -48q-1 -5 -2.5 -13.5t-11.5 -22t-25 -13.5q-23 2 -23 28q0 23 15 78 q26 102 26 129q0 51 -28 70q-24 16 -123 16h-267q-34 -2 -47.5 -14t-21.5 -59l-37 -191q-25 -122 -29 -147q-3 -18 -8 -53t-8 -52q-4 -20 -10 -44t-9.5 -38.5t-3.5 -23.5q0 -11 6 -29q11 -27 74 -27h53q13 0 37 -1t37 -1h322q106 0 159 2q86 0 127 29q32 20 56 80 q38 147 57 274q7 48 17 70.5t34 22.5q21 0 21 -29q0 -15 -8 -42t-9 -30q-3 -10 -8 -30t-8 -29q-42 -192 -47 -221q-10 -70 -14 -86q-10 -34 -37 -52t-84 -18q-20 0 -62.5 2t-64.5 2q-50 1 -148 4t-145 4q-123 2 -369 2q-102 0 -153 -4q-13 -1 -48 -5.5t-57 -4.5q-10 0 -20 4 t-14.5 12t-2.5 13zM655 1683q0 35 26.5 65t63.5 30q24 0 41.5 -16.5t20.5 -41.5q5 -39 -22.5 -71.5t-65.5 -32.5q-29 0 -46.5 19.5t-17.5 47.5zM1006 1683q0 36 26.5 65.5t63.5 29.5q25 0 41.5 -18t19.5 -44q3 -37 -23 -70.5t-63 -33.5q-30 1 -47.5 20.5t-17.5 50.5z" />
<glyph unicode="&#xcc;" horiz-adv-x="641" d="M-29 27l6 12q16 18 54 18q13 0 37 -3t36 -3q71 0 97 66q20 48 32 137q6 27 43 205l103 528q4 24 9.5 50.5t12 58.5t9.5 49q4 20 11 64t11 67q6 34 6 51q0 25 -10 41q-14 27 -68 27q-16 0 -45 -3t-45 -3q-24 0 -34 4q-15 7 -15 22q0 13 16.5 22t41.5 9q18 0 48.5 -3.5 t41.5 -4.5q43 -4 127 -4q73 0 110 4l45 4.5t56 3.5q15 0 22 -4q1 0 5 -3t7.5 -9t3.5 -11q-1 -13 -17.5 -21.5t-41.5 -8.5q-12 0 -37 3t-39 3q-74 0 -100 -80q-21 -66 -70 -328l-104 -528q-17 -83 -33 -178q-6 -39 -18 -113q-6 -18 -6 -47q0 -23 8 -39q14 -31 69 -31 q15 0 45.5 3t47.5 3q11 0 16 -0.5t14 -2.5t13 -7.5t4 -15.5q-2 -13 -18 -22t-40 -9q-18 0 -48.5 3.5t-41.5 4.5q-62 6 -127 6q-63 0 -125 -6q-9 -1 -38.5 -4.5t-47.5 -3.5q-10 0 -22 4q-17 8 -17 23zM233 1817q1 10 11.5 18t21.5 8q8 0 19 -5.5t17 -11.5l7 -5l250 -205 q1 0 5 -3.5t7.5 -10.5t3.5 -13q0 -22 -22 -22q-12 0 -31 14l-258 195l-4 2q-4 3 -8 6.5t-8.5 8.5t-7.5 11.5t-3 12.5z" />
<glyph unicode="&#xcd;" horiz-adv-x="641" d="M-29 27l6 12q16 18 54 18q13 0 37 -3t36 -3q71 0 97 66q20 48 32 137q6 27 43 205l103 528q4 24 9.5 50.5t12 58.5t9.5 49q4 20 11 64t11 67q6 34 6 51q0 25 -10 41q-14 27 -68 27q-16 0 -45 -3t-45 -3q-24 0 -34 4q-15 7 -15 22q0 13 16.5 22t41.5 9q18 0 48.5 -3.5 t41.5 -4.5q43 -4 127 -4q73 0 110 4l45 4.5t56 3.5q15 0 22 -4q1 0 5 -3t7.5 -9t3.5 -11q-1 -13 -17.5 -21.5t-41.5 -8.5q-12 0 -37 3t-39 3q-74 0 -100 -80q-21 -66 -70 -328l-104 -528q-17 -83 -33 -178q-6 -39 -18 -113q-6 -18 -6 -47q0 -23 8 -39q14 -31 69 -31 q15 0 45.5 3t47.5 3q11 0 16 -0.5t14 -2.5t13 -7.5t4 -15.5q-2 -13 -18 -22t-40 -9q-18 0 -48.5 3.5t-41.5 4.5q-62 6 -127 6q-63 0 -125 -6q-9 -1 -38.5 -4.5t-47.5 -3.5q-10 0 -22 4q-17 8 -17 23zM420 1585q2 11 26 35l302 203q36 22 53 24q12 -1 18 -9.5t6 -16.5 q-3 -23 -49 -45l-303 -197q-24 -12 -33 -12q-20 0 -20 18z" />
<glyph unicode="&#xce;" horiz-adv-x="641" d="M-29 27l6 12q16 18 54 18q13 0 37 -3t36 -3q71 0 97 66q20 48 32 137q6 27 43 205l103 528q4 24 9.5 50.5t12 58.5t9.5 49q4 20 11 64t11 67q6 34 6 51q0 25 -10 41q-14 27 -68 27q-16 0 -45 -3t-45 -3q-24 0 -34 4q-15 7 -15 22q0 13 16.5 22t41.5 9q18 0 48.5 -3.5 t41.5 -4.5q43 -4 127 -4q73 0 110 4l45 4.5t56 3.5q15 0 22 -4q1 0 5 -3t7.5 -9t3.5 -11q-1 -13 -17.5 -21.5t-41.5 -8.5q-12 0 -37 3t-39 3q-74 0 -100 -80q-21 -66 -70 -328l-104 -528q-17 -83 -33 -178q-6 -39 -18 -113q-6 -18 -6 -47q0 -23 8 -39q14 -31 69 -31 q15 0 45.5 3t47.5 3q11 0 16 -0.5t14 -2.5t13 -7.5t4 -15.5q-2 -13 -18 -22t-40 -9q-18 0 -48.5 3.5t-41.5 4.5q-62 6 -127 6q-63 0 -125 -6q-9 -1 -38.5 -4.5t-47.5 -3.5q-10 0 -22 4q-17 8 -17 23zM186 1620q0 18 37 37l307 160q19 14 33 14q10 0 29 -16l237 -164 q21 -13 21 -27q0 -5 -6.5 -13.5t-18.5 -8.5q-8 0 -28 10l-238 162l-315 -158q-24 -12 -41 -12t-17 16z" />
<glyph unicode="&#xcf;" horiz-adv-x="641" d="M-29 27l6 12q16 18 54 18q13 0 37 -3t36 -3q71 0 97 66q20 48 32 137q6 27 43 205l103 528q4 24 9.5 50.5t12 58.5t9.5 49q4 20 11 64t11 67q6 34 6 51q0 25 -10 41q-14 27 -68 27q-16 0 -45 -3t-45 -3q-24 0 -34 4q-15 7 -15 22q0 13 16.5 22t41.5 9q18 0 48.5 -3.5 t41.5 -4.5q43 -4 127 -4q73 0 110 4l45 4.5t56 3.5q15 0 22 -4q1 0 5 -3t7.5 -9t3.5 -11q-1 -13 -17.5 -21.5t-41.5 -8.5q-12 0 -37 3t-39 3q-74 0 -100 -80q-21 -66 -70 -328l-104 -528q-17 -83 -33 -178q-6 -39 -18 -113q-6 -18 -6 -47q0 -23 8 -39q14 -31 69 -31 q15 0 45.5 3t47.5 3q11 0 16 -0.5t14 -2.5t13 -7.5t4 -15.5q-2 -13 -18 -22t-40 -9q-18 0 -48.5 3.5t-41.5 4.5q-62 6 -127 6q-63 0 -125 -6q-9 -1 -38.5 -4.5t-47.5 -3.5q-10 0 -22 4q-17 8 -17 23zM272 1683q0 35 26 65t62 30q25 0 43 -16.5t21 -41.5q5 -38 -23.5 -71 t-66.5 -33q-27 0 -44.5 19.5t-17.5 47.5zM623 1683q0 36 26.5 65.5t63.5 29.5q25 0 41 -18t18 -44q5 -37 -21 -70.5t-63 -33.5q-32 1 -48.5 20.5t-16.5 50.5z" />
<glyph unicode="&#xd1;" horiz-adv-x="1536" d="M-29 29q0 3 6 12q16 16 52 16q12 0 36.5 -3t38.5 -3q32 0 58 17q19 13 31.5 36t16 38t9.5 46q2 9 9 35t10 41q30 155 38 195l103 530q34 179 41 223l18 115q0 8 -3 21t-3 14q-16 33 -72 33q-15 0 -45 -3t-47 -3q-47 0 -47 26q0 14 16 22.5t42 8.5q12 0 25.5 -1t30.5 -2.5 t27 -2.5q74 -4 113 -4q13 0 29.5 1.5t24.5 2.5t17 -2t15 -11q9 -12 43 -98q3 -8 14 -36.5t17 -45.5q27 -69 77 -194.5t66 -165.5l340 -842l182 944q29 143 43 232q17 100 17 106q0 23 -6 35q-9 21 -28.5 27t-63.5 6q-20 0 -54.5 -2t-55.5 -2t-30 4q-10 7 -10 20t15.5 22.5 t39.5 8.5q20 0 56 -4q32 -4 49 -4q47 -4 143 -4q84 0 125 4q58 8 86 8q18 0 23 -4q16 -8 16 -23q-2 -10 -8 -16q-16 -14 -49 -14q-14 0 -39 3t-39 3q-72 0 -100 -74q-15 -41 -33 -141q-5 -27 -18.5 -92t-20.5 -101l-152 -776q-3 -16 -9 -47t-9 -47q-7 -31 -17 -74 q-5 -20 -9 -30.5t-15.5 -20.5t-28.5 -10q-18 0 -28 10q-19 17 -60 114l-516 1283l-180 -930q-35 -195 -41 -234q-17 -100 -17 -104q0 -15 7 -33q9 -22 27 -28.5t65 -6.5q19 0 55 2t57 2q37 0 37 -24q0 -14 -15 -23.5t-40 -9.5q-19 0 -51.5 3.5t-44.5 4.5q-77 6 -152 6 q-65 0 -129 -6q-54 -8 -82 -8q-12 0 -20 4q-19 8 -19 25zM655 1655q0 4 3 9.5t6 8.5t9 8.5t7 6.5q86 71 174 71q48 0 141 -31.5t142 -31.5q69 0 114 37q8 6 16.5 15t14 12t14.5 3q11 0 11 -12q1 -8 -4 -15.5t-9.5 -11t-15.5 -10t-14 -8.5q-23 -15 -35 -25q-71 -47 -139 -47 q-28 0 -56.5 7t-74 24.5t-54.5 20.5q-57 22 -98 22q-68 0 -119 -51q-12 -12 -22 -12q-11 0 -11 10z" />
<glyph unicode="&#xd2;" horiz-adv-x="1449" d="M150 555q0 136 30.5 262.5t78.5 219.5t93.5 156t89.5 105q28 27 63 52.5t90 55.5t129.5 48.5t154.5 18.5q111 0 200 -37q62 -26 111.5 -67.5t80 -84t52.5 -97.5t32.5 -95.5t16 -91t6 -70.5t0.5 -47q0 -148 -35 -285q-34 -133 -110 -268q-205 -355 -569 -355 q-128 0 -226 45q-54 24 -101.5 64t-91.5 102t-70 157.5t-25 211.5zM213 553q0 -238 111 -377q37 -46 106 -92q101 -59 240 -59q222 0 379 157q53 52 97 120.5t71 134t41 106.5t22 73q35 125 35 271q0 297 -158 436q-109 98 -280 98q-181 0 -314 -96q-109 -76 -190.5 -210.5 t-120.5 -280t-39 -281.5zM639 1817q1 10 11.5 18t21.5 8q8 0 18 -5.5t18 -11.5l7 -5l250 -205q1 0 5 -3.5t7.5 -10.5t3.5 -13q0 -8 -5.5 -15t-17.5 -7q-11 0 -30 14l-258 195q-31 16 -31 41z" />
<glyph unicode="&#xd3;" horiz-adv-x="1449" d="M150 555q0 136 30.5 262.5t78.5 219.5t93.5 156t89.5 105q28 27 63 52.5t90 55.5t129.5 48.5t154.5 18.5q111 0 200 -37q62 -26 111.5 -67.5t80 -84t52.5 -97.5t32.5 -95.5t16 -91t6 -70.5t0.5 -47q0 -148 -35 -285q-34 -133 -110 -268q-205 -355 -569 -355 q-128 0 -226 45q-54 24 -101.5 64t-91.5 102t-70 157.5t-25 211.5zM213 553q0 -238 111 -377q37 -46 106 -92q101 -59 240 -59q222 0 379 157q53 52 97 120.5t71 134t41 106.5t22 73q35 125 35 271q0 297 -158 436q-109 98 -280 98q-181 0 -314 -96q-109 -76 -190.5 -210.5 t-120.5 -280t-39 -281.5zM825 1585q1 5 4 10.5t6 8.5t9 8.5t8 7.5l301 203q31 22 51 24q13 -1 20 -9.5t7 -16.5q-3 -23 -49 -45l-303 -197q-24 -12 -33 -12t-15 5t-6 13z" />
<glyph unicode="&#xd4;" horiz-adv-x="1449" d="M150 555q0 136 30.5 262.5t78.5 219.5t93.5 156t89.5 105q28 27 63 52.5t90 55.5t129.5 48.5t154.5 18.5q111 0 200 -37q62 -26 111.5 -67.5t80 -84t52.5 -97.5t32.5 -95.5t16 -91t6 -70.5t0.5 -47q0 -148 -35 -285q-34 -133 -110 -268q-205 -355 -569 -355 q-128 0 -226 45q-54 24 -101.5 64t-91.5 102t-70 157.5t-25 211.5zM213 553q0 -238 111 -377q37 -46 106 -92q101 -59 240 -59q222 0 379 157q53 52 97 120.5t71 134t41 106.5t22 73q35 125 35 271q0 297 -158 436q-109 98 -280 98q-181 0 -314 -96q-109 -76 -190.5 -210.5 t-120.5 -280t-39 -281.5zM592 1620q0 18 37 37l307 160q19 14 33 14q9 0 28 -16l238 -164q20 -15 20 -27q0 -6 -6 -14t-18 -8q-9 0 -29 10l-237 162l-316 -158q-24 -12 -41 -12q-16 0 -16 16z" />
<glyph unicode="&#xd5;" horiz-adv-x="1449" d="M150 555q0 136 30.5 262.5t78.5 219.5t93.5 156t89.5 105q28 27 63 52.5t90 55.5t129.5 48.5t154.5 18.5q111 0 200 -37q62 -26 111.5 -67.5t80 -84t52.5 -97.5t32.5 -95.5t16 -91t6 -70.5t0.5 -47q0 -148 -35 -285q-34 -133 -110 -268q-205 -355 -569 -355 q-128 0 -226 45q-54 24 -101.5 64t-91.5 102t-70 157.5t-25 211.5zM213 553q0 -238 111 -377q37 -46 106 -92q101 -59 240 -59q222 0 379 157q53 52 97 120.5t71 134t41 106.5t22 73q35 125 35 271q0 297 -158 436q-109 98 -280 98q-181 0 -314 -96q-109 -76 -190.5 -210.5 t-120.5 -280t-39 -281.5zM612 1655q0 5 4.5 11.5t11.5 13t9 8.5q86 71 174 71q48 0 141 -31.5t142 -31.5q69 0 114 37q8 6 15 12.5t10.5 9.5t8.5 5.5t11 2.5q10 0 13 -12q0 -8 -5 -15.5t-10 -11t-16 -10t-14 -8.5q-23 -15 -35 -25q-70 -47 -139 -47q-28 0 -56.5 7t-74 24.5 t-54.5 20.5q-57 22 -96 22q-62 0 -121 -51q-12 -12 -22 -12q-11 0 -11 10z" />
<glyph unicode="&#xd6;" horiz-adv-x="1449" d="M150 555q0 136 30.5 262.5t78.5 219.5t93.5 156t89.5 105q28 27 63 52.5t90 55.5t129.5 48.5t154.5 18.5q111 0 200 -37q62 -26 111.5 -67.5t80 -84t52.5 -97.5t32.5 -95.5t16 -91t6 -70.5t0.5 -47q0 -148 -35 -285q-34 -133 -110 -268q-205 -355 -569 -355 q-128 0 -226 45q-54 24 -101.5 64t-91.5 102t-70 157.5t-25 211.5zM213 553q0 -238 111 -377q37 -46 106 -92q101 -59 240 -59q222 0 379 157q53 52 97 120.5t71 134t41 106.5t22 73q35 125 35 271q0 297 -158 436q-109 98 -280 98q-181 0 -314 -96q-109 -76 -190.5 -210.5 t-120.5 -280t-39 -281.5zM700 1681q0 35 27 66t64 31q24 0 41 -16.5t20 -41.5q5 -39 -22.5 -71.5t-67.5 -32.5q-26 0 -44 18.5t-18 46.5zM1051 1683q0 36 27 65.5t63 29.5q25 0 41.5 -18t19.5 -44q0 -23 -6 -41q-9 -26 -32 -44.5t-48 -18.5q-29 2 -47 21t-18 50z" />
<glyph unicode="&#xd7;" horiz-adv-x="1366" d="M289 147l446 449l-446 448l43 43l448 -448l447 448l43 -43l-447 -448l447 -449l-43 -45l-447 449l-448 -449z" />
<glyph unicode="&#xd8;" horiz-adv-x="1449" d="M137 -111l4 17q16 26 72 98l88 117q-26 30 -63 92q-86 158 -86 367q0 93 16 183t43 160.5t49.5 117t46.5 85.5q97 155 245.5 251t321.5 96q178 0 304 -95l61 84q5 7 20.5 29t24.5 35q21 30 41 30q11 0 22 -9.5t11 -22.5t-33 -54l-37 -49l-65 -84q54 -73 77 -120 q76 -141 76 -338q0 -134 -30.5 -260t-78.5 -217.5t-93.5 -154t-88.5 -102.5q-26 -25 -60 -49.5t-88 -54.5t-126 -48t-149 -18q-75 0 -150 20.5t-168 84.5l-90 -127q-8 -10 -19.5 -26.5t-19 -26.5t-16.5 -20.5t-17 -15.5t-16 -5q-12 0 -20.5 9t-8.5 21zM209 578 q0 -32 3.5 -68.5t14.5 -98t39.5 -126.5t71.5 -117q10 14 209 293q188 271 303 440q155 219 235 340q36 53 58 90q-97 92 -264 92q-174 0 -314 -98q-77 -53 -139 -129q-99 -122 -158 -291t-59 -327zM377 123q126 -98 289 -98q161 0 303 96q168 114 258 325t90 431 q0 24 -0.5 44.5t-7.5 75t-19.5 99t-39.5 99t-64 91.5q-14 -21 -44 -63t-44 -64q-21 -29 -57.5 -81t-49.5 -70q-337 -477 -381 -541q-136 -192 -233 -344z" />
<glyph unicode="&#xd9;" horiz-adv-x="1536" d="M199 1415q0 13 15.5 22.5t39.5 8.5q19 0 53 -3.5t45 -4.5q41 -4 123 -4q107 0 160 6q3 0 34.5 3t49.5 3q16 0 22 -2q8 -4 12.5 -12.5t4.5 -12.5q-3 -30 -58 -30q-14 0 -42 3t-42 3q-49 0 -76.5 -15t-45.5 -57q-12 -32 -78 -336l-88 -457q-33 -159 -33 -227 q0 -101 57 -164q99 -114 312 -114q143 0 267.5 58.5t188.5 174.5q22 41 37.5 92t38.5 154q6 23 37 178l59 307q28 135 43 232q17 100 17 106q0 19 -6 37q-9 19 -28 25t-63 6q-25 0 -64 -3t-54 -1q-29 3 -29 24q2 13 17.5 22.5t37.5 8.5q19 0 52.5 -3.5t44.5 -4.5 q51 -4 151 -4q82 0 125 4q58 8 84 8q18 0 22 -2q8 -4 12.5 -12.5t4.5 -12.5q0 -8 -8 -16q-14 -14 -49 -14q-12 0 -38 3t-38 3q-35 0 -62 -19q-9 -7 -15.5 -14t-12.5 -19l-9.5 -19t-8 -25.5t-6.5 -26.5t-7.5 -34t-7.5 -36q-7 -36 -22.5 -107.5t-22.5 -107.5l-58 -303 q-17 -86 -51 -240q-21 -98 -44.5 -161t-72.5 -121q-82 -97 -203.5 -142t-260.5 -45q-30 0 -61 3t-92 14.5t-118.5 43.5t-97.5 81q-62 78 -62 180q0 54 37 242l88 450l31 160q4 22 11.5 64t11.5 63q6 30 6 51t-10 41q-14 27 -68 27q-15 0 -44.5 -3t-47.5 -3q-11 0 -16 0.5 t-14 2.5t-13 7.5t-4 15.5zM682 1817q0 10 10.5 18t22.5 8q8 0 18 -5.5t17 -11.5l8 -5l250 -205q1 0 5 -3.5t7.5 -10.5t3.5 -13q0 -8 -5.5 -15t-17.5 -7q-11 0 -30 14l-258 195q-31 16 -31 41z" />
<glyph unicode="&#xda;" horiz-adv-x="1536" d="M199 1415q0 13 15.5 22.5t39.5 8.5q19 0 53 -3.5t45 -4.5q41 -4 123 -4q107 0 160 6q3 0 34.5 3t49.5 3q16 0 22 -2q8 -4 12.5 -12.5t4.5 -12.5q-3 -30 -58 -30q-14 0 -42 3t-42 3q-49 0 -76.5 -15t-45.5 -57q-12 -32 -78 -336l-88 -457q-33 -159 -33 -227 q0 -101 57 -164q99 -114 312 -114q143 0 267.5 58.5t188.5 174.5q22 41 37.5 92t38.5 154q6 23 37 178l59 307q28 135 43 232q17 100 17 106q0 19 -6 37q-9 19 -28 25t-63 6q-25 0 -64 -3t-54 -1q-29 3 -29 24q2 13 17.5 22.5t37.5 8.5q19 0 52.5 -3.5t44.5 -4.5 q51 -4 151 -4q82 0 125 4q58 8 84 8q18 0 22 -2q8 -4 12.5 -12.5t4.5 -12.5q0 -8 -8 -16q-14 -14 -49 -14q-12 0 -38 3t-38 3q-35 0 -62 -19q-9 -7 -15.5 -14t-12.5 -19l-9.5 -19t-8 -25.5t-6.5 -26.5t-7.5 -34t-7.5 -36q-7 -36 -22.5 -107.5t-22.5 -107.5l-58 -303 q-17 -86 -51 -240q-21 -98 -44.5 -161t-72.5 -121q-82 -97 -203.5 -142t-260.5 -45q-30 0 -61 3t-92 14.5t-118.5 43.5t-97.5 81q-62 78 -62 180q0 54 37 242l88 450l31 160q4 22 11.5 64t11.5 63q6 30 6 51t-10 41q-14 27 -68 27q-15 0 -44.5 -3t-47.5 -3q-11 0 -16 0.5 t-14 2.5t-13 7.5t-4 15.5zM868 1585q0 5 3 10t6.5 8.5t9.5 9t8 7.5l299 203q36 22 53 24q14 -1 20.5 -10t4.5 -16q0 -21 -47 -45l-303 -197q-24 -12 -33 -12t-15 5t-6 13z" />
<glyph unicode="&#xdb;" horiz-adv-x="1536" d="M199 1415q0 13 15.5 22.5t39.5 8.5q19 0 53 -3.5t45 -4.5q41 -4 123 -4q107 0 160 6q3 0 34.5 3t49.5 3q16 0 22 -2q8 -4 12.5 -12.5t4.5 -12.5q-3 -30 -58 -30q-14 0 -42 3t-42 3q-49 0 -76.5 -15t-45.5 -57q-12 -32 -78 -336l-88 -457q-33 -159 -33 -227 q0 -101 57 -164q99 -114 312 -114q143 0 267.5 58.5t188.5 174.5q22 41 37.5 92t38.5 154q6 23 37 178l59 307q28 135 43 232q17 100 17 106q0 19 -6 37q-9 19 -28 25t-63 6q-25 0 -64 -3t-54 -1q-29 3 -29 24q2 13 17.5 22.5t37.5 8.5q19 0 52.5 -3.5t44.5 -4.5 q51 -4 151 -4q82 0 125 4q58 8 84 8q18 0 22 -2q8 -4 12.5 -12.5t4.5 -12.5q0 -8 -8 -16q-14 -14 -49 -14q-12 0 -38 3t-38 3q-35 0 -62 -19q-9 -7 -15.5 -14t-12.5 -19l-9.5 -19t-8 -25.5t-6.5 -26.5t-7.5 -34t-7.5 -36q-7 -36 -22.5 -107.5t-22.5 -107.5l-58 -303 q-17 -86 -51 -240q-21 -98 -44.5 -161t-72.5 -121q-82 -97 -203.5 -142t-260.5 -45q-30 0 -61 3t-92 14.5t-118.5 43.5t-97.5 81q-62 78 -62 180q0 54 37 242l88 450l31 160q4 22 11.5 64t11.5 63q6 30 6 51t-10 41q-14 27 -68 27q-15 0 -44.5 -3t-47.5 -3q-11 0 -16 0.5 t-14 2.5t-13 7.5t-4 15.5zM635 1620q0 18 37 37l307 160q17 14 31 14q9 0 28 -16l240 -164q20 -15 18 -27q0 -6 -5 -14t-17 -8q-9 0 -29 10l-237 162l-316 -158q-30 -12 -41 -12q-19 0 -16 16z" />
<glyph unicode="&#xdc;" horiz-adv-x="1536" d="M199 1415q0 13 15.5 22.5t39.5 8.5q19 0 53 -3.5t45 -4.5q41 -4 123 -4q107 0 160 6q3 0 34.5 3t49.5 3q16 0 22 -2q8 -4 12.5 -12.5t4.5 -12.5q-3 -30 -58 -30q-14 0 -42 3t-42 3q-49 0 -76.5 -15t-45.5 -57q-12 -32 -78 -336l-88 -457q-33 -162 -33 -225q0 -51 14 -94 q18 -51 57.5 -89t90.5 -58t102.5 -29.5t104.5 -9.5q155 0 285.5 68t187.5 200q23 52 43 137.5t53 251.5l59 307q28 135 43 232q17 100 17 106q0 19 -6 37q-9 19 -28 25t-63 6q-25 0 -64 -3t-54 -1q-29 3 -29 24q2 13 17.5 22.5t37.5 8.5q19 0 52.5 -3.5t44.5 -4.5 q51 -4 151 -4q82 0 125 4q58 8 84 8q18 0 22 -2q8 -4 12.5 -12.5t4.5 -12.5q0 -8 -8 -16q-14 -14 -49 -14q-12 0 -38 3t-38 3q-35 0 -62 -19q-9 -7 -15.5 -14t-12.5 -19l-9.5 -19t-8 -25.5t-6.5 -26.5t-7.5 -34t-7.5 -36q-7 -36 -22.5 -107.5t-22.5 -107.5l-58 -303 q-17 -86 -51 -240q-21 -98 -44.5 -161t-72.5 -121q-82 -97 -203.5 -142t-260.5 -45q-30 0 -61 3t-92 14.5t-118.5 43.5t-97.5 81q-62 78 -62 180q0 54 37 242l88 450l31 160q4 22 11.5 64t11.5 63q6 30 6 51t-10 41q-14 27 -68 27q-15 0 -44.5 -3t-47.5 -3q-11 0 -16 0.5 t-14 2.5t-13 7.5t-4 15.5zM719 1683q2 35 28.5 65t61.5 30q24 0 41 -16.5t20 -41.5q5 -39 -22.5 -71.5t-65.5 -32.5q-29 0 -46 19t-17 48zM1069 1683q2 37 28 66t62 29q25 0 42 -18t20 -44q3 -37 -23 -70.5t-63 -33.5q-31 1 -48.5 20.5t-17.5 50.5z" />
<glyph unicode="&#xdf;" horiz-adv-x="1366" d="M-16 25q0 8 7 14t11 6q6 3 20.5 3.5t42.5 -0.5t41 -1q68 0 96.5 17t39.5 57q13 48 28 123l129 659q7 40 7 45q0 18 -10 26.5t-38 8.5q-21 0 -63.5 -3t-65.5 -3q-14 0 -18 4q-6 1 -9.5 7.5t-2.5 12.5q0 9 4 13q13 10 43 10q17 0 53 -4q23 -2 68 -2q36 0 49 8 q9 5 16.5 22.5t18.5 48t20 50.5q34 88 104 160q69 69 166 109t195 40q83 0 152 -30.5t106 -96.5q31 -52 31 -117q0 -54 -25 -104q-26 -54 -80 -94.5t-157 -77.5q-93 -37 -119 -53q-47 -28 -47 -70q0 -29 32 -47q36 -22 95 -41q56 -19 102 -41q176 -86 176 -270 q0 -67 -24 -138q-23 -67 -61.5 -120t-82 -84t-77.5 -48t-66 -26q-65 -21 -148 -21q-20 0 -35.5 0.5t-57.5 7.5t-74 19.5t-69 40t-58 66.5q-33 54 -33 116q0 27 10 68q20 58 59 85.5t74 27.5q31 0 53.5 -22t22.5 -54q0 -35 -21 -51.5t-41 -16.5q-19 0 -36 17q-1 1 -7 9 t-11.5 11.5t-12.5 3.5q-6 0 -12 -6q-9 -9 -17 -32t-8 -48q0 -39 23 -84q63 -112 253 -112q167 0 277 104q72 68 99.5 150.5t27.5 142.5q0 75 -39.5 132.5t-108.5 90.5q-23 11 -50 21.5t-59.5 22t-49.5 18.5q-46 17 -73.5 41t-27.5 65q0 55 58 98q32 23 104 52q98 40 119 51 q20 8 38.5 19.5t47 35.5t46 61.5t17.5 83.5q0 34 -11.5 66.5t-37 64t-75.5 51t-117 19.5q-41 0 -87 -8t-118 -43.5t-125 -95.5q-34 -38 -58 -80.5t-41.5 -96t-26 -89t-21.5 -101.5l-127 -655q-5 -24 -14.5 -72.5t-14.5 -71.5q-12 -59 -33 -75q-12 -9 -33 -14t-34 -5.5 t-42.5 0t-31.5 0.5q-37 0 -57 -2q-28 -4 -46 -4q-36 0 -36 25z" />
<glyph unicode="&#xe0;" d="M96 371q0 48 7.5 106t38 154t81.5 178q17 27 36.5 52.5t62 68.5t88.5 73.5t114.5 54t141.5 23.5q115 0 181 -46.5t91 -108.5q20 -45 25 -119q6 30 17 96t18.5 102t11.5 44q11 18 32 18q25 0 25 -23q0 -7 -12 -53q-9 -30 -15 -57q-13 -56 -43 -199q-8 -45 -27.5 -144.5 t-29.5 -152.5q-5 -32 -13.5 -78.5t-12 -68t-6.5 -48.5t-3 -48q0 -82 31.5 -124t81.5 -42q41 0 78 28q53 42 95 133t58 170q0 6 1 13.5t8.5 19t21.5 10.5q20 0 20 -24q-2 -25 -23.5 -91.5t-51.5 -125.5q-86 -176 -213 -176q-78 0 -119 59q-39 57 -39 145q0 62 18 148 q-1 -2 -15 -31t-32 -61t-37 -58q-10 -17 -27 -38t-45 -50.5t-68.5 -56.5t-84.5 -43q-62 -23 -133 -23q-51 0 -108 17q-41 14 -78 40t-72 69t-55.5 112.5t-20.5 155.5zM156 369q0 -27 2.5 -53t13.5 -77t41 -98t76 -78q67 -43 149 -43q73 0 140 33q157 77 260 297 q39 88 67.5 199t28.5 196q0 156 -90 234q-68 59 -166 59q-128 5 -219 -59q-140 -87 -221.5 -262t-81.5 -348zM481 1473q0 7 7 15.5t20 8.5q18 -3 45 -24l262 -205q1 0 5 -3.5t7.5 -10t3.5 -11.5q-1 -9 -7.5 -14.5t-14.5 -5.5t-29 14l-270 195q-29 14 -29 41z" />
<glyph unicode="&#xe1;" d="M96 371q0 48 7.5 106t38 154t81.5 178q17 27 36.5 52.5t62 68.5t88.5 73.5t114.5 54t141.5 23.5q115 0 181 -46.5t91 -108.5q20 -45 25 -119q6 30 17 96t18.5 102t11.5 44q11 18 32 18q25 0 25 -23q0 -7 -12 -53q-9 -30 -15 -57q-13 -56 -43 -199q-8 -45 -27.5 -144.5 t-29.5 -152.5q-5 -32 -13.5 -78.5t-12 -68t-6.5 -48.5t-3 -48q0 -82 31.5 -124t81.5 -42q41 0 78 28q53 42 95 133t58 170q0 6 1 13.5t8.5 19t21.5 10.5q20 0 20 -24q-2 -25 -23.5 -91.5t-51.5 -125.5q-86 -176 -213 -176q-78 0 -119 59q-39 57 -39 145q0 62 18 148 q-1 -2 -15 -31t-32 -61t-37 -58q-10 -17 -27 -38t-45 -50.5t-68.5 -56.5t-84.5 -43q-62 -23 -133 -23q-51 0 -108 17q-41 14 -78 40t-72 69t-55.5 112.5t-20.5 155.5zM156 369q0 -27 2.5 -53t13.5 -77t41 -98t76 -78q67 -43 149 -43q73 0 140 33q157 77 260 297 q39 88 67.5 199t28.5 196q0 156 -90 234q-68 59 -166 59q-128 5 -219 -59q-140 -87 -221.5 -262t-81.5 -348zM694 1239q2 15 27 35l299 203q2 2 9.5 7t20.5 11t23 6q23 -3 23 -24t-47 -47l-304 -195q-24 -12 -32 -12q-19 0 -19 16z" />
<glyph unicode="&#xe2;" d="M96 371q0 48 7.5 106t38 154t81.5 178q17 27 36.5 52.5t62 68.5t88.5 73.5t114.5 54t141.5 23.5q115 0 181 -46.5t91 -108.5q20 -45 25 -119q6 30 17 96t18.5 102t11.5 44q11 18 32 18q25 0 25 -23q0 -7 -12 -53q-9 -30 -15 -57q-13 -56 -43 -199q-8 -45 -27.5 -144.5 t-29.5 -152.5q-5 -32 -13.5 -78.5t-12 -68t-6.5 -48.5t-3 -48q0 -82 31.5 -124t81.5 -42q41 0 78 28q53 42 95 133t58 170q0 6 1 13.5t8.5 19t21.5 10.5q20 0 20 -24q-2 -25 -23.5 -91.5t-51.5 -125.5q-86 -176 -213 -176q-78 0 -119 59q-39 57 -39 145q0 62 18 148 q-1 -2 -15 -31t-32 -61t-37 -58q-10 -17 -27 -38t-45 -50.5t-68.5 -56.5t-84.5 -43q-62 -23 -133 -23q-51 0 -108 17q-41 14 -78 40t-72 69t-55.5 112.5t-20.5 155.5zM156 369q0 -27 2.5 -53t13.5 -77t41 -98t76 -78q67 -43 149 -43q73 0 140 33q157 77 260 297 q39 88 67.5 199t28.5 196q0 156 -90 234q-68 59 -166 59q-128 5 -219 -59q-140 -87 -221.5 -262t-81.5 -348zM455 1272q0 14 34 37l304 159q23 15 32 15t29 -15l238 -163q22 -11 20 -27q0 -10 -8.5 -16.5t-13.5 -6.5q-6 1 -25 11l-242 161l-315 -157q-3 -1 -11 -5.5 t-15.5 -7t-12.5 -2.5q-8 1 -12 7t-2 10z" />
<glyph unicode="&#xe3;" d="M96 371q0 48 7.5 106t38 154t81.5 178q17 27 36.5 52.5t62 68.5t88.5 73.5t114.5 54t141.5 23.5q115 0 181 -46.5t91 -108.5q20 -45 25 -119q6 30 17 96t18.5 102t11.5 44q11 18 32 18q25 0 25 -23q0 -7 -12 -53q-9 -30 -15 -57q-13 -56 -43 -199q-8 -45 -27.5 -144.5 t-29.5 -152.5q-5 -32 -13.5 -78.5t-12 -68t-6.5 -48.5t-3 -48q0 -82 31.5 -124t81.5 -42q41 0 78 28q53 42 95 133t58 170q0 6 1 13.5t8.5 19t21.5 10.5q20 0 20 -24q-2 -25 -23.5 -91.5t-51.5 -125.5q-86 -176 -213 -176q-78 0 -119 59q-39 57 -39 145q0 62 18 148 q-1 -2 -15 -31t-32 -61t-37 -58q-10 -17 -27 -38t-45 -50.5t-68.5 -56.5t-84.5 -43q-62 -23 -133 -23q-51 0 -108 17q-41 14 -78 40t-72 69t-55.5 112.5t-20.5 155.5zM156 369q0 -27 2.5 -53t13.5 -77t41 -98t76 -78q67 -43 149 -43q73 0 140 33q157 77 260 297 q39 88 67.5 199t28.5 196q0 156 -90 234q-68 59 -166 59q-128 5 -219 -59q-140 -87 -221.5 -262t-81.5 -348zM446 1307q0 6 5.5 13t14 13.5t9.5 7.5q87 70 166 68q31 0 60.5 -7t75 -23.5t57.5 -20.5q44 -19 100 -19q54 0 94 25q13 8 30.5 24.5t28.5 16.5q11 -2 11 -10 q0 -6 -2.5 -11t-9 -10.5t-11.5 -9t-17.5 -11.5t-19.5 -12l-8 -5q-7 -6 -10.5 -8t-12.5 -7.5t-15.5 -8.5t-16.5 -8t-20 -8t-21.5 -5.5t-24.5 -3.5t-26 -1q-65 0 -164 43q-85 33 -123 31q-61 0 -117 -49q-13 -13 -22 -13q-11 0 -11 9z" />
<glyph unicode="&#xe4;" d="M96 371q0 48 7.5 106t38 154t81.5 178q17 27 36.5 52.5t62 68.5t88.5 73.5t114.5 54t141.5 23.5q115 0 181 -46.5t91 -108.5q20 -45 25 -119q6 30 17 96t18.5 102t11.5 44q11 18 32 18q25 0 25 -23q0 -7 -12 -53q-9 -30 -15 -57q-13 -56 -43 -199q-8 -45 -27.5 -144.5 t-29.5 -152.5q-5 -32 -13.5 -78.5t-12 -68t-6.5 -48.5t-3 -48q0 -82 31.5 -124t81.5 -42q41 0 78 28q53 42 95 133t58 170q0 6 1 13.5t8.5 19t21.5 10.5q20 0 20 -24q-2 -25 -23.5 -91.5t-51.5 -125.5q-86 -176 -213 -176q-78 0 -119 59q-39 57 -39 145q0 62 18 148 q-1 -2 -15 -31t-32 -61t-37 -58q-10 -17 -27 -38t-45 -50.5t-68.5 -56.5t-84.5 -43q-62 -23 -133 -23q-51 0 -108 17q-41 14 -78 40t-72 69t-55.5 112.5t-20.5 155.5zM156 369q0 -27 2.5 -53t13.5 -77t41 -98t76 -78q67 -43 149 -43q73 0 140 33q157 77 260 297 q39 88 67.5 199t28.5 196q0 156 -90 234q-68 59 -166 59q-128 5 -219 -59q-140 -87 -221.5 -262t-81.5 -348zM502 1337q0 35 26 64t62 29q17 0 35.5 -12.5t21.5 -43.5q5 -36 -21 -69t-63 -33q-27 0 -44 18.5t-17 46.5zM852 1337q0 35 25 64t61 29q25 -1 40.5 -17.5 t18.5 -42.5q1 -8 0.5 -14t-1.5 -12t-1 -7q-9 -36 -35.5 -52.5t-46.5 -16.5q-21 0 -41 16.5t-20 52.5z" />
<glyph unicode="&#xe5;" d="M96 371q0 48 7.5 106t38 154t81.5 178q17 27 36.5 52.5t62 68.5t88.5 73.5t114.5 54t141.5 23.5q115 0 181 -46.5t91 -108.5q20 -45 25 -119q6 30 17 96t18.5 102t11.5 44q11 18 32 18q25 0 25 -23q0 -7 -12 -53q-9 -30 -15 -57q-13 -56 -43 -199q-8 -45 -27.5 -144.5 t-29.5 -152.5q-5 -32 -13.5 -78.5t-12 -68t-6.5 -48.5t-3 -48q0 -82 31.5 -124t81.5 -42q41 0 78 28q53 42 95 133t58 170q0 6 1 13.5t8.5 19t21.5 10.5q20 0 20 -24q-2 -25 -23.5 -91.5t-51.5 -125.5q-86 -176 -213 -176q-78 0 -119 59q-39 57 -39 145q0 62 18 148 q-1 -2 -15 -31t-32 -61t-37 -58q-10 -17 -27 -38t-45 -50.5t-68.5 -56.5t-84.5 -43q-62 -23 -133 -23q-51 0 -108 17q-41 14 -78 40t-72 69t-55.5 112.5t-20.5 155.5zM156 369q0 -27 2.5 -53t13.5 -77t41 -98t76 -78q67 -43 149 -43q73 0 140 33q157 77 260 297 q39 88 67.5 199t28.5 196q0 156 -90 234q-68 59 -166 59q-128 5 -219 -59q-140 -87 -221.5 -262t-81.5 -348zM561 1397q0 73 52.5 123.5t123.5 50.5t122.5 -50.5t51.5 -121.5q0 -72 -51.5 -124t-124.5 -52q-71 0 -122.5 51t-51.5 123zM612 1397q0 -22 11 -54 q18 -44 52.5 -61.5t61.5 -15.5q28 0 51 10q72 35 72 119q2 53 -34 93t-89 40q-52 -1 -88.5 -39.5t-36.5 -91.5z" />
<glyph unicode="&#xe6;" horiz-adv-x="1835" d="M23 201q0 103 83 184q82 80 233 129t372 49q30 0 86.5 -3t64.5 -3q8 -2 25 -2q16 0 20 8q13 19 13 96q0 244 -156 334q-87 45 -184 45q-84 0 -167.5 -33.5t-170.5 -132.5q-5 -5 -13.5 -15t-13 -14.5t-10.5 -10t-11 -7.5t-10 -2q-20 0 -20 25q0 4 4 12q4 10 53 60 q152 161 367 161q115 0 207.5 -52.5t138.5 -154.5q24 -56 35 -137q51 86 88 129q20 25 43 48.5t65 55.5t88 55t111.5 39.5t134.5 16.5q156 0 234 -80q51 -65 51 -137q0 -96 -86 -180q-105 -100 -275.5 -142t-351.5 -42q-12 0 -33.5 1t-31.5 1q-28 4 -45 4q-12 0 -16 -4.5 t-7 -24.5q-4 -40 -4 -61q0 -269 170 -357q81 -39 168 -39q30 0 67.5 7t88.5 24t105 54t97 90q54 66 90 163q2 4 5 11.5t4 10.5t3 7.5t3.5 6t3.5 4t4 3.5t5 1.5t7 0.5q23 0 23 -22q0 -13 -25 -72q-62 -148 -195 -240t-290 -92q-23 0 -49 2.5t-69 14.5t-80.5 31t-76.5 57 t-63 88q-33 62 -43 164q-54 -97 -102 -152q-42 -47 -93 -86q-158 -119 -360 -119q-156 1 -232.5 65.5t-76.5 158.5zM80 197q0 -41 14 -70q26 -48 87 -78t157 -29q205 6 352 134q71 61 121 139q84 131 84 205q0 12 -6 16q-12 6 -182 6q-256 0 -426 -76q-201 -93 -201 -247z M956 565q0 -9 7 -14q20 -8 100 -8q404 3 573 151q54 54 74 99q16 38 16 75q0 68 -63 121t-184 49q-77 0 -170 -39q-69 -29 -127.5 -74.5t-96.5 -95.5t-59 -85t-35 -66q-35 -75 -35 -113z" />
<glyph unicode="&#xe7;" horiz-adv-x="1067" d="M96 406q0 92 26.5 185.5t51.5 143t51 88.5q178 258 445 258q111 0 184 -39t107 -92q40 -66 40 -137q0 -33 -10 -68q-3 -12 -11 -27t-22.5 -35t-40.5 -33t-57 -13q-41 0 -58.5 22.5t-17.5 47.5q0 29 22 51t52 22q17 0 31 -12q2 -2 7 -9t9.5 -10.5t9.5 -3.5q4 0 13 9 q18 18 18 63q0 47 -22 92q-35 65 -105.5 97t-150.5 32q-214 0 -361 -194q-69 -90 -110 -214t-41 -239q0 -142 73 -239q97 -129 279 -129q154 0 268 86q63 44 109 112q31 47 55 107q13 33 20 38q6 3 17 3q20 0 20 -23q-1 -18 -17.5 -54t-29.5 -54q-17 -31 -38 -60t-61 -67.5 t-86 -66.5t-115 -47.5t-146 -19.5q-105 0 -187 41q-112 53 -166.5 156.5t-54.5 231.5zM262 -297q0 15 9 22t18 7t35 -29q19 -22 28 -29q43 -28 111 -28q94 0 149 57q29 29 29 66q0 42 -36.5 59.5t-82.5 17.5q-40 0 -82 -12q-8 -2 -17.5 -5.5t-14.5 -5.5t-10.5 -3t-10.5 0 q-22 0 -22 20q0 17 18 31l92 141l49 -4l-84 -131q84 12 107 12q30 0 55 -6q42 -10 70 -39t28 -71q0 -35 -18 -62q-31 -55 -95 -81.5t-134 -26.5q-103 0 -162 51q-29 29 -29 49z" />
<glyph unicode="&#xe8;" horiz-adv-x="1067" d="M98 383q0 133 45 254q70 193 228.5 318.5t357.5 125.5q162 0 238 -90q47 -52 47 -127q0 -98 -80 -178q-184 -184 -637 -184h-96q-3 0 -10.5 0.5t-12 1t-9.5 -1.5t-7 -6q-10 -17 -10 -111q0 -146 63 -233q36 -51 96 -84q82 -45 183 -45q82 0 151 24q36 13 71.5 32.5 t81.5 55.5t86 95t64 132q7 21 15 29t22 8q23 -2 23 -22q-2 -31 -45 -109t-101 -135q-22 -22 -53 -45.5t-78.5 -50t-112.5 -43.5t-133 -17q-114 0 -209 54q-49 28 -85 70t-53 80t-27 84t-11.5 69.5t-1.5 48.5zM180 565q0 -11 8 -14q15 -6 105 -6q125 0 209 12q30 3 80 12 t142.5 43.5t145.5 81.5q86 75 86 168q0 48 -30 96q-61 80 -201 80q-77 0 -150 -22q-33 -11 -67.5 -27.5t-80.5 -47t-91.5 -80t-81.5 -111.5q-30 -51 -52 -107.5t-22 -77.5zM395 1473q0 7 7 15.5t20 8.5q21 -3 45 -24l264 -205q14 -13 14 -25q0 -9 -6 -14.5t-14 -5.5 q-11 0 -29 14l-272 195l-4 2q-3 3 -7 6.5t-8.5 8t-7 11t-2.5 13.5z" />
<glyph unicode="&#xe9;" horiz-adv-x="1067" d="M98 383q0 133 45 254q70 193 228.5 318.5t357.5 125.5q162 0 238 -90q47 -52 47 -127q0 -98 -80 -178q-184 -184 -637 -184h-96q-3 0 -10.5 0.5t-12 1t-9.5 -1.5t-7 -6q-10 -17 -10 -111q0 -146 63 -233q36 -51 96 -84q82 -45 183 -45q82 0 151 24q36 13 71.5 32.5 t81.5 55.5t86 95t64 132q7 21 15 29t22 8q23 -2 23 -22q-2 -31 -45 -109t-101 -135q-22 -22 -53 -45.5t-78.5 -50t-112.5 -43.5t-133 -17q-114 0 -209 54q-49 28 -85 70t-53 80t-27 84t-11.5 69.5t-1.5 48.5zM180 565q0 -11 8 -14q15 -6 105 -6q125 0 209 12q30 3 80 12 t142.5 43.5t145.5 81.5q86 75 86 168q0 48 -30 96q-61 80 -201 80q-77 0 -150 -22q-33 -11 -67.5 -27.5t-80.5 -47t-91.5 -80t-81.5 -111.5q-30 -51 -52 -107.5t-22 -77.5zM610 1239q0 15 25 35l301 203q0 1 7.5 7t20.5 11.5t23 5.5q23 -2 23 -24q0 -23 -47 -47l-304 -195 q-18 -12 -32 -12q-17 0 -17 16z" />
<glyph unicode="&#xea;" horiz-adv-x="1067" d="M98 383q0 133 45 254q70 193 228.5 318.5t357.5 125.5q162 0 238 -90q47 -52 47 -127q0 -98 -80 -178q-184 -184 -637 -184h-96q-3 0 -10.5 0.5t-12 1t-9.5 -1.5t-7 -6q-10 -17 -10 -111q0 -146 63 -233q36 -51 96 -84q82 -45 183 -45q82 0 151 24q36 13 71.5 32.5 t81.5 55.5t86 95t64 132q7 21 15 29t22 8q23 -2 23 -22q-2 -31 -45 -109t-101 -135q-22 -22 -53 -45.5t-78.5 -50t-112.5 -43.5t-133 -17q-114 0 -209 54q-49 28 -85 70t-53 80t-27 84t-11.5 69.5t-1.5 48.5zM180 565q0 -11 8 -14q15 -6 105 -6q125 0 209 12q30 3 80 12 t142.5 43.5t145.5 81.5q86 75 86 168q0 48 -30 96q-61 80 -201 80q-77 0 -150 -22q-33 -11 -67.5 -27.5t-80.5 -47t-91.5 -80t-81.5 -111.5q-30 -51 -52 -107.5t-22 -77.5zM369 1272q0 15 37 37l303 159q23 15 32 15q7 0 27 -15l238 -163q23 -9 20 -27q0 -10 -8.5 -16.5 t-13.5 -6.5q-6 1 -25 11l-242 161l-315 -157q-30 -15 -39 -15q-14 2 -14 17z" />
<glyph unicode="&#xeb;" horiz-adv-x="1067" d="M98 383q0 133 45 254q70 193 228.5 318.5t357.5 125.5q162 0 238 -90q47 -52 47 -127q0 -98 -80 -178q-184 -184 -637 -184h-96q-3 0 -10.5 0.5t-12 1t-9.5 -1.5t-7 -6q-10 -17 -10 -111q0 -146 63 -233q36 -51 96 -84q82 -45 183 -45q82 0 151 24q36 13 71.5 32.5 t81.5 55.5t86 95t64 132q7 21 15 29t22 8q23 -2 23 -22q-2 -31 -45 -109t-101 -135q-22 -22 -53 -45.5t-78.5 -50t-112.5 -43.5t-133 -17q-114 0 -209 54q-49 28 -85 70t-53 80t-27 84t-11.5 69.5t-1.5 48.5zM180 565q0 -11 8 -14q15 -6 105 -6q125 0 209 12q30 3 80 12 t142.5 43.5t145.5 81.5q86 75 86 168q0 48 -30 96q-61 80 -201 80q-77 0 -150 -22q-33 -11 -67.5 -27.5t-80.5 -47t-91.5 -80t-81.5 -111.5q-30 -51 -52 -107.5t-22 -77.5zM455 1335q0 35 26 65t62 30q24 -2 40 -17t19 -39q5 -36 -22 -69t-64 -33q-24 0 -39 13.5t-18.5 26 t-3.5 23.5zM805 1335q0 35 26 65t60 30q27 -1 42 -17.5t17 -42.5q4 -14 -2 -33q-8 -29 -31 -49t-51 -20q-27 1 -44 20.5t-17 46.5z" />
<glyph unicode="&#xec;" horiz-adv-x="598" d="M59 1026q3 35 70 35q15 0 46 -3t48 -3q30 0 84 4q29 3 40.5 -2.5t10.5 -24.5q0 -15 -12 -76l-18 -86l-64 -325q-3 -14 -9.5 -48t-9 -46t-8 -40t-7.5 -40t-6 -34.5t-5.5 -33.5t-4 -29t-3 -29.5t-1.5 -24.5t-1 -25q0 -111 61 -150q25 -16 56 -16q45 0 84 32q47 42 85 134 t58 176q0 4 1 10t8 14t18 8q9 0 13.5 -4.5t4.5 -7v-10.5q0 -14 -8 -45q-18 -88 -72 -193q-80 -157 -201 -157q-68 0 -114.5 49.5t-46.5 161.5q0 23 2 47.5t8 62.5t10.5 62t15.5 84.5t17 91.5l65 332q2 16 5.5 35t5.5 30.5t2 18.5q0 16 -4.5 26.5t-10 15.5t-17.5 7.5t-19.5 3 t-24.5 0.5h-8q-42 0 -66 -4q-5 -1 -21 -3.5t-26 -2.5q-24 0 -27 12q-4 8 -4 10zM76 1473q0 7 6.5 15.5t19.5 8.5q21 -3 45 -24l265 -205q14 -13 14 -25q-3 -20 -23 -20q-7 0 -28 14l-271 195l-4 2q-3 3 -7 6.5t-8 8t-6.5 11t-2.5 13.5z" />
<glyph unicode="&#xed;" horiz-adv-x="598" d="M59 1026q3 35 70 35q15 0 46 -3t48 -3q30 0 84 4q29 3 40.5 -2.5t10.5 -24.5q0 -15 -12 -76l-18 -86l-64 -325q-3 -14 -9.5 -48t-9 -46t-8 -40t-7.5 -40t-6 -34.5t-5.5 -33.5t-4 -29t-3 -29.5t-1.5 -24.5t-1 -25q0 -111 61 -150q25 -16 56 -16q45 0 84 32q47 42 85 134 t58 176q0 4 1 10t8 14t18 8q9 0 13.5 -4.5t4.5 -7v-10.5q0 -14 -8 -45q-18 -88 -72 -193q-80 -157 -201 -157q-68 0 -114.5 49.5t-46.5 161.5q0 23 2 47.5t8 62.5t10.5 62t15.5 84.5t17 91.5l65 332q2 16 5.5 35t5.5 30.5t2 18.5q0 16 -4.5 26.5t-10 15.5t-17.5 7.5t-19.5 3 t-24.5 0.5h-8q-42 0 -66 -4q-5 -1 -21 -3.5t-26 -2.5q-24 0 -27 12q-4 8 -4 10zM289 1239q2 16 26 35l299 203q2 2 9.5 7t21 11t23.5 6q22 -2 22 -24q0 -21 -47 -47l-303 -195q-24 -12 -33 -12q-18 0 -18 16z" />
<glyph unicode="&#xee;" horiz-adv-x="598" d="M6 1272q0 14 35 37l305 159q4 4 15 9.5t16 5.5q9 0 29 -15l237 -163q23 -12 21 -27q0 -10 -9 -16.5t-14 -6.5q-6 1 -25 11l-241 161l-316 -157q-3 -1 -11 -5.5t-15.5 -7t-12.5 -2.5q-14 2 -14 17zM59 1026q3 35 70 35q15 0 46 -3t48 -3q30 0 84 4q29 3 40.5 -2.5 t10.5 -24.5q0 -15 -12 -76l-18 -86l-64 -325q-3 -14 -9.5 -48t-9 -46t-8 -40t-7.5 -40t-6 -34.5t-5.5 -33.5t-4 -29t-3 -29.5t-1.5 -24.5t-1 -25q0 -111 61 -150q25 -16 56 -16q45 0 84 32q47 42 85 134t58 176q0 4 1 10t8 14t18 8q9 0 13.5 -4.5t4.5 -7v-10.5q0 -14 -8 -45 q-18 -88 -72 -193q-80 -157 -201 -157q-68 0 -114.5 49.5t-46.5 161.5q0 23 2 47.5t8 62.5t10.5 62t15.5 84.5t17 91.5l65 332q2 16 5.5 35t5.5 30.5t2 18.5q0 16 -4.5 26.5t-10 15.5t-17.5 7.5t-19.5 3t-24.5 0.5h-8q-42 0 -66 -4q-5 -1 -21 -3.5t-26 -2.5q-24 0 -27 12 q-4 8 -4 10z" />
<glyph unicode="&#xef;" horiz-adv-x="598" d="M59 1026q3 35 70 35q15 0 46 -3t48 -3q30 0 84 4q29 3 40.5 -2.5t10.5 -24.5q0 -15 -12 -76l-18 -86l-64 -325q-3 -14 -9.5 -48t-9 -46t-8 -40t-7.5 -40t-6 -34.5t-5.5 -33.5t-4 -29t-3 -29.5t-1.5 -24.5t-1 -25q0 -111 61 -150q25 -16 56 -16q45 0 84 32q47 42 85 134 t58 176q0 4 1 10t8 14t18 8q9 0 13.5 -4.5t4.5 -7v-10.5q0 -14 -8 -45q-18 -88 -72 -193q-80 -157 -201 -157q-68 0 -114.5 49.5t-46.5 161.5q0 23 2 47.5t8 62.5t10.5 62t15.5 84.5t17 91.5l65 332q2 16 5.5 35t5.5 30.5t2 18.5q0 16 -4.5 26.5t-10 15.5t-17.5 7.5t-19.5 3 t-24.5 0.5h-8q-42 0 -66 -4q-5 -1 -21 -3.5t-26 -2.5q-24 0 -27 12q-4 8 -4 10zM115 1335q0 35 25.5 65t60.5 30q25 -1 40.5 -16t18.5 -40q5 -36 -22 -69t-64 -33q-33 0 -46 22t-13 41zM463 1335q0 35 26 65t62 30q25 -1 40.5 -17.5t18.5 -42.5q0 -21 -4 -33q-8 -29 -31 -49 t-51 -20q-27 1 -44 20.5t-17 46.5z" />
<glyph unicode="&#xf1;" d="M66 1026q3 35 71 35q16 0 50.5 -3t52.5 -3q7 0 22.5 1t22.5 1q20 0 30 2q3 0 10 1t13.5 1t11.5 -2q15 -6 15 -33q0 -15 -9 -56.5t-10 -45.5q-4 -18 -11 -54.5t-11 -54.5l-25 -127q43 106 80 162q15 23 32.5 46t54 58.5t76.5 61.5t98.5 45.5t121.5 19.5q114 0 189 -56.5 t75 -168.5q0 -11 -1 -22.5t-1.5 -21t-3.5 -24t-4.5 -23.5t-6 -28.5t-6.5 -29.5t-8.5 -36t-9.5 -40q-2 -11 -53 -225q-2 -8 -8 -36t-8.5 -39t-7 -35t-6.5 -39.5t-3.5 -36t-1.5 -38.5q0 -100 55 -135q27 -18 60 -18q65 0 114 73q74 107 105 269q0 1 1 5t1.5 5.5t1.5 5t2 5 t2.5 4t3.5 3.5t4.5 2.5t5.5 1.5h7q20 0 20 -28q0 -18 -20 -86q-72 -218 -164 -277q-42 -26 -95 -26q-46 0 -81 20q-82 50 -82 174q0 33 3.5 67t14.5 85.5t18.5 83t28.5 114t31 123.5q33 129 33 191q0 48 -15 82q-23 57 -79 84.5t-125 27.5q-116 0 -218 -82 q-59 -47 -105 -109.5t-77 -138t-50 -140t-38 -150.5q-36 -170 -45 -230q-12 -80 -16 -114q-7 -42 -17 -62t-32 -20q-33 2 -33 33q0 2 4 18q6 29 16 63q31 142 35 164l119 607q8 46 8 69q0 25 -12 41q-16 29 -66 29q-26 0 -76 -8q-1 0 -17.5 -2t-31.5 -2q-30 0 -30 22z M446 1307q0 6 5.5 13t14 13.5t9.5 7.5q87 70 166 68q31 0 60.5 -7t75 -23.5t57.5 -20.5q44 -19 100 -19q54 0 94 25q13 8 30.5 24.5t28.5 16.5q11 -2 11 -10q0 -6 -2.5 -11t-9 -10.5t-11.5 -9t-17.5 -11.5t-19.5 -12l-8 -5q-7 -6 -10.5 -8t-12.5 -7.5t-15.5 -8.5t-16.5 -8 t-20 -8t-21.5 -5.5t-24.5 -3.5t-26 -1q-65 0 -164 43q-85 33 -123 31q-61 0 -117 -49q-13 -13 -22 -13q-11 0 -11 9z" />
<glyph unicode="&#xf2;" horiz-adv-x="1150" d="M102 397q0 158 63 309.5t177 251.5q144 126 326 123q79 0 143 -24q43 -16 81.5 -44.5t76 -75t60 -119.5t22.5 -163q0 -83 -19 -161q-6 -30 -15 -62t-33 -90t-54.5 -108t-82.5 -104t-114 -89q-116 -64 -239 -64q-179 0 -291 117q-101 114 -101 303zM158 393 q0 -161 80 -258q35 -43 99.5 -76.5t158.5 -33.5q191 0 338 168q76 93 118.5 221.5t42.5 251.5q0 160 -82 262q-31 36 -67 60t-74.5 33.5t-59 12.5t-50.5 4q-161 0 -291 -118q-100 -96 -156.5 -239.5t-56.5 -287.5zM418 1473q0 4 1.5 9t8 10t16.5 5q18 -3 45 -24l263 -205 q1 0 5 -3.5t7 -10t2 -11.5q0 -9 -6.5 -14.5t-14.5 -5.5q-7 0 -28 14l-273 195l-4 2q-3 3 -6.5 6t-7 8t-6 11.5t-2.5 13.5z" />
<glyph unicode="&#xf3;" horiz-adv-x="1150" d="M102 397q0 158 63 309.5t177 251.5q144 126 326 123q79 0 143 -24q43 -16 81.5 -44.5t76 -75t60 -119.5t22.5 -163q0 -83 -19 -161q-6 -30 -15 -62t-33 -90t-54.5 -108t-82.5 -104t-114 -89q-116 -64 -239 -64q-179 0 -291 117q-101 114 -101 303zM158 393 q0 -161 80 -258q35 -43 99.5 -76.5t158.5 -33.5q191 0 338 168q76 93 118.5 221.5t42.5 251.5q0 160 -82 262q-31 36 -67 60t-74.5 33.5t-59 12.5t-50.5 4q-161 0 -291 -118q-100 -96 -156.5 -239.5t-56.5 -287.5zM631 1239q0 18 26 35l299 203q2 2 9 7t20 11t23 6 q14 -1 19 -9t3 -15q0 -22 -45 -47l-305 -195q-18 -12 -31 -12q-18 0 -18 16z" />
<glyph unicode="&#xf4;" horiz-adv-x="1150" d="M102 397q0 158 63 309.5t177 251.5q144 126 326 123q79 0 143 -24q43 -16 81.5 -44.5t76 -75t60 -119.5t22.5 -163q0 -83 -19 -161q-6 -30 -15 -62t-33 -90t-54.5 -108t-82.5 -104t-114 -89q-116 -64 -239 -64q-179 0 -291 117q-101 114 -101 303zM158 393 q0 -161 80 -258q35 -43 99.5 -76.5t158.5 -33.5q191 0 338 168q76 93 118.5 221.5t42.5 251.5q0 160 -82 262q-31 36 -67 60t-74.5 33.5t-59 12.5t-50.5 4q-161 0 -291 -118q-100 -96 -156.5 -239.5t-56.5 -287.5zM389 1272q0 15 37 37l303 159q23 15 33 15q6 0 26 -15 l240 -163q21 -11 19 -27q0 -10 -8 -16.5t-13 -6.5q-5 1 -25 11l-243 161l-314 -157q-3 -1 -11 -5.5t-15 -7t-12 -2.5q-8 1 -12.5 7t-4.5 10z" />
<glyph unicode="&#xf5;" horiz-adv-x="1150" d="M102 397q0 158 63 309.5t177 251.5q144 126 326 123q79 0 143 -24q43 -16 81.5 -44.5t76 -75t60 -119.5t22.5 -163q0 -83 -19 -161q-6 -30 -15 -62t-33 -90t-54.5 -108t-82.5 -104t-114 -89q-116 -64 -239 -64q-179 0 -291 117q-101 114 -101 303zM158 393 q0 -161 80 -258q35 -43 99.5 -76.5t158.5 -33.5q191 0 338 168q76 93 118.5 221.5t42.5 251.5q0 160 -82 262q-31 36 -67 60t-74.5 33.5t-59 12.5t-50.5 4q-161 0 -291 -118q-100 -96 -156.5 -239.5t-56.5 -287.5zM383 1307q0 12 29 34q87 70 163 68q31 0 60.5 -7t77 -24 t57.5 -20q44 -19 98 -19q57 0 97 25q13 8 30.5 24.5t28.5 16.5q10 -3 10 -10q0 -5 -2 -9.5t-5 -8t-9.5 -8.5t-11.5 -8t-15 -9.5t-16 -10.5q-1 -1 -16.5 -11t-26 -15.5t-29 -13.5t-40 -12t-44.5 -3q-69 0 -164 43q-88 33 -123 31q-60 0 -116 -49q-16 -13 -23 -13q-10 0 -10 9 z" />
<glyph unicode="&#xf6;" horiz-adv-x="1150" d="M100 397q0 64 11 127q37 214 161 363q75 93 170 139q111 57 226 55q105 0 194 -51q35 -19 65.5 -47t60 -71.5t46.5 -108.5t17 -144q0 -78 -23.5 -186.5t-87.5 -218.5q-75 -128 -190 -202.5t-256 -74.5q-94 0 -170 35q-114 49 -169 151.5t-55 233.5zM156 383 q0 -62 16 -123q32 -111 118.5 -174t201.5 -63q62 0 119 17t98.5 44.5t65.5 49t44 44.5q82 94 128 230.5t46 267.5q0 86 -24 152.5t-59.5 104.5t-82.5 63t-86.5 33t-78.5 9q-135 0 -246 -82q-35 -20 -88 -79q-81 -94 -126.5 -229.5t-45.5 -264.5zM489 1337q0 35 25 64t61 29 q18 0 37 -12.5t23 -43.5q5 -37 -21 -69.5t-65 -32.5q-27 0 -43.5 18.5t-16.5 46.5zM838 1337q2 36 26.5 64.5t61.5 28.5q26 -1 40.5 -17.5t16.5 -42.5q3 -23 -2 -33q-9 -36 -35.5 -52.5t-46.5 -16.5q-21 0 -41 16.5t-20 52.5z" />
<glyph unicode="&#xf7;" horiz-adv-x="1366" d="M96 565v62h1366v-62h-1366zM721 373q0 27 19 45t46 18q26 0 44.5 -19.5t17.5 -45.5q0 -26 -19 -44t-45 -16q-10 0 -23 4t-26.5 19t-13.5 39zM721 817q0 27 19.5 46.5t45.5 19.5q27 -2 45 -21t17 -45q0 -26 -18.5 -43.5t-45.5 -17.5q-10 0 -23 4t-26.5 19t-13.5 38z" />
<glyph unicode="&#xf8;" horiz-adv-x="1150" d="M98 399q0 52 15 144q6 30 14.5 62t31.5 89.5t52 107t78.5 105t109.5 94.5q125 80 260 80q20 0 48.5 -3t77.5 -16t85 -34q44 62 72 109q1 2 3 4q23 42 45 55q4 2 7 4l9 2q8 2 12 2q22 0 22 -22q0 -13 -6 -19q-11 -21 -53 -73q-36 -49 -66 -95q14 -12 39 -37 q99 -112 99 -299q0 -228 -117 -417q-18 -29 -38.5 -56t-62 -67.5t-87 -69.5t-113 -50.5t-141.5 -21.5q-51 0 -96.5 10.5t-65 19.5t-51.5 26q-37 -50 -78 -117q-1 -1 -6 -8.5t-6.5 -9.5t-6.5 -8.5t-8 -9t-8 -6.5t-9 -6t-10 -3.5t-12 -1.5q-24 2 -24 22q0 7 5.5 17.5 t12.5 18.5t20.5 24.5t20.5 25.5q27 34 64 95q-28 22 -46 45q-92 108 -92 288zM156 381q0 -172 108 -275l580 883l-14 7l-17 8.5t-18 8t-21.5 8t-23 6.5t-27.5 6t-30 3.5t-34 1.5q-202 0 -344 -178q-51 -63 -85.5 -138.5t-49 -144.5t-19.5 -114t-5 -82zM307 72 q83 -49 187 -49q54 0 105.5 14.5t87.5 34.5t70 47.5t51 46t32 37.5q73 93 114 221.5t41 251.5q0 141 -61 229q-10 15 -28 33l-17 18z" />
<glyph unicode="&#xf9;" d="M68 1026q0 35 67 35q15 0 46 -3t48 -3q26 0 80 4q4 0 13 1t14 1q31 0 31 -31q0 -7 -29 -135l-66 -346q-49 -248 -49 -316q0 -82 31 -127q23 -33 69 -59.5t113 -26.5q110 0 203 77t149 186q32 62 65 177t55.5 217t66.5 318q7 36 17 54.5t28 17.5q16 0 21.5 -7.5t5.5 -23.5 q0 -11 -3.5 -29.5t-7.5 -32.5t-10 -34.5t-8 -26.5q-3 -14 -12 -52t-13 -60l-30 -129q-70 -306 -70 -463q0 -35 2 -51q18 -129 113 -129q76 0 137 98q28 42 55.5 113t38.5 125q0 2 1 6.5t2 6.5t2 6t2.5 6t4 5t5 4.5t6 2.5t8.5 1q20 0 20 -24q0 -10 -8.5 -39.5t-20.5 -66 t-12 -37.5q-1 -2 -7 -16.5t-11 -26.5t-15 -32t-19.5 -36.5t-23.5 -36t-28 -35.5q-32 -34 -74 -55q-31 -12 -70 -12q-44 0 -73 16q-84 47 -84 195q0 23 10 141q-30 -79 -72 -143q-15 -23 -30 -43.5t-49.5 -54.5t-71.5 -58.5t-91.5 -43t-113.5 -18.5q-119 2 -189.5 68 t-70.5 184q0 36 37 252l78 396q12 82 12 84q0 16 -4.5 26.5t-10 15.5t-17.5 7.5t-19.5 3t-24.5 0.5h-8q-33 0 -62 -4q-14 -1 -29 -3.5t-22 -2.5q-30 0 -28 22zM449 1473q8 24 26 24q21 -3 45 -24l264 -205q15 -13 15 -25q0 -9 -6.5 -14.5t-14.5 -5.5q-7 0 -28 14l-273 195 l-3 2q-4 3 -8 6.5t-8 8t-6.5 11t-2.5 13.5z" />
<glyph unicode="&#xfa;" d="M68 1026q0 35 67 35q15 0 46 -3t48 -3q26 0 80 4q4 0 13 1t14 1q31 0 31 -31q0 -7 -29 -135l-66 -346q-49 -248 -49 -316q0 -82 31 -127q23 -33 69 -59.5t113 -26.5q110 0 203 77t149 186q32 62 65 177t55.5 217t66.5 318q7 36 17 54.5t28 17.5q16 0 21.5 -7.5t5.5 -23.5 q0 -11 -3.5 -29.5t-7.5 -32.5t-10 -34.5t-8 -26.5q-3 -14 -12 -52t-13 -60l-30 -129q-70 -306 -70 -463q0 -35 2 -51q18 -129 113 -129q76 0 137 98q28 42 55.5 113t38.5 125q0 2 1 6.5t2 6.5t2 6t2.5 6t4 5t5 4.5t6 2.5t8.5 1q20 0 20 -24q0 -10 -8.5 -39.5t-20.5 -66 t-12 -37.5q-1 -2 -7 -16.5t-11 -26.5t-15 -32t-19.5 -36.5t-23.5 -36t-28 -35.5q-32 -34 -74 -55q-31 -12 -70 -12q-44 0 -73 16q-84 47 -84 195q0 23 10 141q-30 -79 -72 -143q-15 -23 -30 -43.5t-49.5 -54.5t-71.5 -58.5t-91.5 -43t-113.5 -18.5q-119 2 -189.5 68 t-70.5 184q0 36 37 252l78 396q12 82 12 84q0 16 -4.5 26.5t-10 15.5t-17.5 7.5t-19.5 3t-24.5 0.5h-8q-33 0 -62 -4q-14 -1 -29 -3.5t-22 -2.5q-30 0 -28 22zM664 1239q0 16 24 35l301 203q0 1 7.5 7t20.5 11.5t23 5.5q23 -2 23 -24q0 -23 -47 -47l-303 -195 q-18 -12 -33 -12q-16 0 -16 16z" />
<glyph unicode="&#xfb;" d="M68 1026q0 35 67 35q15 0 46 -3t48 -3q26 0 80 4q4 0 13 1t14 1q31 0 31 -31q0 -7 -29 -135l-66 -346q-49 -248 -49 -316q0 -82 31 -127q23 -33 69 -59.5t113 -26.5q110 0 203 77t149 186q32 62 65 177t55.5 217t66.5 318q7 36 17 54.5t28 17.5q16 0 21.5 -7.5t5.5 -23.5 q0 -11 -3.5 -29.5t-7.5 -32.5t-10 -34.5t-8 -26.5q-3 -14 -12 -52t-13 -60l-30 -129q-70 -306 -70 -463q0 -35 2 -51q18 -129 113 -129q76 0 137 98q28 42 55.5 113t38.5 125q0 2 1 6.5t2 6.5t2 6t2.5 6t4 5t5 4.5t6 2.5t8.5 1q20 0 20 -24q0 -10 -8.5 -39.5t-20.5 -66 t-12 -37.5q-1 -2 -7 -16.5t-11 -26.5t-15 -32t-19.5 -36.5t-23.5 -36t-28 -35.5q-32 -34 -74 -55q-31 -12 -70 -12q-44 0 -73 16q-84 47 -84 195q0 23 10 141q-30 -79 -72 -143q-15 -23 -30 -43.5t-49.5 -54.5t-71.5 -58.5t-91.5 -43t-113.5 -18.5q-119 2 -189.5 68 t-70.5 184q0 36 37 252l78 396q12 82 12 84q0 16 -4.5 26.5t-10 15.5t-17.5 7.5t-19.5 3t-24.5 0.5h-8q-33 0 -62 -4q-14 -1 -29 -3.5t-22 -2.5q-30 0 -28 22zM379 1272q0 15 37 37l303 159q22 15 33 15q6 0 26 -15l238 -163q23 -9 20 -27q0 -10 -7.5 -16.5t-12.5 -6.5 q-12 2 -25 11l-243 161l-316 -157q-30 -15 -39 -15q-14 2 -14 17z" />
<glyph unicode="&#xfc;" d="M68 1026q0 35 67 35q15 0 46 -3t48 -3q26 0 80 4q4 0 13 1t14 1q31 0 31 -31q0 -7 -29 -135l-66 -346q-49 -248 -49 -316q0 -82 31 -127q23 -33 69 -59.5t113 -26.5q110 0 203 77t149 186q32 62 65 177t55.5 217t66.5 318q7 36 17 54.5t28 17.5q16 0 21.5 -7.5t5.5 -23.5 q0 -11 -3.5 -29.5t-7.5 -32.5t-10 -34.5t-8 -26.5q-3 -14 -12 -52t-13 -60l-30 -129q-70 -306 -70 -463q0 -35 2 -51q18 -129 113 -129q76 0 137 98q28 42 55.5 113t38.5 125q0 2 1 6.5t2 6.5t2 6t2.5 6t4 5t5 4.5t6 2.5t8.5 1q20 0 20 -24q0 -10 -8.5 -39.5t-20.5 -66 t-12 -37.5q-1 -2 -7 -16.5t-11 -26.5t-15 -32t-19.5 -36.5t-23.5 -36t-28 -35.5q-32 -34 -74 -55q-31 -12 -70 -12q-44 0 -73 16q-84 47 -84 195q0 23 10 141q-30 -79 -72 -143q-15 -23 -30 -43.5t-49.5 -54.5t-71.5 -58.5t-91.5 -43t-113.5 -18.5q-119 2 -189.5 68 t-70.5 184q0 36 37 252l78 396q12 82 12 84q0 16 -4.5 26.5t-10 15.5t-17.5 7.5t-19.5 3t-24.5 0.5h-8q-33 0 -62 -4q-14 -1 -29 -3.5t-22 -2.5q-30 0 -28 22zM457 1337q0 36 26.5 64.5t59.5 28.5q18 0 36.5 -12.5t22.5 -43.5q5 -36 -21 -69t-63 -33q-24 0 -39 14.5 t-18.5 27t-3.5 23.5zM807 1337q0 35 25 64t61 29q24 -1 40 -18t19 -42q0 -23 -6 -41q-11 -32 -35.5 -46.5t-44.5 -14.5q-21 0 -40 16.5t-19 52.5z" />
<glyph unicode="&#xff;" horiz-adv-x="1150" d="M37 -213q0 25 6 43q5 18 26 39.5t54 21.5q21 0 42 -14.5t21 -50.5q0 -45 -39 -62q-16 -4 -22 -6q-8 -4 -8 -18q0 -24 33 -49q85 -64 235 -64q233 0 348 178q23 35 42.5 80.5t31.5 77.5t25.5 95t17.5 83.5t16 94.5t13 81q-47 -94 -76 -137q-16 -22 -33 -42.5t-52 -52 t-72 -53.5t-91.5 -38.5t-112.5 -16.5q-61 0 -119 20.5t-96 61.5q-59 59 -59 177q0 40 25 182q8 35 26 131l64 328q14 75 14 84q-1 19 -6.5 30.5t-18.5 16t-22.5 5.5t-30.5 1h-4h-4q-40 0 -64 -4q-44 -6 -47 -6q-18 0 -24 8q-6 6 -6 14q0 5 6 14q18 21 63 21q15 0 45 -3 t47 -3q22 0 76 4q4 0 13 1t14 1q33 0 33 -39q0 -14 -41 -199l-54 -284q-5 -26 -14 -77t-14 -77q-2 -5 -6.5 -28t-9.5 -58.5t-5 -60.5q0 -80 33 -129q25 -35 73.5 -62t121.5 -27q37 0 77 10.5t88 34t97 71t90 112.5q51 82 82 184t69 301q8 43 23 121.5t20 103.5q15 87 27 101 q8 8 27 8q26 0 26 -31q0 -8 -8 -37t-8 -32q-19 -76 -39 -166q-30 -126 -78 -418q-6 -36 -17.5 -106.5t-17.5 -106.5q-9 -54 -17 -93.5t-22 -91t-29.5 -90t-39.5 -82t-52.5 -76t-68 -62.5t-86.5 -50q-105 -43 -215 -43q-20 0 -43.5 2t-67 8.5t-87.5 24.5t-77 45 q-67 53 -67 125zM477 1335q0 35 25.5 65t60.5 30q25 -2 41 -16.5t19 -39.5q5 -37 -21 -69.5t-65 -32.5q-23 0 -37.5 13.5t-18.5 26.5t-4 23zM825 1335q0 35 26 65t62 30q26 -1 41.5 -17.5t18.5 -42.5q0 -21 -4 -33q-8 -29 -31 -49t-51 -20q-27 1 -44.5 20.5t-17.5 46.5z" />
<glyph unicode="&#x152;" horiz-adv-x="2390" d="M147 584q0 46 6 98t21.5 127.5t52.5 161t90 164.5q21 33 47 66.5t79.5 86t112.5 90.5t145 66.5t178 28.5q150 0 266.5 -79.5t173.5 -219.5q28 -71 41 -183q24 121 59 350q4 39 13 62q18 45 86 45q10 0 31.5 -1t33.5 -1q58 -4 88 -4q80 -2 242 -2q3 0 297 6h71q6 0 17.5 1 t17.5 1q37 0 37 -43q0 -14 -16 -80q-3 -14 -8.5 -40.5t-8.5 -39.5q-19 -86 -41 -221q-12 -68 -16 -88l-3 -6q-2 -5 -5.5 -10t-10 -9.5t-14.5 -3.5q-6 0 -11 2t-7 5t-3 7.5t-1 7v7.5v4q0 17 2 29q7 33 28.5 119.5t30.5 134.5q10 73 10 88q0 58 -51 75q-17 5 -45 5 q-80 0 -119 2h-321q-86 0 -131 -2q-44 0 -72 -11q-34 -10 -55 -55q-17 -45 -35 -154l-57 -305q-2 -2 -5.5 -20t-3.5 -31q0 -14 9 -20q11 -8 42 -10t42 1h206h17h19t17.5 0.5t19.5 1.5t18 2.5t19 3.5l16.5 5.5t17 8t14.5 10.5t14 13q11 12 19.5 28t14 38.5t8 34.5t6 41 t4.5 33q1 5 2.5 15t2.5 15t2.5 13.5t3 13t3 11.5t4 10.5t5 8.5t5.5 8t7 5q1 0 6.5 1t7.5 1q22 0 22 -31q0 -16 -8 -47t-24 -81.5t-25 -86.5q-7 -27 -11.5 -47t-9 -52.5t-6 -46.5t-7.5 -70.5t-9 -82.5q-12 -96 -12 -98q-11 -47 -41 -47q-25 0 -25 35q3 22 10 51q5 24 12 51 t9.5 39.5t5 29t2.5 33.5q0 24 -7.5 41t-20.5 25t-30 12.5t-35.5 4t-37.5 -0.5h-211q-54 3 -84 -2q-39 -6 -49 -28q-7 -14 -18 -78l-56 -289q-4 -23 -11 -68t-11 -67q-3 -15 -6.5 -31t-5.5 -24t-3.5 -18.5t-1.5 -22.5q0 -30 11 -37q15 -15 84 -15h507q83 -2 132 4t79 25 q28 17 47 57q11 23 22 70t18 86.5t15.5 94t10.5 67.5q10 54 24 67q10 9 23 9q23 0 23 -37q0 -8 -2 -16t-6 -22.5t-7 -27.5q-3 -9 -18 -71q-22 -92 -47 -236q-9 -59 -17 -76q-26 -53 -98 -53q-8 0 -25 1t-26 1q-46 4 -68 4q-66 2 -198 2h-285q-82 0 -162 -6q-46 -4 -69 -4h-4 q-17 0 -25.5 1t-17.5 8t-9 22q0 4 2.5 11.5l6.5 19.5t6 22q11 34 16 55q21 84 43 223q-51 -91 -96 -145q-21 -25 -44.5 -49t-70 -61t-96 -63.5t-119.5 -46.5t-143 -20q-112 0 -217 48q-153 71 -228.5 225t-75.5 336zM207 582q0 -138 37.5 -239t87.5 -161q40 -50 92 -84.5 t102.5 -48.5t84 -19t61.5 -5q160 0 301 104q111 84 189 214.5t113.5 270.5t35.5 283q0 100 -27 205q-23 80 -63 140t-82.5 93t-93 53.5t-88.5 26.5t-76 6q-66 0 -125 -14q-162 -36 -297 -182q-117 -126 -184.5 -298.5t-67.5 -344.5z" />
<glyph unicode="&#x153;" horiz-adv-x="1921" d="M104 424q0 207 115 391q17 27 37 53t63 67.5t89 71t114.5 52t141.5 22.5q172 0 274 -116q14 -15 26 -33t21 -33.5t17.5 -34.5t14 -32.5t10.5 -31t7.5 -26t6 -22.5t3.5 -15q84 133 154 193q66 61 148.5 97.5t134.5 45t100 8.5q62 0 123 -16q51 -15 86.5 -39.5t52.5 -54 t24 -55.5t7 -52q0 -96 -84 -178q-98 -95 -268 -138.5t-338 -43.5q-39 0 -121 4q-1 0 -12 1t-17 -0.5t-10 -6.5q-10 -13 -10 -117q0 -174 94 -270q43 -47 111 -71t137 -24q56 0 121 19q156 43 254 176q39 51 75 141q15 37 24 42q5 3 11 3q21 0 21 -22q0 -27 -34.5 -95.5 t-82.5 -123.5q-157 -183 -391 -183q-95 1 -164.5 30t-110.5 67q-42 38 -71 96q-26 56 -41 141q-33 -63 -70 -112q-23 -32 -52.5 -62t-81.5 -70.5t-124 -65t-152 -24.5q-93 0 -170 37q-59 28 -102 77t-63.5 94.5t-32.5 101.5t-13.5 83t-1.5 54zM160 420q0 -21 1 -42t9 -65 t21.5 -81t42 -79.5t67.5 -70.5q86 -59 191 -59q63 0 124 21.5t105.5 55t70 58t42.5 45.5q72 88 116.5 210.5t44.5 235.5q0 153 -82 266q-101 130 -274 123q-111 -10 -205 -71q-128 -85 -201 -236.5t-73 -310.5zM1036 567q0 -4 8 -12q27 -8 144 -8q70 0 155 10 q263 36 383 135q91 75 91 176q0 31 -13 62q-22 44 -75.5 75.5t-141.5 32.5q-179 3 -325 -113.5t-207 -289.5q-19 -59 -19 -68z" />
<glyph unicode="&#x178;" horiz-adv-x="1409" d="M147 1415q0 31 54 31q24 0 78 -8q33 -4 94 -4q91 0 108 2q22 1 63 5t62 5q4 0 13.5 1t13.5 1q31 0 35 -27q-6 -23 -33 -30q-18 -2 -33.5 -1t-50.5 3t-62 2q-19 0 -29 -1t-21 -10t-11 -26q0 -9 12 -39.5t13 -32.5q15 -33 22 -55l242 -565l524 645q4 6 14 18t15 19 q14 16 14 26q0 6 -6 12q-11 9 -64 9q-24 0 -63 -2.5t-54 -2.5t-34 3q-6 2 -10.5 9t-3.5 13q0 15 15.5 24t41.5 9q17 0 49.5 -4.5t44.5 -5.5q51 -4 156 -4q57 0 88 4q62 10 100 10q25 0 33 -12q6 -6 6 -17q0 -6 -8 -14q-14 -16 -47 -16q-14 0 -40 3t-40 3q-32 0 -59 -13 q-10 -6 -21 -15t-23.5 -23.5t-19 -22.5t-20.5 -25.5t-15 -19.5q-20 -25 -24 -29q-56 -68 -82 -98l-449 -551l-26 -139q-38 -203 -41 -219q-19 -101 -19 -119q0 -39 21 -55q14 -11 50 -13.5t83.5 1t48.5 3.5q23 0 31 -4q16 -5 16 -22q0 -12 -16.5 -21.5t-40.5 -9.5l-60 6 q-7 1 -22.5 2t-22.5 2q-98 4 -145 4q-76 0 -152 -6q-8 -1 -39.5 -4.5t-50.5 -3.5q-12 0 -22 4q-17 7 -17 25l6 12q16 16 52 16q15 0 43 -2t43 -2q74 0 100 33q5 6 9.5 12.5t8 16.5t6 16.5t6 21t5.5 22t6 27.5t6 29q24 114 45 228l31 155l-272 631q-16 44 -35 80 q-19 44 -49 59q-16 8 -39.5 9t-55.5 -1.5t-41 -2.5q-39 0 -39 26zM655 1683q0 35 26.5 65t63.5 30q24 0 41.5 -16.5t20.5 -41.5q5 -39 -22.5 -71.5t-65.5 -32.5q-29 0 -46.5 19.5t-17.5 47.5zM1006 1683q0 36 26.5 65.5t63.5 29.5q25 0 41.5 -18t19.5 -44q3 -37 -23 -70.5 t-63 -33.5q-30 1 -47.5 20.5t-17.5 50.5z" />
<glyph unicode="&#x2c6;" horiz-adv-x="681" d="M-80 1272q0 15 37 37l303 159q22 15 33 15q6 0 26 -15l240 -163q21 -11 19 -27q0 -10 -8 -16.5t-13 -6.5q-12 2 -25 11l-243 161l-316 -157q-30 -15 -36 -15q-17 2 -17 17z" />
<glyph unicode="&#x2dc;" horiz-adv-x="681" d="M-86 1307q0 12 29 34l8 7q8 6 11.5 8.5t13 9.5t16.5 11t18 10t21 9t22.5 6.5t25.5 5t27 1.5q31 0 60.5 -7t77 -24t57.5 -20q44 -19 98 -19q57 0 97 25q13 8 30.5 24.5t28.5 16.5q8 -2 8 -10q0 -4 -0.5 -8t-3.5 -7.5t-6 -6.5t-9 -7.5t-10.5 -7.5t-13 -8t-14.5 -9 q-1 -1 -16.5 -11t-26 -15.5t-29 -13.5t-40 -12t-44.5 -3q-67 0 -166 43q-85 33 -121 31q-60 0 -116 -49q-16 -13 -23 -13q-10 0 -10 9z" />
<glyph unicode="&#x2000;" horiz-adv-x="959" />
<glyph unicode="&#x2001;" horiz-adv-x="1919" />
<glyph unicode="&#x2002;" horiz-adv-x="959" />
<glyph unicode="&#x2003;" horiz-adv-x="1919" />
<glyph unicode="&#x2004;" horiz-adv-x="639" />
<glyph unicode="&#x2005;" horiz-adv-x="479" />
<glyph unicode="&#x2006;" horiz-adv-x="319" />
<glyph unicode="&#x2007;" horiz-adv-x="319" />
<glyph unicode="&#x2008;" horiz-adv-x="239" />
<glyph unicode="&#x2009;" horiz-adv-x="383" />
<glyph unicode="&#x200a;" horiz-adv-x="106" />
<glyph unicode="&#x2010;" horiz-adv-x="724" d="M102 590q0 35 56 35q14 0 38.5 -2t36.5 -2q35 -3 66 0h145q40 -2 115 2q42 3 62 -4t20 -31q0 -13 -8 -21q-12 -12 -62 -12q-33 0 -49 2h-225q-61 0 -92 -2q-52 0 -62 2q-6 0 -14 1.5t-18 9.5t-9 22z" />
<glyph unicode="&#x2011;" horiz-adv-x="724" d="M102 590q0 35 56 35q14 0 38.5 -2t36.5 -2q35 -3 66 0h145q40 -2 115 2q42 3 62 -4t20 -31q0 -13 -8 -21q-12 -12 -62 -12q-33 0 -49 2h-225q-61 0 -92 -2q-52 0 -62 2q-6 0 -14 1.5t-18 9.5t-9 22z" />
<glyph unicode="&#x2012;" horiz-adv-x="724" d="M102 590q0 35 56 35q14 0 38.5 -2t36.5 -2q35 -3 66 0h145q40 -2 115 2q42 3 62 -4t20 -31q0 -13 -8 -21q-12 -12 -62 -12q-33 0 -49 2h-225q-61 0 -92 -2q-52 0 -62 2q-6 0 -14 1.5t-18 9.5t-9 22z" />
<glyph unicode="&#x2013;" horiz-adv-x="1323" d="M100 590q3 30 35 33q18 1 21 1.5t20.5 -1t30.5 -2.5q11 -1 24 -1t29 0.5t25 0.5q23 0 69 -1.5t68 -1.5h360q54 0 161 1.5t161 1.5q21 -1 48 0.5t43 1t26 -4.5q18 -8 18 -30q0 -13 -10 -23q-10 -7 -27.5 -8.5t-52.5 0.5t-53 2q-30 0 -89 -2t-87 -2q-93 0 -138 2h-225 q-110 -3 -221 0q-16 0 -45 0.5t-53 0.5t-45 -1q-1 0 -9 -0.5l-16 -1t-20 0.5t-21 3q-25 6 -27 31z" />
<glyph unicode="&#x2014;" horiz-adv-x="1366" d="M100 565v62h1358v-62h-1358z" />
<glyph unicode="&#x2018;" horiz-adv-x="555" d="M258 983q0 63 28.5 161t94.5 191q29 46 96 107q33 33 45 33q5 0 14 -6.5t9 -18.5q0 -14 -13 -20q-48 -42 -94 -101q-49 -67 -77.5 -138.5t-28.5 -107.5q0 -17 7.5 -23.5t16.5 -6.5q5 0 29 6q16 4 27 4q29 0 46.5 -15t22 -30.5t4.5 -30.5q0 -16 -10 -39 q-19 -41 -54.5 -58.5t-62.5 -17.5q-24 3 -36 9q-64 19 -64 102z" />
<glyph unicode="&#x2019;" horiz-adv-x="555" d="M266 897q0 14 21 31q2 2 5.5 5t6 5.5t4.5 5.5q38 35 64 70q51 68 81.5 141t30.5 109q0 30 -26 30q-11 0 -23 -6q-12 -4 -31 -4q-30 0 -48 16t-21.5 30.5t-3.5 29.5q0 29 16 51q37 62 109 64q24 0 51 -13q51 -24 51 -102q0 -60 -30.5 -160t-98.5 -192q-35 -48 -92 -103 q-33 -33 -45 -33q-9 1 -15 9t-6 16z" />
<glyph unicode="&#x201a;" horiz-adv-x="555" d="M29 -406q0 2 2 8t2 7q4 6 24 23t31 28q31 31 43 51q48 72 67 110q40 81 40 138q0 35 -27 35l-25 -6q-12 -2 -26 -2q-26 0 -37 6q-13 6 -25 23.5t-12 45.5q0 34 20 62q14 23 43.5 37t59.5 16q29 0 53 -12q52 -28 49 -111q0 -59 -14 -112q-9 -35 -26.5 -80.5t-61.5 -120 t-98 -125.5q-44 -44 -62 -41q-7 0 -13.5 4.5t-6.5 15.5z" />
<glyph unicode="&#x201c;" horiz-adv-x="894" d="M252 987q0 62 29.5 159t95.5 189q39 55 92 105q39 35 49 35q9 -2 16 -9t7 -16q0 -6 -3 -11t-6.5 -8.5t-12 -10.5t-13.5 -11q-28 -24 -68 -78q-52 -69 -81 -141t-29 -111q0 -15 8 -20.5t16 -5.5q9 0 27 6q12 4 29 4q22 0 37.5 -8t22 -21.5t9 -24.5t2.5 -22q0 -7 -8 -39 q-15 -32 -48 -53t-69 -23q-21 0 -51 13q-51 26 -51 102zM602 987q0 78 42.5 196t139.5 220q30 34 64 61q12 11 20 11q5 0 14 -6.5t9 -18.5q0 -5 -1 -8.5t-4.5 -7t-5 -5.5t-6.5 -5.5t-6 -4.5q-33 -29 -75 -82q-55 -71 -85 -142t-30 -112q0 -30 27 -30q3 0 24 6q16 4 29 4 q29 0 46 -16t21 -31t4 -29q0 -46 -39 -79.5t-85 -35.5q-48 0 -78 33q-25 28 -25 82z" />
<glyph unicode="&#x201d;" horiz-adv-x="894" d="M256 899q2 12 10 16l29 29q44 44 63 70q54 71 83.5 142.5t29.5 111.5q0 26 -27 26q-4 0 -22 -6q-12 -4 -31 -4q-41 0 -57.5 25t-16.5 51q0 7 7 35q7 16 18 31t38 31.5t62 17.5q41 0 72 -24.5t31 -88.5q0 -53 -21 -125q-49 -189 -200 -334q-2 -1 -12 -10t-18.5 -15 t-12.5 -6q-25 4 -25 27zM608 897q0 5 3.5 10.5t7 9.5t12.5 12t14 13q28 23 64 70q54 69 83 141t29 113q0 28 -24 28q-6 0 -27 -6q-10 -4 -27 -4q-23 0 -39 8.5t-23.5 21.5t-10 24t-2.5 22q0 13 8 33q9 27 39 54t80 28q24 0 45 -9q55 -22 55 -106q0 -53 -16 -111 q-50 -208 -201 -342q-4 -4 -11 -10.5t-11 -10t-9 -7.5t-9 -5.5t-7 -1.5q-9 2 -16 9t-7 16z" />
<glyph unicode="&#x201e;" horiz-adv-x="894" d="M2 -399q0 5 10 20q24 20 33 29q39 36 57 63q54 69 83.5 141t29.5 113q0 11 -7 20t-18 9q-3 0 -11.5 -2.5t-14.5 -3.5q-20 -4 -29 -4q-30 0 -48 16.5t-22 31.5t-4 29q0 20 13 43q20 39 53.5 54.5t60.5 15.5q22 0 45 -10q56 -22 56 -105q0 -18 -3 -39.5t-6 -36.5t-6 -31 l-4 -15q-53 -196 -198 -330q-35 -35 -47 -35q-9 1 -16 9.5t-7 17.5zM354 -399q0 8 4 12q1 1 16 14t23 21q33 34 56 65q55 71 84.5 141.5t29.5 112.5q0 11 -6.5 20t-17.5 9q-3 0 -12 -2.5t-15 -3.5q-20 -4 -29 -4q-30 0 -48 17t-21.5 31.5t-3.5 28.5q0 22 12 43 q20 39 53.5 54.5t59.5 15.5q24 0 47 -10q55 -21 55 -105q0 -59 -31 -161.5t-98 -194.5q-36 -46 -86 -94q-37 -37 -49 -37q-9 2 -16 9.5t-7 17.5z" />
<glyph unicode="&#x2022;" horiz-adv-x="681" d="M225 723q0 47 19 88q8 18 21.5 36t36.5 39.5t59 34.5t79 13q51 0 90 -19q55 -26 88 -78t33 -114q0 -90 -60.5 -151t-150.5 -60q-90 0 -153 61t-62 150z" />
<glyph unicode="&#x2026;" horiz-adv-x="2048" d="M371 55q0 28 20 47t49 19q34 0 49 -23.5t15 -44.5q0 -28 -18.5 -46.5t-47.5 -18.5q-28 0 -47.5 19t-19.5 48zM1055 55q0 28 19.5 47t47.5 19t47 -19.5t19 -48.5q-2 -28 -20.5 -46.5t-47.5 -18.5q-28 0 -46.5 19t-18.5 48zM1737 55q0 27 20 46.5t47 19.5q36 0 51 -23.5 t15 -44.5q0 -28 -19.5 -46.5t-48.5 -18.5q-28 0 -46.5 19t-18.5 48z" />
<glyph unicode="&#x202f;" horiz-adv-x="383" />
<glyph unicode="&#x205f;" horiz-adv-x="479" />
<glyph unicode="&#x2122;" horiz-adv-x="1579" d="M133 1286q4 52 8 160q35 0 104.5 -1t104.5 -1q240 0 359 2q4 -108 8 -162l-41 2q-14 36 -21 51q-18 35 -40 46.5t-62 13.5h-74v-482v-8q0 -58 13 -73q18 -15 45 -17l38 -4v-47q-145 4 -215 2q-14 0 -43 -1t-43 -1v47l39 4q39 6 48.5 23t9.5 75v482h-74q-37 -2 -57 -11 q-9 -4 -16 -9t-13 -13t-10 -13.5t-9 -17t-7 -16t-7 -17.5t-6 -16zM803 766v47l8 2q21 0 41 10q19 10 24 33t5 68v442l-7 8q-17 14 -27 18t-32 5v47q87 -3 174 0l221 -541l230 541h176v-47h-17q-24 -3 -38 -13q-20 -14 -24.5 -35.5t-4.5 -74.5v-350q1 -10 1 -30.5t1 -29.5 q2 -28 14 -37q11 -11 43 -14l11 -2v-47q-14 0 -44.5 1t-46.5 1q-50 2 -149 -2v47l12 2q38 4 47 17.5t9 54.5q0 6 1 19.5t1 19.5v374l-230 -534h-31l-229 541v-381q0 -65 13 -85t57 -26l14 -2v-47h-223z" />
<glyph unicode="&#xe000;" horiz-adv-x="1075" d="M0 0v1075h1075v-1075h-1075z" />
<glyph unicode="&#xfb01;" horiz-adv-x="1236" d="M-293 -240q0 34 19 59t53 25q33 0 46 -20.5t13 -40.5q0 -21 -12 -39q-19 -23 -19 -31l5 -10q14 -18 49 -18q63 0 119 45q51 43 83.5 105.5t59.5 146.5q47 144 90 440l63 412q1 9 10 67t9 78q0 26 -7.5 31.5t-35.5 5.5q-11 0 -33.5 -1t-34.5 -1h-39q-5 0 -13.5 -1t-16 -1 t-13.5 2q-21 6 -16 20q0 27 51 27q18 0 54.5 -4t54.5 -4q41 0 53 11t23 52q6 18 17 59.5t21.5 71.5t24.5 56q46 95 131.5 149.5t190.5 54.5q137 0 188 -73q23 -29 23 -72q0 -50 -30 -73t-59 -23q-26 2 -43.5 19.5t-17.5 43.5q0 34 25 49q1 1 12.5 5.5t17.5 10t6 13.5 q0 12 -14 23q-34 34 -115 34q-75 0 -139 -39q-71 -41 -110 -108t-62 -160q-14 -58 -14 -82q0 -12 10 -16t35 -4q16 0 45.5 2t44.5 2h55q9 0 26.5 1t26.5 1q60 0 60 -25q0 -4 -4 -12q-12 -14 -56 -14q-16 0 -34.5 1t-41 2.5t-34.5 2.5q-39 0 -57 2h-45h-15t-11.5 -2t-9 -2.5 t-6.5 -4.5t-4 -5t-3 -8.5t-2.5 -9t-2 -12t-2.5 -13.5l-61 -396q-14 -114 -33 -239q-18 -115 -35 -198.5t-58 -194t-95 -177.5q-94 -118 -215 -118q-40 0 -70 12q-43 18 -59.5 50t-16.5 60zM700 1026q3 35 70 35q15 0 46 -3t48 -3q30 0 84 4q29 3 40.5 -2.5t10.5 -24.5 q0 -15 -12 -76l-18 -86l-64 -325q-3 -14 -9.5 -48t-9 -46t-8 -40t-7.5 -40t-6 -34.5t-5.5 -33.5t-4 -29t-3 -29.5t-1.5 -24.5t-1 -25q0 -111 61 -150q25 -16 56 -16q45 0 84 32q47 42 85 134t58 176q0 4 1 10t8 14t18 8q9 0 13.5 -4.5t4.5 -7v-10.5q0 -14 -8 -45 q-18 -88 -72 -193q-80 -157 -201 -157q-68 0 -114.5 49.5t-46.5 161.5q0 23 2 47.5t8 62.5t10.5 62t15.5 84.5t17 91.5l65 332q2 16 5.5 35t5.5 30.5t2 18.5q0 16 -4.5 26.5t-10 15.5t-17.5 7.5t-19.5 3t-24.5 0.5h-8q-42 0 -66 -4q-5 -1 -21 -3.5t-26 -2.5q-23 0 -26 12z M903 1317q0 37 24.5 61t61.5 23q29 0 47.5 -19.5t18.5 -48.5q0 -33 -26 -57.5t-60 -24.5q-36 1 -51 23.5t-15 42.5z" />
<glyph unicode="&#xfb02;" horiz-adv-x="1236" d="M-293 -240q0 34 19 59t53 25q33 0 46 -20.5t13 -40.5q0 -21 -12 -39q-19 -23 -19 -31l5 -10q14 -18 49 -18q63 0 119 45q51 43 83.5 105.5t59.5 146.5q47 144 90 440l63 412q1 9 10 67t9 78q0 26 -7.5 31.5t-35.5 5.5q-11 0 -33.5 -1t-34.5 -1h-39q-5 0 -13.5 -1t-16 -1 t-13.5 2q-21 6 -16 20q0 27 51 27q18 0 54.5 -4t54.5 -4q41 0 53 11t23 52q6 18 17 59.5t21.5 71.5t24.5 56q46 95 131.5 149.5t190.5 54.5q137 0 188 -73q23 -29 23 -72q0 -50 -30 -73t-59 -23q-26 2 -43.5 19.5t-17.5 43.5q0 34 25 49q1 1 12.5 5.5t17.5 10t6 13.5 q0 12 -14 23q-34 34 -115 34q-75 0 -139 -39q-71 -41 -110 -108t-62 -160q-14 -58 -14 -82q0 -12 10 -16t35 -4q16 0 45.5 2t44.5 2h55q9 0 26.5 1t26.5 1q60 0 60 -25q0 -4 -4 -12q-12 -14 -56 -14q-16 0 -34.5 1t-41 2.5t-34.5 2.5q-39 0 -57 2h-45h-15t-11.5 -2t-9 -2.5 t-6.5 -4.5t-4 -5t-3 -8.5t-2.5 -9t-2 -12t-2.5 -13.5l-61 -396q-14 -114 -33 -239q-18 -115 -35 -198.5t-58 -194t-95 -177.5q-94 -118 -215 -118q-40 0 -70 12q-43 18 -59.5 50t-16.5 60zM770 1436q0 8 12 20q16 10 35.5 12t58.5 -1t64 -3q41 0 64 2q5 0 16 1t16 1 q15 0 23 -5t9 -10t1 -15q0 -11 -1.5 -20t-5.5 -25t-7 -31q-3 -16 -10 -44t-9 -38l-141 -735q-55 -264 -55 -350q0 -100 47 -142q27 -24 69 -24q39 0 70 22q44 33 81 107t56 143q4 12 19 70q0 1 1 5t1.5 5t1 4.5t1.5 4.5t2 3.5t2.5 3.5t3 2.5t4 2t5.5 1t6 0.5q17 0 17 -20 q0 -21 -4 -35q-7 -35 -35.5 -112t-65.5 -140q-72 -110 -174 -110q-68 0 -116 50.5t-48 160.5q0 23 2 47t8.5 63.5t10.5 61t17 85.5t18 91l143 739q2 15 6 35.5t6 33.5t2 19q0 15 -5.5 25.5t-11.5 15.5t-21 7.5t-22 2.5h-26q-39 0 -69 -6q-24 -4 -41 -4q-31 0 -31 23z" />
</font>
</defs>
</svg>
